{"glyphs":{"0":{"ha":1149,"x_min":155,"x_max":994,"o":"m 573 -40 q 360 18 456 -40 q 209 173 264 75 q 155 387 155 270 l 155 998 q 209 1212 155 1115 q 360 1367 264 1310 q 573 1425 456 1425 q 786 1367 688 1425 q 938 1212 883 1310 q 994 998 994 1115 l 994 387 q 938 173 994 270 q 786 18 883 75 q 573 -40 688 -40 m 573 198 q 703 255 651 198 q 756 391 756 312 l 756 994 q 703 1130 756 1073 q 573 1187 651 1187 q 444 1130 496 1187 q 393 994 393 1073 l 393 391 q 444 255 393 312 q 573 198 496 198 z "},"1":{"ha":587,"x_min":179,"x_max":409,"o":"m 179 1194 q 270 1269 232 1216 q 315 1389 308 1321 l 409 1389 l 409 0 l 179 0 l 179 1194 z "},"2":{"ha":1095,"x_min":149,"x_max":946,"o":"m 153 0 q 149 93 149 32 q 209 401 149 270 q 347 611 270 532 q 534 776 425 690 q 673 905 631 853 q 714 1018 714 956 q 666 1144 714 1103 q 552 1185 617 1185 q 449 1146 502 1185 q 397 1018 397 1107 l 159 1018 q 211 1221 159 1129 q 354 1367 264 1313 q 552 1421 444 1421 q 756 1369 667 1421 q 895 1225 845 1317 q 944 1018 944 1133 q 872 791 944 889 q 679 599 800 692 q 484 421 554 502 q 403 230 415 339 l 946 230 l 946 0 l 153 0 z "},"3":{"ha":1153,"x_min":149,"x_max":998,"o":"m 855 720 q 961 581 925 665 q 998 403 998 498 q 940 186 998 286 q 787 26 883 85 q 577 -34 690 -34 q 362 22 460 -34 q 206 178 264 77 q 149 403 149 278 l 373 403 q 406 281 373 327 q 485 213 438 234 q 575 192 532 192 q 716 253 661 192 q 772 403 772 313 q 707 549 772 496 q 544 601 643 601 l 544 827 q 695 876 637 827 q 754 1020 754 925 q 694 1155 754 1109 q 567 1200 635 1200 q 441 1153 496 1200 q 387 1028 387 1105 l 165 1028 q 223 1235 165 1145 q 375 1374 282 1325 q 567 1423 468 1423 q 766 1373 671 1423 q 920 1232 861 1323 q 978 1020 978 1141 q 945 854 978 931 q 855 720 913 778 z "},"4":{"ha":1254,"x_min":109,"x_max":1145,"o":"m 1145 319 l 964 319 l 964 0 l 730 0 l 730 319 l 109 319 l 109 554 l 750 1389 l 964 1389 l 964 554 l 1145 554 l 1145 319 m 730 554 l 730 990 l 399 554 l 730 554 z "},"5":{"ha":1192,"x_min":129,"x_max":1050,"o":"m 611 946 q 819 878 718 940 q 985 708 921 815 q 1050 468 1050 601 q 984 208 1050 325 q 806 24 919 91 q 560 -44 692 -44 q 373 -3 460 -44 q 222 101 286 38 q 129 234 159 165 l 339 327 q 429 227 367 264 q 563 190 490 190 q 665 210 617 190 q 774 305 728 236 q 819 468 819 373 q 785 596 819 540 q 697 684 750 653 q 595 718 645 714 q 458 698 524 724 q 383 647 417 679 l 224 802 l 292 1389 l 990 1389 l 990 1163 l 494 1163 l 468 937 q 611 946 526 950 z "},"6":{"ha":1198,"x_min":159,"x_max":1050,"o":"m 599 851 q 824 791 720 851 q 989 626 929 730 q 1050 401 1050 522 q 989 176 1050 280 q 824 11 929 71 q 599 -50 720 -50 q 381 7 480 -50 q 222 163 282 63 q 159 381 163 262 l 159 1000 q 217 1222 159 1123 q 377 1378 276 1321 q 599 1435 478 1435 q 818 1378 716 1435 q 981 1221 921 1321 q 1042 998 1042 1121 l 812 998 q 776 1113 812 1065 q 690 1184 740 1161 q 599 1206 641 1206 q 510 1186 560 1206 q 425 1118 460 1165 q 389 1000 389 1071 l 389 798 q 599 851 486 851 m 599 181 q 756 245 690 181 q 821 401 821 310 q 756 557 821 492 q 599 621 690 621 q 449 558 510 621 q 389 401 389 494 q 449 244 389 308 q 599 181 510 181 z "},"7":{"ha":1113,"x_min":109,"x_max":1004,"o":"m 1004 1389 l 1004 1151 q 840 920 929 1069 q 681 532 752 770 q 609 0 609 294 l 363 0 q 430 498 363 258 q 584 912 496 738 q 740 1159 673 1085 l 109 1159 l 109 1389 l 1004 1389 z "},"8":{"ha":1147,"x_min":129,"x_max":1018,"o":"m 849 756 q 973 603 929 694 q 1018 409 1018 512 q 957 188 1018 290 q 795 25 897 85 q 573 -36 692 -36 q 350 25 452 -36 q 188 187 248 85 q 129 409 129 288 q 174 603 129 512 q 296 756 218 694 q 214 880 244 810 q 185 1030 185 950 q 237 1224 185 1135 q 379 1366 290 1313 q 573 1419 468 1419 q 768 1366 679 1419 q 910 1224 857 1313 q 962 1030 962 1135 q 933 880 962 950 q 849 756 903 810 m 573 1208 q 455 1161 504 1208 q 407 1044 407 1113 q 456 926 407 974 q 573 877 506 877 q 690 926 641 877 q 740 1044 740 974 q 691 1160 740 1111 q 573 1208 643 1208 m 573 200 q 719 262 659 200 q 780 409 780 323 q 719 555 780 494 q 573 615 659 615 q 427 555 488 615 q 365 409 365 494 q 427 262 365 323 q 573 200 488 200 z "},"9":{"ha":1212,"x_min":163,"x_max":1054,"o":"m 1054 391 q 995 169 1054 268 q 835 13 937 69 q 613 -44 734 -44 q 394 13 496 -44 q 231 170 292 69 q 171 393 171 270 l 401 393 q 437 278 401 325 q 522 207 472 230 q 613 185 571 185 q 702 205 653 185 q 788 273 752 226 q 823 391 823 319 l 823 593 q 613 540 726 540 q 388 600 492 540 q 223 765 284 661 q 163 990 163 869 q 223 1215 163 1111 q 388 1380 284 1319 q 613 1440 492 1440 q 831 1384 732 1440 q 990 1228 931 1327 q 1054 1010 1050 1129 l 1054 391 m 613 770 q 763 833 702 770 q 823 990 823 897 q 763 1147 823 1083 q 613 1210 702 1210 q 456 1146 522 1210 q 391 990 391 1081 q 456 834 391 899 q 613 770 522 770 z "}," ":{"ha":813,"x_min":0,"x_max":0,"o":""},"A":{"ha":1280,"x_min":91,"x_max":1188,"o":"m 851 317 l 429 317 l 333 0 l 91 0 l 526 1389 l 754 1389 l 1188 0 l 946 0 l 851 317 m 784 542 l 639 1028 l 494 542 l 784 542 z "},"Á":{"ha":1280,"x_min":91,"x_max":1188,"o":"m 851 317 l 429 317 l 333 0 l 91 0 l 526 1389 l 754 1389 l 1188 0 l 946 0 l 851 317 m 784 542 l 639 1028 l 494 542 l 784 542 m 480 1575 l 726 1752 l 798 1645 l 532 1502 l 480 1575 z "},"Ă":{"ha":1280,"x_min":91,"x_max":1188,"o":"m 851 317 l 429 317 l 333 0 l 91 0 l 526 1389 l 754 1389 l 1188 0 l 946 0 l 851 317 m 784 542 l 639 1028 l 494 542 l 784 542 m 637 1486 q 496 1538 558 1486 q 429 1663 435 1589 l 542 1663 q 575 1618 550 1635 q 637 1601 601 1601 q 698 1618 671 1601 q 734 1663 726 1635 l 847 1663 q 777 1537 839 1587 q 637 1486 714 1486 z "},"Ắ":{"ha":1280,"x_min":91,"x_max":1188,"o":"m 851 317 l 429 317 l 333 0 l 91 0 l 526 1389 l 754 1389 l 1188 0 l 946 0 l 851 317 m 784 542 l 639 1028 l 494 542 l 784 542 z "},"Ặ":{"ha":1280,"x_min":91,"x_max":1188,"o":"m 851 317 l 429 317 l 333 0 l 91 0 l 526 1389 l 754 1389 l 1188 0 l 946 0 l 851 317 m 784 542 l 639 1028 l 494 542 l 784 542 m 623 -268 q 561 -242 585 -268 q 536 -181 536 -216 q 561 -119 536 -145 q 623 -93 585 -93 q 685 -119 659 -93 q 710 -181 710 -145 q 685 -242 710 -216 q 623 -268 659 -268 m 637 1486 q 496 1538 558 1486 q 429 1663 435 1589 l 542 1663 q 575 1618 550 1635 q 637 1601 601 1601 q 698 1618 671 1601 q 734 1663 726 1635 l 847 1663 q 777 1537 839 1587 q 637 1486 714 1486 z "},"Ằ":{"ha":1280,"x_min":91,"x_max":1188,"o":"m 851 317 l 429 317 l 333 0 l 91 0 l 526 1389 l 754 1389 l 1188 0 l 946 0 l 851 317 m 784 542 l 639 1028 l 494 542 l 784 542 z "},"Ẳ":{"ha":1280,"x_min":91,"x_max":1188,"o":"m 851 317 l 429 317 l 333 0 l 91 0 l 526 1389 l 754 1389 l 1188 0 l 946 0 l 851 317 m 784 542 l 639 1028 l 494 542 l 784 542 z "},"Ẵ":{"ha":1280,"x_min":91,"x_max":1188,"o":"m 851 317 l 429 317 l 333 0 l 91 0 l 526 1389 l 754 1389 l 1188 0 l 946 0 l 851 317 m 784 542 l 639 1028 l 494 542 l 784 542 z "},"Ǎ":{"ha":1280,"x_min":91,"x_max":1188,"o":"m 851 317 l 429 317 l 333 0 l 91 0 l 526 1389 l 754 1389 l 1188 0 l 946 0 l 851 317 m 784 542 l 639 1028 l 494 542 l 784 542 m 639 1631 l 849 1698 l 849 1597 l 639 1494 l 431 1597 l 431 1698 l 639 1631 z "},"Â":{"ha":1280,"x_min":91,"x_max":1188,"o":"m 851 317 l 429 317 l 333 0 l 91 0 l 526 1389 l 754 1389 l 1188 0 l 946 0 l 851 317 m 784 542 l 639 1028 l 494 542 l 784 542 m 433 1573 l 637 1675 l 843 1573 l 843 1474 l 637 1540 l 433 1474 l 433 1573 z "},"Ấ":{"ha":1280,"x_min":91,"x_max":1188,"o":"m 851 317 l 429 317 l 333 0 l 91 0 l 526 1389 l 754 1389 l 1188 0 l 946 0 l 851 317 m 784 542 l 639 1028 l 494 542 l 784 542 z "},"Ậ":{"ha":1280,"x_min":91,"x_max":1188,"o":"m 851 317 l 429 317 l 333 0 l 91 0 l 526 1389 l 754 1389 l 1188 0 l 946 0 l 851 317 m 784 542 l 639 1028 l 494 542 l 784 542 m 623 -268 q 561 -242 585 -268 q 536 -181 536 -216 q 561 -119 536 -145 q 623 -93 585 -93 q 685 -119 659 -93 q 710 -181 710 -145 q 685 -242 710 -216 q 623 -268 659 -268 m 433 1573 l 637 1675 l 843 1573 l 843 1474 l 637 1540 l 433 1474 l 433 1573 z "},"Ầ":{"ha":1280,"x_min":91,"x_max":1188,"o":"m 851 317 l 429 317 l 333 0 l 91 0 l 526 1389 l 754 1389 l 1188 0 l 946 0 l 851 317 m 784 542 l 639 1028 l 494 542 l 784 542 z "},"Ẩ":{"ha":1280,"x_min":91,"x_max":1188,"o":"m 851 317 l 429 317 l 333 0 l 91 0 l 526 1389 l 754 1389 l 1188 0 l 946 0 l 851 317 m 784 542 l 639 1028 l 494 542 l 784 542 z "},"Ẫ":{"ha":1280,"x_min":91,"x_max":1188,"o":"m 851 317 l 429 317 l 333 0 l 91 0 l 526 1389 l 754 1389 l 1188 0 l 946 0 l 851 317 m 784 542 l 639 1028 l 494 542 l 784 542 z "},"Ä":{"ha":1280,"x_min":91,"x_max":1188,"o":"m 851 317 l 429 317 l 333 0 l 91 0 l 526 1389 l 754 1389 l 1188 0 l 946 0 l 851 317 m 784 542 l 639 1028 l 494 542 l 784 542 m 486 1508 q 424 1534 448 1508 q 399 1595 399 1560 q 424 1657 399 1631 q 486 1683 448 1683 q 548 1657 522 1683 q 573 1595 573 1631 q 548 1534 573 1560 q 486 1508 522 1508 m 792 1508 q 729 1534 754 1508 q 704 1595 704 1560 q 729 1657 704 1631 q 792 1683 754 1683 q 853 1657 827 1683 q 879 1595 879 1631 q 853 1534 879 1560 q 792 1508 827 1508 z "},"Ạ":{"ha":1280,"x_min":91,"x_max":1188,"o":"m 851 317 l 429 317 l 333 0 l 91 0 l 526 1389 l 754 1389 l 1188 0 l 946 0 l 851 317 m 784 542 l 639 1028 l 494 542 l 784 542 m 623 -268 q 561 -242 585 -268 q 536 -181 536 -216 q 561 -119 536 -145 q 623 -93 585 -93 q 685 -119 659 -93 q 710 -181 710 -145 q 685 -242 710 -216 q 623 -268 659 -268 z "},"À":{"ha":1280,"x_min":91,"x_max":1188,"o":"m 851 317 l 429 317 l 333 0 l 91 0 l 526 1389 l 754 1389 l 1188 0 l 946 0 l 851 317 m 784 542 l 639 1028 l 494 542 l 784 542 m 480 1645 l 552 1752 l 798 1575 l 746 1502 l 480 1645 z "},"Ả":{"ha":1280,"x_min":91,"x_max":1188,"o":"m 851 317 l 429 317 l 333 0 l 91 0 l 526 1389 l 754 1389 l 1188 0 l 946 0 l 851 317 m 784 542 l 639 1028 l 494 542 l 784 542 m 593 1615 q 674 1633 647 1615 q 700 1681 700 1651 q 682 1717 700 1702 q 633 1732 663 1732 q 573 1716 603 1732 l 573 1804 q 645 1823 599 1823 q 746 1790 698 1823 q 802 1696 794 1756 q 775 1597 808 1641 q 683 1542 742 1554 l 683 1504 l 593 1504 l 593 1615 z "},"Ā":{"ha":1280,"x_min":91,"x_max":1188,"o":"m 851 317 l 429 317 l 333 0 l 91 0 l 526 1389 l 754 1389 l 1188 0 l 946 0 l 851 317 m 784 542 l 639 1028 l 494 542 l 784 542 m 425 1629 l 853 1629 l 853 1512 l 425 1512 l 425 1629 z "},"Ą":{"ha":1280,"x_min":91,"x_max":1188,"o":"m 1032 -99 q 1056 -151 1032 -133 q 1115 -169 1079 -169 q 1155 -163 1135 -169 l 1155 -270 q 1083 -280 1111 -280 q 961 -238 1008 -280 q 915 -127 915 -196 q 932 -54 915 -83 q 984 0 948 -24 l 946 0 l 851 317 l 429 317 l 333 0 l 91 0 l 526 1389 l 754 1389 l 1188 0 l 1105 0 q 1032 -99 1032 -48 m 784 542 l 639 1028 l 494 542 l 784 542 z "},"Å":{"ha":1280,"x_min":91,"x_max":1188,"o":"m 851 317 l 429 317 l 333 0 l 91 0 l 504 1321 q 448 1394 468 1351 q 429 1484 429 1437 q 490 1632 429 1571 q 639 1692 552 1692 q 787 1632 726 1692 q 847 1484 847 1571 q 827 1395 847 1437 q 774 1323 808 1353 l 1188 0 l 946 0 l 851 317 m 639 1583 q 571 1555 599 1583 q 544 1488 544 1526 q 571 1418 544 1446 q 639 1389 599 1389 q 706 1418 679 1389 q 734 1488 734 1446 q 706 1555 734 1526 q 639 1583 679 1583 m 784 542 l 639 1028 l 494 542 l 784 542 z "},"Ã":{"ha":1280,"x_min":91,"x_max":1188,"o":"m 851 317 l 429 317 l 333 0 l 91 0 l 526 1389 l 754 1389 l 1188 0 l 946 0 l 851 317 m 784 542 l 639 1028 l 494 542 l 784 542 m 845 1514 q 754 1544 810 1544 q 641 1520 702 1544 q 522 1494 569 1494 q 450 1511 468 1494 q 431 1530 433 1528 l 431 1641 q 536 1609 478 1609 q 635 1629 577 1609 q 754 1653 704 1653 q 822 1640 804 1653 q 843 1625 841 1627 l 845 1514 z "},"Æ":{"ha":1772,"x_min":69,"x_max":1623,"o":"m 1006 1159 l 1006 837 l 1345 837 l 1345 615 l 1006 615 l 1006 230 l 1623 230 l 1623 0 l 776 0 l 776 317 l 444 317 l 317 0 l 69 0 l 623 1389 l 1623 1389 l 1623 1159 l 1006 1159 m 776 542 l 776 1155 l 532 542 l 776 542 z "},"B":{"ha":1137,"x_min":159,"x_max":1018,"o":"m 863 746 q 977 602 937 687 q 1018 423 1018 518 q 960 207 1018 306 q 805 52 903 109 q 589 -6 706 -6 l 159 -6 l 159 1389 l 591 1389 q 784 1337 698 1389 q 918 1199 869 1286 q 966 1012 966 1113 q 863 746 966 853 m 389 1163 l 389 851 l 595 851 q 696 898 655 851 q 738 1004 738 944 q 694 1114 738 1065 q 585 1163 651 1163 l 389 1163 m 577 222 q 726 280 667 222 q 786 427 786 337 q 728 561 786 504 q 595 617 671 617 l 389 617 l 389 222 l 577 222 z "},"C":{"ha":1161,"x_min":159,"x_max":1012,"o":"m 562 -38 q 360 17 452 -38 q 213 164 268 71 q 159 365 159 256 l 159 1014 q 213 1218 159 1123 q 360 1370 268 1313 q 562 1427 452 1427 l 609 1427 q 794 1382 706 1427 q 939 1256 881 1337 q 1008 1071 998 1175 q 1012 1002 1012 1028 l 782 1002 q 724 1149 782 1091 q 581 1206 667 1206 q 446 1148 504 1206 q 389 1008 389 1089 l 389 381 q 447 240 389 300 q 583 181 506 181 q 729 253 677 181 q 782 446 782 325 l 1006 446 q 1004 353 1006 383 q 938 147 996 236 q 791 10 879 58 q 609 -38 702 -38 l 562 -38 z "},"Ć":{"ha":1161,"x_min":159,"x_max":1012,"o":"m 562 -38 q 360 17 452 -38 q 213 164 268 71 q 159 365 159 256 l 159 1014 q 213 1218 159 1123 q 360 1370 268 1313 q 562 1427 452 1427 l 609 1427 q 794 1382 706 1427 q 939 1256 881 1337 q 1008 1071 998 1175 q 1012 1002 1012 1028 l 782 1002 q 724 1149 782 1091 q 581 1206 667 1206 q 446 1148 504 1206 q 389 1008 389 1089 l 389 381 q 447 240 389 300 q 583 181 506 181 q 729 253 677 181 q 782 446 782 325 l 1006 446 q 1004 353 1006 383 q 938 147 996 236 q 791 10 879 58 q 609 -38 702 -38 l 562 -38 m 427 1575 l 673 1752 l 744 1645 l 478 1502 l 427 1575 z "},"Č":{"ha":1161,"x_min":159,"x_max":1012,"o":"m 562 -38 q 360 17 452 -38 q 213 164 268 71 q 159 365 159 256 l 159 1014 q 213 1218 159 1123 q 360 1370 268 1313 q 562 1427 452 1427 l 609 1427 q 794 1382 706 1427 q 939 1256 881 1337 q 1008 1071 998 1175 q 1012 1002 1012 1028 l 782 1002 q 724 1149 782 1091 q 581 1206 667 1206 q 446 1148 504 1206 q 389 1008 389 1089 l 389 381 q 447 240 389 300 q 583 181 506 181 q 729 253 677 181 q 782 446 782 325 l 1006 446 q 1004 353 1006 383 q 938 147 996 236 q 791 10 879 58 q 609 -38 702 -38 l 562 -38 m 585 1631 l 796 1698 l 796 1597 l 585 1494 l 377 1597 l 377 1698 l 585 1631 z "},"Ç":{"ha":1161,"x_min":159,"x_max":1012,"o":"m 583 181 q 729 253 677 181 q 782 446 782 325 l 1006 446 q 1004 353 1006 383 q 949 166 998 248 q 827 32 901 83 q 669 -34 754 -20 l 627 -69 q 669 -118 655 -87 q 683 -183 683 -149 q 639 -285 683 -244 q 524 -325 595 -325 q 472 -319 500 -325 l 472 -214 q 502 -216 482 -216 q 550 -204 534 -216 q 565 -173 565 -192 q 540 -123 565 -147 q 472 -91 514 -99 l 528 -36 q 341 28 427 -28 q 207 173 256 83 q 159 365 159 262 l 159 1014 q 213 1218 159 1123 q 360 1370 268 1313 q 562 1427 452 1427 l 609 1427 q 794 1382 706 1427 q 939 1256 881 1337 q 1008 1071 998 1175 q 1012 1002 1012 1028 l 782 1002 q 724 1149 782 1091 q 581 1206 667 1206 q 446 1148 504 1206 q 389 1008 389 1089 l 389 381 q 447 240 389 300 q 583 181 506 181 z "},"Ċ":{"ha":1161,"x_min":159,"x_max":1012,"o":"m 562 -38 q 360 17 452 -38 q 213 164 268 71 q 159 365 159 256 l 159 1014 q 213 1218 159 1123 q 360 1370 268 1313 q 562 1427 452 1427 l 609 1427 q 794 1382 706 1427 q 939 1256 881 1337 q 1008 1071 998 1175 q 1012 1002 1012 1028 l 782 1002 q 724 1149 782 1091 q 581 1206 667 1206 q 446 1148 504 1206 q 389 1008 389 1089 l 389 381 q 447 240 389 300 q 583 181 506 181 q 729 253 677 181 q 782 446 782 325 l 1006 446 q 1004 353 1006 383 q 938 147 996 236 q 791 10 879 58 q 609 -38 702 -38 l 562 -38 m 569 1508 q 507 1534 532 1508 q 482 1595 482 1560 q 507 1657 482 1631 q 569 1683 532 1683 q 631 1657 605 1683 q 657 1595 657 1631 q 631 1534 657 1560 q 569 1508 605 1508 z "},"D":{"ha":1167,"x_min":159,"x_max":1012,"o":"m 625 1389 q 819 1337 730 1389 q 960 1197 909 1286 q 1012 1004 1012 1109 l 1012 381 q 960 188 1012 276 q 819 48 909 99 q 625 -4 730 -4 l 159 -4 l 159 1389 l 625 1389 m 780 992 q 731 1110 780 1062 q 613 1159 683 1159 l 389 1159 l 389 226 l 623 226 q 734 272 688 226 q 780 381 780 317 l 780 992 z "},"Ð":{"ha":1167,"x_min":77,"x_max":1012,"o":"m 625 1389 q 819 1337 730 1389 q 960 1197 909 1286 q 1012 1004 1012 1109 l 1012 381 q 960 188 1012 276 q 819 48 909 99 q 625 -4 730 -4 l 159 -4 l 159 605 l 77 605 l 77 835 l 159 835 l 159 1389 l 625 1389 m 780 992 q 731 1110 780 1062 q 613 1159 683 1159 l 389 1159 l 389 835 l 587 835 l 587 605 l 389 605 l 389 226 l 623 226 q 734 272 688 226 q 780 381 780 317 l 780 992 z "},"Ď":{"ha":1167,"x_min":159,"x_max":1012,"o":"m 625 1389 q 819 1337 730 1389 q 960 1197 909 1286 q 1012 1004 1012 1109 l 1012 381 q 960 188 1012 276 q 819 48 909 99 q 625 -4 730 -4 l 159 -4 l 159 1389 l 625 1389 m 780 992 q 731 1110 780 1062 q 613 1159 683 1159 l 389 1159 l 389 226 l 623 226 q 734 272 688 226 q 780 381 780 317 l 780 992 m 556 1611 l 766 1679 l 766 1577 l 556 1474 l 347 1577 l 347 1679 l 556 1611 z "},"Đ":{"ha":1167,"x_min":77,"x_max":1012,"o":"m 625 1389 q 819 1337 730 1389 q 960 1197 909 1286 q 1012 1004 1012 1109 l 1012 381 q 960 188 1012 276 q 819 48 909 99 q 625 -4 730 -4 l 159 -4 l 159 605 l 77 605 l 77 835 l 159 835 l 159 1389 l 625 1389 m 780 992 q 731 1110 780 1062 q 613 1159 683 1159 l 389 1159 l 389 835 l 587 835 l 587 605 l 389 605 l 389 226 l 623 226 q 734 272 688 226 q 780 381 780 317 l 780 992 z "},"E":{"ha":1155,"x_min":159,"x_max":1006,"o":"m 389 1159 l 389 837 l 728 837 l 728 615 l 389 615 l 389 230 l 1006 230 l 1006 0 l 159 0 l 159 1389 l 1006 1389 l 1006 1159 l 389 1159 z "},"É":{"ha":1155,"x_min":159,"x_max":1006,"o":"m 389 1159 l 389 837 l 728 837 l 728 615 l 389 615 l 389 230 l 1006 230 l 1006 0 l 159 0 l 159 1389 l 1006 1389 l 1006 1159 l 389 1159 m 423 1556 l 669 1732 l 740 1625 l 474 1482 l 423 1556 z "},"Ě":{"ha":1155,"x_min":159,"x_max":1006,"o":"m 389 1159 l 389 837 l 728 837 l 728 615 l 389 615 l 389 230 l 1006 230 l 1006 0 l 159 0 l 159 1389 l 1006 1389 l 1006 1159 l 389 1159 m 581 1611 l 792 1679 l 792 1577 l 581 1474 l 373 1577 l 373 1679 l 581 1611 z "},"Ê":{"ha":1155,"x_min":159,"x_max":1006,"o":"m 389 1159 l 389 837 l 728 837 l 728 615 l 389 615 l 389 230 l 1006 230 l 1006 0 l 159 0 l 159 1389 l 1006 1389 l 1006 1159 l 389 1159 m 375 1613 l 579 1714 l 786 1613 l 786 1514 l 579 1579 l 375 1514 l 375 1613 z "},"Ế":{"ha":1155,"x_min":159,"x_max":1014,"o":"m 389 1159 l 389 837 l 728 837 l 728 615 l 389 615 l 389 230 l 1006 230 l 1006 0 l 159 0 l 159 1389 l 1006 1389 l 1006 1159 l 389 1159 z "},"Ệ":{"ha":1155,"x_min":159,"x_max":1006,"o":"m 389 1159 l 389 837 l 728 837 l 728 615 l 389 615 l 389 230 l 1006 230 l 1006 0 l 159 0 l 159 1389 l 1006 1389 l 1006 1159 l 389 1159 m 565 -272 q 503 -246 528 -272 q 478 -185 478 -220 q 503 -123 478 -149 q 565 -97 528 -97 q 627 -123 601 -97 q 653 -185 653 -149 q 627 -246 653 -220 q 565 -272 601 -272 m 375 1613 l 579 1714 l 786 1613 l 786 1514 l 579 1579 l 375 1514 l 375 1613 z "},"Ề":{"ha":1155,"x_min":159,"x_max":1006,"o":"m 389 1159 l 389 837 l 728 837 l 728 615 l 389 615 l 389 230 l 1006 230 l 1006 0 l 159 0 l 159 1389 l 1006 1389 l 1006 1159 l 389 1159 z "},"Ể":{"ha":1155,"x_min":159,"x_max":1006,"o":"m 389 1159 l 389 837 l 728 837 l 728 615 l 389 615 l 389 230 l 1006 230 l 1006 0 l 159 0 l 159 1389 l 1006 1389 l 1006 1159 l 389 1159 z "},"Ễ":{"ha":1155,"x_min":159,"x_max":1006,"o":"m 389 1159 l 389 837 l 728 837 l 728 615 l 389 615 l 389 230 l 1006 230 l 1006 0 l 159 0 l 159 1389 l 1006 1389 l 1006 1159 l 389 1159 z "},"Ë":{"ha":1155,"x_min":159,"x_max":1006,"o":"m 389 1159 l 389 837 l 728 837 l 728 615 l 389 615 l 389 230 l 1006 230 l 1006 0 l 159 0 l 159 1389 l 1006 1389 l 1006 1159 l 389 1159 m 429 1488 q 366 1514 391 1488 q 341 1575 341 1540 q 366 1637 341 1611 q 429 1663 391 1663 q 490 1637 464 1663 q 516 1575 516 1611 q 490 1514 516 1540 q 429 1488 464 1488 m 734 1488 q 672 1514 696 1488 q 647 1575 647 1540 q 672 1637 647 1611 q 734 1663 696 1663 q 796 1637 770 1663 q 821 1575 821 1611 q 796 1514 821 1540 q 734 1488 770 1488 z "},"Ė":{"ha":1155,"x_min":159,"x_max":1006,"o":"m 389 1159 l 389 837 l 728 837 l 728 615 l 389 615 l 389 230 l 1006 230 l 1006 0 l 159 0 l 159 1389 l 1006 1389 l 1006 1159 l 389 1159 m 565 1488 q 503 1514 528 1488 q 478 1575 478 1540 q 503 1637 478 1611 q 565 1663 528 1663 q 627 1637 601 1663 q 653 1575 653 1611 q 627 1514 653 1540 q 565 1488 601 1488 z "},"Ẹ":{"ha":1155,"x_min":159,"x_max":1006,"o":"m 389 1159 l 389 837 l 728 837 l 728 615 l 389 615 l 389 230 l 1006 230 l 1006 0 l 159 0 l 159 1389 l 1006 1389 l 1006 1159 l 389 1159 m 565 -272 q 503 -246 528 -272 q 478 -185 478 -220 q 503 -123 478 -149 q 565 -97 528 -97 q 627 -123 601 -97 q 653 -185 653 -149 q 627 -246 653 -220 q 565 -272 601 -272 z "},"È":{"ha":1155,"x_min":159,"x_max":1006,"o":"m 389 1159 l 389 837 l 728 837 l 728 615 l 389 615 l 389 230 l 1006 230 l 1006 0 l 159 0 l 159 1389 l 1006 1389 l 1006 1159 l 389 1159 m 423 1625 l 494 1732 l 740 1556 l 688 1482 l 423 1625 z "},"Ẻ":{"ha":1155,"x_min":159,"x_max":1006,"o":"m 389 1159 l 389 837 l 728 837 l 728 615 l 389 615 l 389 230 l 1006 230 l 1006 0 l 159 0 l 159 1389 l 1006 1389 l 1006 1159 l 389 1159 m 536 1595 q 616 1613 589 1595 q 643 1661 643 1631 q 624 1697 643 1683 q 575 1712 605 1712 q 516 1696 546 1712 l 516 1784 q 587 1804 542 1804 q 688 1770 641 1804 q 744 1677 736 1736 q 717 1577 750 1621 q 625 1522 685 1534 l 625 1484 l 536 1484 l 536 1595 z "},"Ē":{"ha":1155,"x_min":159,"x_max":1006,"o":"m 389 1159 l 389 837 l 728 837 l 728 615 l 389 615 l 389 230 l 1006 230 l 1006 0 l 159 0 l 159 1389 l 1006 1389 l 1006 1159 l 389 1159 m 367 1609 l 796 1609 l 796 1492 l 367 1492 l 367 1609 z "},"Ę":{"ha":1155,"x_min":159,"x_max":1006,"o":"m 389 1159 l 389 837 l 728 837 l 728 615 l 389 615 l 389 230 l 1006 230 l 1006 0 l 643 0 q 569 -99 569 -48 q 593 -151 569 -133 q 653 -169 617 -169 q 692 -163 673 -169 l 692 -270 q 621 -280 649 -280 q 499 -238 546 -280 q 452 -127 452 -196 q 469 -54 452 -83 q 522 0 486 -24 l 159 0 l 159 1389 l 1006 1389 l 1006 1159 l 389 1159 z "},"Ẽ":{"ha":1155,"x_min":159,"x_max":1006,"o":"m 389 1159 l 389 837 l 728 837 l 728 615 l 389 615 l 389 230 l 1006 230 l 1006 0 l 159 0 l 159 1389 l 1006 1389 l 1006 1159 l 389 1159 m 788 1494 q 696 1524 752 1524 q 583 1500 645 1524 q 464 1474 512 1474 q 393 1491 411 1474 q 373 1510 375 1508 l 373 1621 q 478 1589 421 1589 q 577 1609 520 1589 q 696 1633 647 1633 q 765 1620 746 1633 q 786 1605 784 1607 l 788 1494 z "},"F":{"ha":1115,"x_min":159,"x_max":1006,"o":"m 389 1159 l 389 837 l 728 837 l 728 615 l 389 615 l 389 0 l 159 0 l 159 1389 l 1006 1389 l 1006 1159 l 389 1159 z "},"G":{"ha":1167,"x_min":159,"x_max":1012,"o":"m 595 613 l 1012 613 l 1012 0 q 980 -4 988 -4 q 859 69 909 -4 q 740 -8 806 20 q 609 -36 675 -36 l 562 -36 q 360 19 452 -36 q 213 166 268 73 q 159 367 159 258 l 159 1010 q 213 1210 159 1115 q 360 1364 268 1306 q 562 1423 452 1423 l 609 1423 q 807 1367 714 1423 q 954 1214 899 1312 q 1012 1000 1010 1117 l 778 1000 q 719 1137 778 1081 q 581 1192 661 1192 q 445 1137 502 1192 q 389 1006 389 1081 l 389 383 q 446 248 389 304 q 581 192 504 192 q 712 246 661 192 q 772 387 764 300 l 595 387 l 595 613 z "},"Ğ":{"ha":1167,"x_min":159,"x_max":1012,"o":"m 595 613 l 1012 613 l 1012 0 q 980 -4 988 -4 q 859 69 909 -4 q 740 -8 806 20 q 609 -36 675 -36 l 562 -36 q 360 19 452 -36 q 213 166 268 73 q 159 367 159 258 l 159 1010 q 213 1210 159 1115 q 360 1364 268 1306 q 562 1423 452 1423 l 609 1423 q 807 1367 714 1423 q 954 1214 899 1312 q 1012 1000 1010 1117 l 778 1000 q 719 1137 778 1081 q 581 1192 661 1192 q 445 1137 502 1192 q 389 1006 389 1081 l 389 383 q 446 248 389 304 q 581 192 504 192 q 712 246 661 192 q 772 387 764 300 l 595 387 l 595 613 m 583 1482 q 442 1534 504 1482 q 375 1659 381 1585 l 488 1659 q 522 1614 496 1631 q 583 1597 548 1597 q 645 1614 617 1597 q 681 1659 673 1631 l 794 1659 q 723 1533 786 1583 q 583 1482 661 1482 z "},"Ģ":{"ha":1167,"x_min":159,"x_max":1012,"o":"m 595 613 l 1012 613 l 1012 0 q 980 -4 988 -4 q 859 69 909 -4 q 740 -8 806 20 q 609 -36 675 -36 l 562 -36 q 360 19 452 -36 q 213 166 268 73 q 159 367 159 258 l 159 1010 q 213 1210 159 1115 q 360 1364 268 1306 q 562 1423 452 1423 l 609 1423 q 807 1367 714 1423 q 954 1214 899 1312 q 1012 1000 1010 1117 l 778 1000 q 719 1137 778 1081 q 581 1192 661 1192 q 445 1137 502 1192 q 389 1006 389 1081 l 389 383 q 446 248 389 304 q 581 192 504 192 q 712 246 661 192 q 772 387 764 300 l 595 387 l 595 613 m 649 -212 q 606 -305 647 -266 q 524 -349 565 -343 q 544 -274 538 -317 q 505 -243 520 -264 q 490 -196 490 -222 q 514 -141 490 -165 q 569 -117 538 -117 q 625 -141 601 -117 q 649 -196 649 -165 l 649 -202 l 649 -212 z "},"Ġ":{"ha":1167,"x_min":159,"x_max":1012,"o":"m 595 613 l 1012 613 l 1012 0 q 980 -4 988 -4 q 859 69 909 -4 q 740 -8 806 20 q 609 -36 675 -36 l 562 -36 q 360 19 452 -36 q 213 166 268 73 q 159 367 159 258 l 159 1010 q 213 1210 159 1115 q 360 1364 268 1306 q 562 1423 452 1423 l 609 1423 q 807 1367 714 1423 q 954 1214 899 1312 q 1012 1000 1010 1117 l 778 1000 q 719 1137 778 1081 q 581 1192 661 1192 q 445 1137 502 1192 q 389 1006 389 1081 l 389 383 q 446 248 389 304 q 581 192 504 192 q 712 246 661 192 q 772 387 764 300 l 595 387 l 595 613 m 569 1504 q 507 1530 532 1504 q 482 1591 482 1556 q 507 1653 482 1627 q 569 1679 532 1679 q 631 1653 605 1679 q 657 1591 657 1627 q 631 1530 657 1556 q 569 1504 605 1504 z "},"H":{"ha":1173,"x_min":159,"x_max":1014,"o":"m 1014 1389 l 1014 0 l 784 0 l 784 633 l 389 633 l 389 0 l 159 0 l 159 1389 l 389 1389 l 389 857 l 784 857 l 784 1389 l 1014 1389 z "},"Ħ":{"ha":1173,"x_min":77,"x_max":1095,"o":"m 1095 1010 l 1014 1010 l 1014 0 l 784 0 l 784 633 l 389 633 l 389 0 l 159 0 l 159 1010 l 77 1010 l 77 1240 l 159 1240 l 159 1389 l 389 1389 l 389 1240 l 784 1240 l 784 1389 l 1014 1389 l 1014 1240 l 1095 1240 l 1095 1010 m 784 1010 l 389 1010 l 389 857 l 784 857 l 784 1010 z "},"I":{"ha":587,"x_min":179,"x_max":409,"o":"m 179 1389 l 409 1389 l 409 0 l 179 0 l 179 1389 z "},"Í":{"ha":587,"x_min":133,"x_max":450,"o":"m 179 1389 l 409 1389 l 409 0 l 179 0 l 179 1389 m 133 1556 l 379 1732 l 450 1625 l 185 1482 l 133 1556 z "},"Ǐ":{"ha":587,"x_min":115,"x_max":472,"o":"m 292 1583 l 472 1651 l 472 1550 l 292 1446 l 115 1550 l 115 1651 l 292 1583 m 179 1389 l 409 1389 l 409 0 l 179 0 l 179 1389 z "},"Î":{"ha":587,"x_min":115,"x_max":464,"o":"m 115 1583 l 290 1685 l 464 1583 l 464 1484 l 290 1550 l 115 1484 l 115 1583 m 179 1389 l 409 1389 l 409 0 l 179 0 l 179 1389 z "},"Ï":{"ha":587,"x_min":52,"x_max":532,"o":"m 179 1389 l 409 1389 l 409 0 l 179 0 l 179 1389 m 139 1488 q 76 1514 101 1488 q 52 1575 52 1540 q 76 1637 52 1611 q 139 1663 101 1663 q 200 1637 175 1663 q 226 1575 226 1611 q 200 1514 226 1540 q 139 1488 175 1488 m 444 1488 q 382 1514 407 1488 q 357 1575 357 1540 q 382 1637 357 1611 q 444 1663 407 1663 q 506 1637 480 1663 q 532 1575 532 1611 q 506 1514 532 1540 q 444 1488 480 1488 z "},"İ":{"ha":587,"x_min":179,"x_max":409,"o":"m 179 1389 l 409 1389 l 409 0 l 179 0 l 179 1389 m 276 1488 q 213 1514 238 1488 q 188 1575 188 1540 q 213 1637 188 1611 q 276 1663 238 1663 q 337 1637 312 1663 q 363 1575 363 1611 q 337 1514 363 1540 q 276 1488 312 1488 z "},"Ị":{"ha":587,"x_min":179,"x_max":409,"o":"m 179 1389 l 409 1389 l 409 0 l 179 0 l 179 1389 m 276 -272 q 213 -246 238 -272 q 188 -185 188 -220 q 213 -123 188 -149 q 276 -97 238 -97 q 337 -123 312 -97 q 363 -185 363 -149 q 337 -246 363 -220 q 276 -272 312 -272 z "},"Ì":{"ha":587,"x_min":133,"x_max":450,"o":"m 179 1389 l 409 1389 l 409 0 l 179 0 l 179 1389 m 133 1625 l 204 1732 l 450 1556 l 399 1482 l 133 1625 z "},"Ỉ":{"ha":587,"x_min":179,"x_max":460,"o":"m 179 1389 l 409 1389 l 409 0 l 179 0 l 179 1389 m 246 1595 q 326 1613 300 1595 q 353 1661 353 1631 q 334 1697 353 1683 q 286 1712 315 1712 q 226 1696 256 1712 l 226 1784 q 298 1804 252 1804 q 399 1770 351 1804 q 454 1677 446 1736 q 428 1577 460 1621 q 335 1522 395 1534 l 335 1484 l 246 1484 l 246 1595 z "},"Ī":{"ha":587,"x_min":109,"x_max":474,"o":"m 109 1609 l 474 1609 l 474 1492 l 109 1492 l 109 1609 m 179 1389 l 409 1389 l 409 0 l 179 0 l 179 1389 z "},"Į":{"ha":587,"x_min":163,"x_max":409,"o":"m 353 0 q 280 -99 280 -48 q 304 -151 280 -133 q 363 -169 327 -169 q 403 -163 383 -169 l 403 -270 q 331 -280 359 -280 q 209 -238 256 -280 q 163 -127 163 -196 q 180 -54 163 -83 q 232 0 196 -24 l 179 0 l 179 1389 l 409 1389 l 409 0 l 353 0 z "},"Ĩ":{"ha":587,"x_min":115,"x_max":468,"o":"m 468 1494 q 389 1524 438 1524 q 294 1500 347 1524 q 192 1474 234 1474 q 132 1491 147 1474 q 115 1510 117 1508 l 115 1621 q 204 1589 155 1589 q 290 1609 242 1589 q 391 1633 347 1633 q 449 1620 435 1633 q 466 1605 464 1607 l 468 1494 m 179 1389 l 409 1389 l 409 0 l 179 0 l 179 1389 z "},"J":{"ha":1121,"x_min":99,"x_max":962,"o":"m 536 -38 q 319 22 421 -38 q 159 183 218 81 q 99 399 99 284 l 99 502 l 339 502 l 339 393 q 399 256 339 315 q 536 196 458 196 q 673 251 613 196 q 732 383 732 306 l 732 1389 l 962 1389 l 962 389 q 905 175 962 272 q 750 20 847 77 q 536 -38 653 -38 z "},"K":{"ha":1171,"x_min":161,"x_max":1062,"o":"m 522 619 l 393 397 l 393 0 l 161 0 l 161 1395 l 393 1395 l 393 851 l 706 1395 l 968 1395 l 663 865 l 1062 0 l 798 0 l 522 619 z "},"Ķ":{"ha":1171,"x_min":161,"x_max":1062,"o":"m 522 619 l 393 397 l 393 0 l 161 0 l 161 1395 l 393 1395 l 393 851 l 706 1395 l 968 1395 l 663 865 l 1062 0 l 798 0 l 522 619 m 651 -192 q 608 -285 649 -246 q 526 -329 567 -323 q 546 -254 540 -298 q 507 -223 522 -244 q 492 -177 492 -202 q 516 -121 492 -145 q 571 -97 540 -97 q 627 -121 603 -97 q 651 -177 651 -145 l 651 -183 l 651 -192 z "},"L":{"ha":1123,"x_min":159,"x_max":1014,"o":"m 1014 220 l 1014 -6 l 159 -6 l 159 1389 l 389 1389 l 389 220 l 1014 220 z "},"Ĺ":{"ha":1123,"x_min":159,"x_max":1014,"o":"m 1014 220 l 1014 -6 l 159 -6 l 159 1389 l 389 1389 l 389 220 l 1014 220 m 399 1556 l 645 1732 l 716 1625 l 450 1482 l 399 1556 z "},"Ľ":{"ha":1123,"x_min":159,"x_max":1014,"o":"m 1014 220 l 1014 -6 l 159 -6 l 159 1389 l 389 1389 l 389 220 l 1014 220 m 841 1304 q 799 1211 839 1250 q 716 1167 758 1173 q 736 1242 730 1198 q 697 1273 712 1252 q 683 1319 683 1294 q 706 1375 683 1351 q 762 1399 730 1399 q 817 1375 794 1399 q 841 1319 841 1351 l 841 1313 l 841 1304 z "},"Ļ":{"ha":1123,"x_min":159,"x_max":1014,"o":"m 1014 220 l 1014 -6 l 159 -6 l 159 1389 l 389 1389 l 389 220 l 1014 220 m 627 -192 q 584 -285 625 -246 q 502 -329 544 -323 q 522 -254 516 -298 q 483 -223 498 -244 q 468 -177 468 -202 q 492 -121 468 -145 q 548 -97 516 -97 q 603 -121 579 -97 q 627 -177 627 -145 l 627 -183 l 627 -192 z "},"Ł":{"ha":1111,"x_min":65,"x_max":1016,"o":"m 1016 220 l 1016 -6 l 161 -6 l 161 647 l 65 603 l 65 792 l 161 835 l 161 1389 l 391 1389 l 391 938 l 490 982 l 490 794 l 391 750 l 391 220 l 1016 220 z "},"M":{"ha":1478,"x_min":159,"x_max":1319,"o":"m 1319 1389 l 1319 0 l 1093 0 l 1093 706 l 843 0 l 635 0 l 385 706 l 385 0 l 159 0 l 159 1389 l 385 1389 l 740 387 l 1093 1389 l 1319 1389 z "},"N":{"ha":1167,"x_min":159,"x_max":1008,"o":"m 1008 1389 l 1008 0 l 780 0 l 389 831 l 389 0 l 159 0 l 159 1389 l 389 1389 l 780 550 l 780 1389 l 1008 1389 z "},"Ń":{"ha":1167,"x_min":159,"x_max":1008,"o":"m 1008 1389 l 1008 0 l 780 0 l 389 831 l 389 0 l 159 0 l 159 1389 l 389 1389 l 780 550 l 780 1389 l 1008 1389 m 431 1556 l 677 1732 l 748 1625 l 482 1482 l 431 1556 z "},"Ň":{"ha":1167,"x_min":159,"x_max":1008,"o":"m 1008 1389 l 1008 0 l 780 0 l 389 831 l 389 0 l 159 0 l 159 1389 l 389 1389 l 780 550 l 780 1389 l 1008 1389 m 589 1611 l 800 1679 l 800 1577 l 589 1474 l 381 1577 l 381 1679 l 589 1611 z "},"Ņ":{"ha":1167,"x_min":159,"x_max":1008,"o":"m 1008 1389 l 1008 0 l 780 0 l 389 831 l 389 0 l 159 0 l 159 1389 l 389 1389 l 780 550 l 780 1389 l 1008 1389 m 663 -192 q 620 -285 661 -246 q 538 -329 579 -323 q 558 -254 552 -298 q 519 -223 534 -244 q 504 -177 504 -202 q 528 -121 504 -145 q 583 -97 552 -97 q 639 -121 615 -97 q 663 -177 663 -145 l 663 -183 l 663 -192 z "},"Ñ":{"ha":1167,"x_min":159,"x_max":1008,"o":"m 1008 1389 l 1008 0 l 780 0 l 389 831 l 389 0 l 159 0 l 159 1389 l 389 1389 l 780 550 l 780 1389 l 1008 1389 m 796 1494 q 704 1524 760 1524 q 591 1500 653 1524 q 472 1474 520 1474 q 401 1491 419 1474 q 381 1510 383 1508 l 381 1621 q 486 1589 429 1589 q 585 1609 528 1589 q 704 1633 655 1633 q 773 1620 754 1633 q 794 1605 792 1607 l 796 1494 z "},"O":{"ha":1149,"x_min":155,"x_max":994,"o":"m 573 -40 q 360 18 456 -40 q 209 173 264 75 q 155 387 155 270 l 155 998 q 209 1212 155 1115 q 360 1367 264 1310 q 573 1425 456 1425 q 786 1367 688 1425 q 938 1212 883 1310 q 994 998 994 1115 l 994 387 q 938 173 994 270 q 786 18 883 75 q 573 -40 688 -40 m 573 198 q 703 255 651 198 q 756 391 756 312 l 756 994 q 703 1130 756 1073 q 573 1187 651 1187 q 444 1130 496 1187 q 393 994 393 1073 l 393 391 q 444 255 393 312 q 573 198 496 198 z "},"Ó":{"ha":1149,"x_min":155,"x_max":994,"o":"m 573 -40 q 360 18 456 -40 q 209 173 264 75 q 155 387 155 270 l 155 998 q 209 1212 155 1115 q 360 1367 264 1310 q 573 1425 456 1425 q 786 1367 688 1425 q 938 1212 883 1310 q 994 998 994 1115 l 994 387 q 938 173 994 270 q 786 18 883 75 q 573 -40 688 -40 m 573 198 q 703 255 651 198 q 756 391 756 312 l 756 994 q 703 1130 756 1073 q 573 1187 651 1187 q 444 1130 496 1187 q 393 994 393 1073 l 393 391 q 444 255 393 312 q 573 198 496 198 m 415 1575 l 661 1752 l 732 1645 l 466 1502 l 415 1575 z "},"Ǒ":{"ha":1149,"x_min":155,"x_max":994,"o":"m 573 -40 q 360 18 456 -40 q 209 173 264 75 q 155 387 155 270 l 155 998 q 209 1212 155 1115 q 360 1367 264 1310 q 573 1425 456 1425 q 786 1367 688 1425 q 938 1212 883 1310 q 994 998 994 1115 l 994 387 q 938 173 994 270 q 786 18 883 75 q 573 -40 688 -40 m 573 198 q 703 255 651 198 q 756 391 756 312 l 756 994 q 703 1130 756 1073 q 573 1187 651 1187 q 444 1130 496 1187 q 393 994 393 1073 l 393 391 q 444 255 393 312 q 573 198 496 198 m 573 1607 l 784 1675 l 784 1573 l 573 1470 l 365 1573 l 365 1675 l 573 1607 z "},"Ô":{"ha":1149,"x_min":155,"x_max":994,"o":"m 573 -40 q 360 18 456 -40 q 209 173 264 75 q 155 387 155 270 l 155 998 q 209 1212 155 1115 q 360 1367 264 1310 q 573 1425 456 1425 q 786 1367 688 1425 q 938 1212 883 1310 q 994 998 994 1115 l 994 387 q 938 173 994 270 q 786 18 883 75 q 573 -40 688 -40 m 573 198 q 703 255 651 198 q 756 391 756 312 l 756 994 q 703 1130 756 1073 q 573 1187 651 1187 q 444 1130 496 1187 q 393 994 393 1073 l 393 391 q 444 255 393 312 q 573 198 496 198 m 367 1603 l 571 1704 l 778 1603 l 778 1504 l 571 1569 l 367 1504 l 367 1603 z "},"Ố":{"ha":1149,"x_min":155,"x_max":1006,"o":"m 573 -40 q 360 18 456 -40 q 209 173 264 75 q 155 387 155 270 l 155 998 q 209 1212 155 1115 q 360 1367 264 1310 q 573 1425 456 1425 q 786 1367 688 1425 q 938 1212 883 1310 q 994 998 994 1115 l 994 387 q 938 173 994 270 q 786 18 883 75 q 573 -40 688 -40 m 573 198 q 703 255 651 198 q 756 391 756 312 l 756 994 q 703 1130 756 1073 q 573 1187 651 1187 q 444 1130 496 1187 q 393 994 393 1073 l 393 391 q 444 255 393 312 q 573 198 496 198 z "},"Ộ":{"ha":1149,"x_min":155,"x_max":994,"o":"m 573 -40 q 360 18 456 -40 q 209 173 264 75 q 155 387 155 270 l 155 998 q 209 1212 155 1115 q 360 1367 264 1310 q 573 1425 456 1425 q 786 1367 688 1425 q 938 1212 883 1310 q 994 998 994 1115 l 994 387 q 938 173 994 270 q 786 18 883 75 q 573 -40 688 -40 m 573 198 q 703 255 651 198 q 756 391 756 312 l 756 994 q 703 1130 756 1073 q 573 1187 651 1187 q 444 1130 496 1187 q 393 994 393 1073 l 393 391 q 444 255 393 312 q 573 198 496 198 m 558 -292 q 495 -266 520 -292 q 470 -204 470 -240 q 495 -143 470 -169 q 558 -117 520 -117 q 619 -143 593 -117 q 645 -204 645 -169 q 619 -266 645 -240 q 558 -292 593 -292 m 367 1603 l 571 1704 l 778 1603 l 778 1504 l 571 1569 l 367 1504 l 367 1603 z "},"Ồ":{"ha":1149,"x_min":155,"x_max":994,"o":"m 573 -40 q 360 18 456 -40 q 209 173 264 75 q 155 387 155 270 l 155 998 q 209 1212 155 1115 q 360 1367 264 1310 q 573 1425 456 1425 q 786 1367 688 1425 q 938 1212 883 1310 q 994 998 994 1115 l 994 387 q 938 173 994 270 q 786 18 883 75 q 573 -40 688 -40 m 573 198 q 703 255 651 198 q 756 391 756 312 l 756 994 q 703 1130 756 1073 q 573 1187 651 1187 q 444 1130 496 1187 q 393 994 393 1073 l 393 391 q 444 255 393 312 q 573 198 496 198 z "},"Ổ":{"ha":1149,"x_min":155,"x_max":994,"o":"m 573 -40 q 360 18 456 -40 q 209 173 264 75 q 155 387 155 270 l 155 998 q 209 1212 155 1115 q 360 1367 264 1310 q 573 1425 456 1425 q 786 1367 688 1425 q 938 1212 883 1310 q 994 998 994 1115 l 994 387 q 938 173 994 270 q 786 18 883 75 q 573 -40 688 -40 m 573 198 q 703 255 651 198 q 756 391 756 312 l 756 994 q 703 1130 756 1073 q 573 1187 651 1187 q 444 1130 496 1187 q 393 994 393 1073 l 393 391 q 444 255 393 312 q 573 198 496 198 z "},"Ỗ":{"ha":1149,"x_min":155,"x_max":994,"o":"m 573 -40 q 360 18 456 -40 q 209 173 264 75 q 155 387 155 270 l 155 998 q 209 1212 155 1115 q 360 1367 264 1310 q 573 1425 456 1425 q 786 1367 688 1425 q 938 1212 883 1310 q 994 998 994 1115 l 994 387 q 938 173 994 270 q 786 18 883 75 q 573 -40 688 -40 m 573 198 q 703 255 651 198 q 756 391 756 312 l 756 994 q 703 1130 756 1073 q 573 1187 651 1187 q 444 1130 496 1187 q 393 994 393 1073 l 393 391 q 444 255 393 312 q 573 198 496 198 z "},"Ö":{"ha":1149,"x_min":155,"x_max":994,"o":"m 573 -40 q 360 18 456 -40 q 209 173 264 75 q 155 387 155 270 l 155 998 q 209 1212 155 1115 q 360 1367 264 1310 q 573 1425 456 1425 q 786 1367 688 1425 q 938 1212 883 1310 q 994 998 994 1115 l 994 387 q 938 173 994 270 q 786 18 883 75 q 573 -40 688 -40 m 573 198 q 703 255 651 198 q 756 391 756 312 l 756 994 q 703 1130 756 1073 q 573 1187 651 1187 q 444 1130 496 1187 q 393 994 393 1073 l 393 391 q 444 255 393 312 q 573 198 496 198 m 421 1508 q 358 1534 383 1508 q 333 1595 333 1560 q 358 1657 333 1631 q 421 1683 383 1683 q 482 1657 456 1683 q 508 1595 508 1631 q 482 1534 508 1560 q 421 1508 456 1508 m 726 1508 q 664 1534 688 1508 q 639 1595 639 1560 q 664 1657 639 1631 q 726 1683 688 1683 q 788 1657 762 1683 q 813 1595 813 1631 q 788 1534 813 1560 q 726 1508 762 1508 z "},"Ọ":{"ha":1149,"x_min":155,"x_max":994,"o":"m 573 -40 q 360 18 456 -40 q 209 173 264 75 q 155 387 155 270 l 155 998 q 209 1212 155 1115 q 360 1367 264 1310 q 573 1425 456 1425 q 786 1367 688 1425 q 938 1212 883 1310 q 994 998 994 1115 l 994 387 q 938 173 994 270 q 786 18 883 75 q 573 -40 688 -40 m 573 198 q 703 255 651 198 q 756 391 756 312 l 756 994 q 703 1130 756 1073 q 573 1187 651 1187 q 444 1130 496 1187 q 393 994 393 1073 l 393 391 q 444 255 393 312 q 573 198 496 198 m 558 -292 q 495 -266 520 -292 q 470 -204 470 -240 q 495 -143 470 -169 q 558 -117 520 -117 q 619 -143 593 -117 q 645 -204 645 -169 q 619 -266 645 -240 q 558 -292 593 -292 z "},"Ò":{"ha":1149,"x_min":155,"x_max":994,"o":"m 573 -40 q 360 18 456 -40 q 209 173 264 75 q 155 387 155 270 l 155 998 q 209 1212 155 1115 q 360 1367 264 1310 q 573 1425 456 1425 q 786 1367 688 1425 q 938 1212 883 1310 q 994 998 994 1115 l 994 387 q 938 173 994 270 q 786 18 883 75 q 573 -40 688 -40 m 573 198 q 703 255 651 198 q 756 391 756 312 l 756 994 q 703 1130 756 1073 q 573 1187 651 1187 q 444 1130 496 1187 q 393 994 393 1073 l 393 391 q 444 255 393 312 q 573 198 496 198 m 415 1645 l 486 1752 l 732 1575 l 681 1502 l 415 1645 z "},"Ỏ":{"ha":1149,"x_min":155,"x_max":994,"o":"m 573 -40 q 360 18 456 -40 q 209 173 264 75 q 155 387 155 270 l 155 998 q 209 1212 155 1115 q 360 1367 264 1310 q 573 1425 456 1425 q 786 1367 688 1425 q 938 1212 883 1310 q 994 998 994 1115 l 994 387 q 938 173 994 270 q 786 18 883 75 q 573 -40 688 -40 m 573 198 q 703 255 651 198 q 756 391 756 312 l 756 994 q 703 1130 756 1073 q 573 1187 651 1187 q 444 1130 496 1187 q 393 994 393 1073 l 393 391 q 444 255 393 312 q 573 198 496 198 m 528 1615 q 608 1633 581 1615 q 635 1681 635 1651 q 616 1717 635 1702 q 567 1732 597 1732 q 508 1716 538 1732 l 508 1804 q 579 1823 534 1823 q 681 1790 633 1823 q 736 1696 728 1756 q 709 1597 742 1641 q 617 1542 677 1554 l 617 1504 l 528 1504 l 528 1615 z "},"Ơ":{"ha":1149,"x_min":155,"x_max":1040,"o":"m 1040 1468 q 905 1264 1016 1325 q 994 998 994 1147 l 994 387 q 938 173 994 270 q 786 18 883 75 q 573 -40 688 -40 q 360 18 456 -40 q 209 173 264 75 q 155 387 155 270 l 155 998 q 209 1212 155 1115 q 360 1367 264 1310 q 573 1425 456 1425 q 762 1381 675 1425 q 847 1468 827 1397 l 1040 1468 m 756 994 q 703 1130 756 1073 q 573 1187 651 1187 q 444 1130 496 1187 q 393 994 393 1073 l 393 391 q 444 255 393 312 q 573 198 496 198 q 703 255 651 198 q 756 391 756 312 l 756 994 z "},"Ớ":{"ha":1149,"x_min":155,"x_max":1040,"o":"m 1040 1468 q 905 1264 1016 1325 q 994 998 994 1147 l 994 387 q 938 173 994 270 q 786 18 883 75 q 573 -40 688 -40 q 360 18 456 -40 q 209 173 264 75 q 155 387 155 270 l 155 998 q 209 1212 155 1115 q 360 1367 264 1310 q 573 1425 456 1425 q 762 1381 675 1425 q 847 1468 827 1397 l 1040 1468 m 756 994 q 703 1130 756 1073 q 573 1187 651 1187 q 444 1130 496 1187 q 393 994 393 1073 l 393 391 q 444 255 393 312 q 573 198 496 198 q 703 255 651 198 q 756 391 756 312 l 756 994 m 415 1575 l 661 1752 l 732 1645 l 466 1502 l 415 1575 z "},"Ợ":{"ha":1149,"x_min":155,"x_max":1040,"o":"m 1040 1468 q 905 1264 1016 1325 q 994 998 994 1147 l 994 387 q 938 173 994 270 q 786 18 883 75 q 573 -40 688 -40 q 360 18 456 -40 q 209 173 264 75 q 155 387 155 270 l 155 998 q 209 1212 155 1115 q 360 1367 264 1310 q 573 1425 456 1425 q 762 1381 675 1425 q 847 1468 827 1397 l 1040 1468 m 756 994 q 703 1130 756 1073 q 573 1187 651 1187 q 444 1130 496 1187 q 393 994 393 1073 l 393 391 q 444 255 393 312 q 573 198 496 198 q 703 255 651 198 q 756 391 756 312 l 756 994 m 558 -292 q 495 -266 520 -292 q 470 -204 470 -240 q 495 -143 470 -169 q 558 -117 520 -117 q 619 -143 593 -117 q 645 -204 645 -169 q 619 -266 645 -240 q 558 -292 593 -292 z "},"Ờ":{"ha":1149,"x_min":155,"x_max":1040,"o":"m 1040 1468 q 905 1264 1016 1325 q 994 998 994 1147 l 994 387 q 938 173 994 270 q 786 18 883 75 q 573 -40 688 -40 q 360 18 456 -40 q 209 173 264 75 q 155 387 155 270 l 155 998 q 209 1212 155 1115 q 360 1367 264 1310 q 573 1425 456 1425 q 762 1381 675 1425 q 847 1468 827 1397 l 1040 1468 m 756 994 q 703 1130 756 1073 q 573 1187 651 1187 q 444 1130 496 1187 q 393 994 393 1073 l 393 391 q 444 255 393 312 q 573 198 496 198 q 703 255 651 198 q 756 391 756 312 l 756 994 m 415 1645 l 486 1752 l 732 1575 l 681 1502 l 415 1645 z "},"Ở":{"ha":1149,"x_min":155,"x_max":1040,"o":"m 1040 1468 q 905 1264 1016 1325 q 994 998 994 1147 l 994 387 q 938 173 994 270 q 786 18 883 75 q 573 -40 688 -40 q 360 18 456 -40 q 209 173 264 75 q 155 387 155 270 l 155 998 q 209 1212 155 1115 q 360 1367 264 1310 q 573 1425 456 1425 q 762 1381 675 1425 q 847 1468 827 1397 l 1040 1468 m 756 994 q 703 1130 756 1073 q 573 1187 651 1187 q 444 1130 496 1187 q 393 994 393 1073 l 393 391 q 444 255 393 312 q 573 198 496 198 q 703 255 651 198 q 756 391 756 312 l 756 994 m 528 1615 q 608 1633 581 1615 q 635 1681 635 1651 q 616 1717 635 1702 q 567 1732 597 1732 q 508 1716 538 1732 l 508 1804 q 579 1823 534 1823 q 681 1790 633 1823 q 736 1696 728 1756 q 709 1597 742 1641 q 617 1542 677 1554 l 617 1504 l 528 1504 l 528 1615 z "},"Ỡ":{"ha":1149,"x_min":155,"x_max":1040,"o":"m 575 1520 q 480 1494 518 1494 q 423 1511 437 1494 q 407 1530 409 1528 l 407 1641 q 441 1618 423 1627 q 490 1609 460 1609 q 569 1629 524 1609 q 667 1653 625 1653 q 720 1640 706 1653 q 736 1625 734 1627 l 738 1514 q 711 1534 730 1524 q 665 1544 692 1544 q 575 1520 623 1544 m 1040 1468 q 905 1264 1016 1325 q 994 998 994 1147 l 994 387 q 938 173 994 270 q 786 18 883 75 q 573 -40 688 -40 q 360 18 456 -40 q 209 173 264 75 q 155 387 155 270 l 155 998 q 209 1212 155 1115 q 360 1367 264 1310 q 573 1425 456 1425 q 762 1381 675 1425 q 847 1468 827 1397 l 1040 1468 m 756 994 q 703 1130 756 1073 q 573 1187 651 1187 q 444 1130 496 1187 q 393 994 393 1073 l 393 391 q 444 255 393 312 q 573 198 496 198 q 703 255 651 198 q 756 391 756 312 l 756 994 z "},"Ő":{"ha":1149,"x_min":155,"x_max":994,"o":"m 573 -40 q 360 18 456 -40 q 209 173 264 75 q 155 387 155 270 l 155 998 q 209 1212 155 1115 q 360 1367 264 1310 q 573 1425 456 1425 q 786 1367 688 1425 q 938 1212 883 1310 q 994 998 994 1115 l 994 387 q 938 173 994 270 q 786 18 883 75 q 573 -40 688 -40 m 573 198 q 703 255 651 198 q 756 391 756 312 l 756 994 q 703 1130 756 1073 q 573 1187 651 1187 q 444 1130 496 1187 q 393 994 393 1073 l 393 391 q 444 255 393 312 q 573 198 496 198 m 679 1558 l 891 1774 l 978 1681 l 742 1494 l 679 1558 m 359 1556 l 571 1772 l 659 1679 l 423 1492 l 359 1556 z "},"Ō":{"ha":1149,"x_min":155,"x_max":994,"o":"m 573 -40 q 360 18 456 -40 q 209 173 264 75 q 155 387 155 270 l 155 998 q 209 1212 155 1115 q 360 1367 264 1310 q 573 1425 456 1425 q 786 1367 688 1425 q 938 1212 883 1310 q 994 998 994 1115 l 994 387 q 938 173 994 270 q 786 18 883 75 q 573 -40 688 -40 m 573 198 q 703 255 651 198 q 756 391 756 312 l 756 994 q 703 1130 756 1073 q 573 1187 651 1187 q 444 1130 496 1187 q 393 994 393 1073 l 393 391 q 444 255 393 312 q 573 198 496 198 m 359 1629 l 788 1629 l 788 1512 l 359 1512 l 359 1629 z "},"Ø":{"ha":1149,"x_min":155,"x_max":994,"o":"m 907 1260 q 994 998 994 1145 l 994 387 q 938 173 994 270 q 786 18 883 75 q 573 -40 688 -40 q 411 -8 490 -40 l 391 -58 l 167 -58 l 238 127 q 155 387 155 242 l 155 998 q 209 1212 155 1115 q 360 1367 264 1310 q 573 1425 456 1425 q 734 1393 655 1425 l 756 1446 l 980 1446 l 907 1260 m 393 520 l 647 1171 q 573 1187 611 1187 q 444 1130 496 1187 q 393 994 393 1073 l 393 520 m 573 198 q 703 255 651 198 q 756 391 756 312 l 756 875 l 498 214 q 573 198 534 198 z "},"Õ":{"ha":1149,"x_min":155,"x_max":994,"o":"m 573 -40 q 360 18 456 -40 q 209 173 264 75 q 155 387 155 270 l 155 998 q 209 1212 155 1115 q 360 1367 264 1310 q 573 1425 456 1425 q 786 1367 688 1425 q 938 1212 883 1310 q 994 998 994 1115 l 994 387 q 938 173 994 270 q 786 18 883 75 q 573 -40 688 -40 m 573 198 q 703 255 651 198 q 756 391 756 312 l 756 994 q 703 1130 756 1073 q 573 1187 651 1187 q 444 1130 496 1187 q 393 994 393 1073 l 393 391 q 444 255 393 312 q 573 198 496 198 m 780 1514 q 688 1544 744 1544 q 575 1520 637 1544 q 456 1494 504 1494 q 385 1511 403 1494 q 365 1530 367 1528 l 365 1641 q 470 1609 413 1609 q 569 1629 512 1609 q 688 1653 639 1653 q 757 1640 738 1653 q 778 1625 776 1627 l 780 1514 z "},"Œ":{"ha":1772,"x_min":155,"x_max":1623,"o":"m 1067 1147 l 1067 863 l 1351 863 l 1351 621 l 1067 621 l 1067 242 l 1623 242 l 1623 0 l 869 0 l 869 81 q 735 -8 812 24 q 573 -40 659 -40 q 360 18 456 -40 q 209 173 264 75 q 155 387 155 270 l 155 998 q 209 1212 155 1115 q 360 1367 264 1310 q 573 1425 456 1425 q 735 1393 659 1425 q 869 1304 812 1361 l 869 1389 l 1623 1389 l 1623 1147 l 1067 1147 m 756 994 q 703 1130 756 1073 q 573 1187 651 1187 q 444 1130 496 1187 q 393 994 393 1073 l 393 391 q 444 255 393 312 q 573 198 496 198 q 703 255 651 198 q 756 391 756 312 l 756 994 z "},"P":{"ha":1151,"x_min":159,"x_max":1030,"o":"m 637 1389 q 834 1336 744 1389 q 977 1194 925 1284 q 1030 1000 1030 1105 q 976 806 1030 895 q 831 664 923 716 q 637 611 740 611 l 389 611 l 389 0 l 159 0 l 159 1389 l 637 1389 m 629 841 q 749 888 706 841 q 792 1000 792 935 q 749 1112 792 1065 q 629 1159 706 1159 l 389 1159 l 389 841 l 629 841 z "},"Q":{"ha":1173,"x_min":155,"x_max":1073,"o":"m 952 -97 l 815 20 q 585 -48 714 -48 q 369 10 468 -48 q 212 167 270 67 q 155 383 155 266 l 155 998 q 212 1214 155 1115 q 369 1371 270 1313 q 585 1429 468 1429 q 801 1371 702 1429 q 956 1214 899 1313 q 1014 998 1014 1115 l 1014 383 q 950 155 1014 262 l 1073 48 l 952 -97 m 585 185 q 720 241 665 185 q 776 377 776 298 l 776 1004 q 720 1140 776 1083 q 585 1196 665 1196 q 449 1140 506 1196 q 393 1004 393 1083 l 393 377 q 449 241 393 298 q 585 185 506 185 z "},"R":{"ha":1192,"x_min":159,"x_max":1103,"o":"m 627 617 l 389 617 l 389 0 l 159 0 l 159 1389 l 637 1389 q 827 1335 742 1389 q 962 1190 913 1282 q 1012 994 1012 1099 q 967 812 1012 895 q 845 677 923 728 l 1103 0 l 861 0 l 627 617 m 389 841 l 637 841 q 739 887 696 841 q 782 994 782 933 q 739 1107 782 1056 q 637 1159 696 1159 l 389 1159 l 389 841 z "},"Ŕ":{"ha":1192,"x_min":159,"x_max":1103,"o":"m 627 617 l 389 617 l 389 0 l 159 0 l 159 1389 l 637 1389 q 827 1335 742 1389 q 962 1190 913 1282 q 1012 994 1012 1099 q 967 812 1012 895 q 845 677 923 728 l 1103 0 l 861 0 l 627 617 m 389 841 l 637 841 q 739 887 696 841 q 782 994 782 933 q 739 1107 782 1056 q 637 1159 696 1159 l 389 1159 l 389 841 m 409 1556 l 655 1732 l 726 1625 l 460 1482 l 409 1556 z "},"Ř":{"ha":1192,"x_min":159,"x_max":1103,"o":"m 627 617 l 389 617 l 389 0 l 159 0 l 159 1389 l 637 1389 q 827 1335 742 1389 q 962 1190 913 1282 q 1012 994 1012 1099 q 967 812 1012 895 q 845 677 923 728 l 1103 0 l 861 0 l 627 617 m 389 841 l 637 841 q 739 887 696 841 q 782 994 782 933 q 739 1107 782 1056 q 637 1159 696 1159 l 389 1159 l 389 841 m 567 1587 l 778 1655 l 778 1554 l 567 1450 l 359 1554 l 359 1655 l 567 1587 z "},"Ŗ":{"ha":1192,"x_min":159,"x_max":1103,"o":"m 627 617 l 389 617 l 389 0 l 159 0 l 159 1389 l 637 1389 q 827 1335 742 1389 q 962 1190 913 1282 q 1012 994 1012 1099 q 967 812 1012 895 q 845 677 923 728 l 1103 0 l 861 0 l 627 617 m 389 841 l 637 841 q 739 887 696 841 q 782 994 782 933 q 739 1107 782 1056 q 637 1159 696 1159 l 389 1159 l 389 841 m 663 -192 q 620 -285 661 -246 q 538 -329 579 -323 q 558 -254 552 -298 q 519 -223 534 -244 q 504 -177 504 -202 q 528 -121 504 -145 q 583 -97 552 -97 q 639 -121 615 -97 q 663 -177 663 -145 l 663 -183 l 663 -192 z "},"S":{"ha":1151,"x_min":137,"x_max":1000,"o":"m 562 -36 q 344 22 442 -36 q 191 182 246 79 q 139 411 137 284 l 369 411 q 427 254 369 313 q 571 194 484 194 q 708 242 651 194 q 766 383 766 290 q 710 505 766 450 q 528 627 655 560 q 354 732 421 685 q 239 855 288 780 q 190 1038 190 931 q 243 1230 190 1141 q 383 1373 296 1319 q 571 1427 470 1427 q 766 1378 677 1427 q 907 1246 855 1329 q 958 1065 958 1163 l 726 1065 q 680 1158 726 1117 q 571 1198 633 1198 q 470 1149 514 1198 q 427 1038 427 1099 q 475 934 427 978 q 651 821 524 889 q 827 714 756 766 q 949 583 899 663 q 1000 395 1000 504 q 943 172 1000 270 q 787 19 887 73 q 562 -36 687 -36 z "},"Ś":{"ha":1151,"x_min":137,"x_max":1000,"o":"m 562 -36 q 344 22 442 -36 q 191 182 246 79 q 139 411 137 284 l 369 411 q 427 254 369 313 q 571 194 484 194 q 708 242 651 194 q 766 383 766 290 q 710 505 766 450 q 528 627 655 560 q 354 732 421 685 q 239 855 288 780 q 190 1038 190 931 q 243 1230 190 1141 q 383 1373 296 1319 q 571 1427 470 1427 q 766 1378 677 1427 q 907 1246 855 1329 q 958 1065 958 1163 l 726 1065 q 680 1158 726 1117 q 571 1198 633 1198 q 470 1149 514 1198 q 427 1038 427 1099 q 475 934 427 978 q 651 821 524 889 q 827 714 756 766 q 949 583 899 663 q 1000 395 1000 504 q 943 172 1000 270 q 787 19 887 73 q 562 -36 687 -36 m 413 1577 l 659 1754 l 730 1647 l 464 1504 l 413 1577 z "},"Š":{"ha":1151,"x_min":137,"x_max":1000,"o":"m 562 -36 q 344 22 442 -36 q 191 182 246 79 q 139 411 137 284 l 369 411 q 427 254 369 313 q 571 194 484 194 q 708 242 651 194 q 766 383 766 290 q 710 505 766 450 q 528 627 655 560 q 354 732 421 685 q 239 855 288 780 q 190 1038 190 931 q 243 1230 190 1141 q 383 1373 296 1319 q 571 1427 470 1427 q 766 1378 677 1427 q 907 1246 855 1329 q 958 1065 958 1163 l 726 1065 q 680 1158 726 1117 q 571 1198 633 1198 q 470 1149 514 1198 q 427 1038 427 1099 q 475 934 427 978 q 651 821 524 889 q 827 714 756 766 q 949 583 899 663 q 1000 395 1000 504 q 943 172 1000 270 q 787 19 887 73 q 562 -36 687 -36 m 571 1633 l 782 1700 l 782 1599 l 571 1496 l 363 1599 l 363 1700 l 571 1633 z "},"Ş":{"ha":1151,"x_min":137,"x_max":1000,"o":"m 1000 395 q 903 113 1000 228 q 647 -28 806 -2 l 601 -69 q 643 -118 629 -87 q 657 -183 657 -149 q 613 -285 657 -244 q 498 -325 569 -325 q 446 -319 474 -325 l 446 -214 q 476 -216 456 -216 q 524 -204 508 -216 q 540 -173 540 -192 q 514 -123 540 -147 q 446 -91 488 -99 l 506 -32 q 314 41 399 -20 q 184 197 230 101 q 139 411 137 294 l 369 411 q 427 254 369 313 q 571 194 484 194 q 708 242 651 194 q 766 383 766 290 q 710 505 766 450 q 528 627 655 560 q 354 732 421 685 q 239 855 288 780 q 190 1038 190 931 q 243 1230 190 1141 q 383 1373 296 1319 q 571 1427 470 1427 q 766 1378 677 1427 q 907 1246 855 1329 q 958 1065 958 1163 l 726 1065 q 680 1158 726 1117 q 571 1198 633 1198 q 470 1149 514 1198 q 427 1038 427 1099 q 475 934 427 978 q 651 821 524 889 q 827 714 756 766 q 949 583 899 663 q 1000 395 1000 504 z "},"Ș":{"ha":1151,"x_min":137,"x_max":1000,"o":"m 562 -36 q 344 22 442 -36 q 191 182 246 79 q 139 411 137 284 l 369 411 q 427 254 369 313 q 571 194 484 194 q 708 242 651 194 q 766 383 766 290 q 710 505 766 450 q 528 627 655 560 q 354 732 421 685 q 239 855 288 780 q 190 1038 190 931 q 243 1230 190 1141 q 383 1373 296 1319 q 571 1427 470 1427 q 766 1378 677 1427 q 907 1246 855 1329 q 958 1065 958 1163 l 726 1065 q 680 1158 726 1117 q 571 1198 633 1198 q 470 1149 514 1198 q 427 1038 427 1099 q 475 934 427 978 q 651 821 524 889 q 827 714 756 766 q 949 583 899 663 q 1000 395 1000 504 q 943 172 1000 270 q 787 19 887 73 q 562 -36 687 -36 m 625 -212 q 582 -305 623 -266 q 500 -349 542 -343 q 520 -274 514 -317 q 481 -243 496 -264 q 466 -196 466 -222 q 490 -141 466 -165 q 546 -117 514 -117 q 601 -141 577 -117 q 625 -196 625 -165 l 625 -202 l 625 -212 z "},"T":{"ha":1274,"x_min":109,"x_max":1165,"o":"m 1165 1159 l 752 1159 l 752 0 l 522 0 l 522 1159 l 109 1159 l 109 1389 l 1165 1389 l 1165 1159 z "},"Ŧ":{"ha":1274,"x_min":109,"x_max":1165,"o":"m 752 1159 l 752 841 l 980 841 l 980 611 l 752 611 l 752 0 l 522 0 l 522 611 l 292 611 l 292 841 l 522 841 l 522 1159 l 109 1159 l 109 1389 l 1165 1389 l 1165 1159 l 752 1159 z "},"Ť":{"ha":1274,"x_min":109,"x_max":1165,"o":"m 1165 1159 l 752 1159 l 752 0 l 522 0 l 522 1159 l 109 1159 l 109 1389 l 1165 1389 l 1165 1159 m 635 1587 l 845 1655 l 845 1554 l 635 1450 l 427 1554 l 427 1655 l 635 1587 z "},"Ţ":{"ha":1274,"x_min":109,"x_max":1165,"o":"m 1165 1159 l 752 1159 l 752 0 l 522 0 l 522 1159 l 109 1159 l 109 1389 l 1165 1389 l 1165 1159 m 520 -194 q 550 -196 530 -196 q 597 -185 581 -196 q 613 -153 613 -173 q 587 -103 613 -127 q 520 -71 562 -79 l 593 0 l 730 0 l 675 -50 q 716 -98 702 -67 q 730 -163 730 -129 q 687 -265 730 -224 q 571 -306 643 -306 q 520 -300 548 -306 l 520 -194 z "},"Ț":{"ha":1274,"x_min":109,"x_max":1165,"o":"m 1165 1159 l 752 1159 l 752 0 l 522 0 l 522 1159 l 109 1159 l 109 1389 l 1165 1389 l 1165 1159 m 698 -192 q 656 -285 696 -246 q 573 -329 615 -323 q 593 -254 587 -298 q 555 -223 569 -244 q 540 -177 540 -202 q 563 -121 540 -145 q 619 -97 587 -97 q 675 -121 651 -97 q 698 -177 698 -145 l 698 -183 l 698 -192 z "},"U":{"ha":1165,"x_min":155,"x_max":1010,"o":"m 585 -42 q 365 15 464 -42 q 210 170 266 71 q 155 385 155 268 l 155 1389 l 385 1389 l 385 393 q 443 246 385 306 q 583 187 502 187 q 724 246 669 187 q 780 393 780 306 l 780 1389 l 1010 1389 l 1010 385 q 953 170 1010 268 q 800 15 897 71 q 585 -42 702 -42 z "},"Ú":{"ha":1165,"x_min":155,"x_max":1010,"o":"m 585 -42 q 365 15 464 -42 q 210 170 266 71 q 155 385 155 268 l 155 1389 l 385 1389 l 385 393 q 443 246 385 306 q 583 187 502 187 q 724 246 669 187 q 780 393 780 306 l 780 1389 l 1010 1389 l 1010 385 q 953 170 1010 268 q 800 15 897 71 q 585 -42 702 -42 m 427 1556 l 673 1732 l 744 1625 l 478 1482 l 427 1556 z "},"Ǔ":{"ha":1165,"x_min":155,"x_max":1010,"o":"m 585 -42 q 365 15 464 -42 q 210 170 266 71 q 155 385 155 268 l 155 1389 l 385 1389 l 385 393 q 443 246 385 306 q 583 187 502 187 q 724 246 669 187 q 780 393 780 306 l 780 1389 l 1010 1389 l 1010 385 q 953 170 1010 268 q 800 15 897 71 q 585 -42 702 -42 m 585 1583 l 796 1651 l 796 1550 l 585 1446 l 377 1550 l 377 1651 l 585 1583 z "},"Û":{"ha":1165,"x_min":155,"x_max":1010,"o":"m 585 -42 q 365 15 464 -42 q 210 170 266 71 q 155 385 155 268 l 155 1389 l 385 1389 l 385 393 q 443 246 385 306 q 583 187 502 187 q 724 246 669 187 q 780 393 780 306 l 780 1389 l 1010 1389 l 1010 385 q 953 170 1010 268 q 800 15 897 71 q 585 -42 702 -42 m 379 1601 l 583 1702 l 790 1601 l 790 1502 l 583 1567 l 379 1502 l 379 1601 z "},"Ü":{"ha":1165,"x_min":155,"x_max":1010,"o":"m 585 -42 q 365 15 464 -42 q 210 170 266 71 q 155 385 155 268 l 155 1389 l 385 1389 l 385 393 q 443 246 385 306 q 583 187 502 187 q 724 246 669 187 q 780 393 780 306 l 780 1389 l 1010 1389 l 1010 385 q 953 170 1010 268 q 800 15 897 71 q 585 -42 702 -42 m 433 1488 q 370 1514 395 1488 q 345 1575 345 1540 q 370 1637 345 1611 q 433 1663 395 1663 q 494 1637 468 1663 q 520 1575 520 1611 q 494 1514 520 1540 q 433 1488 468 1488 m 738 1488 q 676 1514 700 1488 q 651 1575 651 1540 q 676 1637 651 1611 q 738 1663 700 1663 q 800 1637 774 1663 q 825 1575 825 1611 q 800 1514 825 1540 q 738 1488 774 1488 z "},"Ǘ":{"ha":1165,"x_min":155,"x_max":1010,"o":"m 585 -42 q 365 15 464 -42 q 210 170 266 71 q 155 385 155 268 l 155 1389 l 385 1389 l 385 393 q 443 246 385 306 q 583 187 502 187 q 724 246 669 187 q 780 393 780 306 l 780 1389 l 1010 1389 l 1010 385 q 953 170 1010 268 q 800 15 897 71 q 585 -42 702 -42 z "},"Ǚ":{"ha":1165,"x_min":155,"x_max":1010,"o":"m 585 -42 q 365 15 464 -42 q 210 170 266 71 q 155 385 155 268 l 155 1389 l 385 1389 l 385 393 q 443 246 385 306 q 583 187 502 187 q 724 246 669 187 q 780 393 780 306 l 780 1389 l 1010 1389 l 1010 385 q 953 170 1010 268 q 800 15 897 71 q 585 -42 702 -42 z "},"Ǜ":{"ha":1165,"x_min":155,"x_max":1010,"o":"m 585 -42 q 365 15 464 -42 q 210 170 266 71 q 155 385 155 268 l 155 1389 l 385 1389 l 385 393 q 443 246 385 306 q 583 187 502 187 q 724 246 669 187 q 780 393 780 306 l 780 1389 l 1010 1389 l 1010 385 q 953 170 1010 268 q 800 15 897 71 q 585 -42 702 -42 z "},"Ǖ":{"ha":1165,"x_min":155,"x_max":1010,"o":"m 585 -42 q 365 15 464 -42 q 210 170 266 71 q 155 385 155 268 l 155 1389 l 385 1389 l 385 393 q 443 246 385 306 q 583 187 502 187 q 724 246 669 187 q 780 393 780 306 l 780 1389 l 1010 1389 l 1010 385 q 953 170 1010 268 q 800 15 897 71 q 585 -42 702 -42 z "},"Ụ":{"ha":1165,"x_min":155,"x_max":1010,"o":"m 585 -42 q 365 15 464 -42 q 210 170 266 71 q 155 385 155 268 l 155 1389 l 385 1389 l 385 393 q 443 246 385 306 q 583 187 502 187 q 724 246 669 187 q 780 393 780 306 l 780 1389 l 1010 1389 l 1010 385 q 953 170 1010 268 q 800 15 897 71 q 585 -42 702 -42 m 569 -292 q 507 -266 532 -292 q 482 -204 482 -240 q 507 -143 482 -169 q 569 -117 532 -117 q 631 -143 605 -117 q 657 -204 657 -169 q 631 -266 657 -240 q 569 -292 605 -292 z "},"Ù":{"ha":1165,"x_min":155,"x_max":1010,"o":"m 585 -42 q 365 15 464 -42 q 210 170 266 71 q 155 385 155 268 l 155 1389 l 385 1389 l 385 393 q 443 246 385 306 q 583 187 502 187 q 724 246 669 187 q 780 393 780 306 l 780 1389 l 1010 1389 l 1010 385 q 953 170 1010 268 q 800 15 897 71 q 585 -42 702 -42 m 427 1625 l 498 1732 l 744 1556 l 692 1482 l 427 1625 z "},"Ủ":{"ha":1165,"x_min":155,"x_max":1010,"o":"m 585 -42 q 365 15 464 -42 q 210 170 266 71 q 155 385 155 268 l 155 1389 l 385 1389 l 385 393 q 443 246 385 306 q 583 187 502 187 q 724 246 669 187 q 780 393 780 306 l 780 1389 l 1010 1389 l 1010 385 q 953 170 1010 268 q 800 15 897 71 q 585 -42 702 -42 m 540 1595 q 620 1613 593 1595 q 647 1661 647 1631 q 628 1697 647 1683 q 579 1712 609 1712 q 520 1696 550 1712 l 520 1784 q 591 1804 546 1804 q 692 1770 645 1804 q 748 1677 740 1736 q 721 1577 754 1621 q 629 1522 688 1534 l 629 1484 l 540 1484 l 540 1595 z "},"Ư":{"ha":1165,"x_min":155,"x_max":1181,"o":"m 1181 1486 q 1010 1266 1153 1317 l 1010 385 q 953 170 1010 268 q 800 15 897 71 q 585 -42 702 -42 q 365 15 464 -42 q 210 170 266 71 q 155 385 155 268 l 155 1389 l 385 1389 l 385 393 q 443 246 385 306 q 583 187 502 187 q 724 246 669 187 q 780 393 780 306 l 780 1389 l 808 1389 q 930 1408 887 1389 q 988 1486 972 1427 l 1181 1486 z "},"Ứ":{"ha":1165,"x_min":155,"x_max":1181,"o":"m 1181 1486 q 1010 1266 1153 1317 l 1010 385 q 953 170 1010 268 q 800 15 897 71 q 585 -42 702 -42 q 365 15 464 -42 q 210 170 266 71 q 155 385 155 268 l 155 1389 l 385 1389 l 385 393 q 443 246 385 306 q 583 187 502 187 q 724 246 669 187 q 780 393 780 306 l 780 1389 l 808 1389 q 930 1408 887 1389 q 988 1486 972 1427 l 1181 1486 m 427 1556 l 673 1732 l 744 1625 l 478 1482 l 427 1556 z "},"Ự":{"ha":1165,"x_min":155,"x_max":1181,"o":"m 1181 1486 q 1010 1266 1153 1317 l 1010 385 q 953 170 1010 268 q 800 15 897 71 q 585 -42 702 -42 q 365 15 464 -42 q 210 170 266 71 q 155 385 155 268 l 155 1389 l 385 1389 l 385 393 q 443 246 385 306 q 583 187 502 187 q 724 246 669 187 q 780 393 780 306 l 780 1389 l 808 1389 q 930 1408 887 1389 q 988 1486 972 1427 l 1181 1486 m 569 -292 q 507 -266 532 -292 q 482 -204 482 -240 q 507 -143 482 -169 q 569 -117 532 -117 q 631 -143 605 -117 q 657 -204 657 -169 q 631 -266 657 -240 q 569 -292 605 -292 z "},"Ừ":{"ha":1165,"x_min":155,"x_max":1181,"o":"m 1181 1486 q 1010 1266 1153 1317 l 1010 385 q 953 170 1010 268 q 800 15 897 71 q 585 -42 702 -42 q 365 15 464 -42 q 210 170 266 71 q 155 385 155 268 l 155 1389 l 385 1389 l 385 393 q 443 246 385 306 q 583 187 502 187 q 724 246 669 187 q 780 393 780 306 l 780 1389 l 808 1389 q 930 1408 887 1389 q 988 1486 972 1427 l 1181 1486 m 427 1625 l 498 1732 l 744 1556 l 692 1482 l 427 1625 z "},"Ử":{"ha":1165,"x_min":155,"x_max":1181,"o":"m 1181 1486 q 1010 1266 1153 1317 l 1010 385 q 953 170 1010 268 q 800 15 897 71 q 585 -42 702 -42 q 365 15 464 -42 q 210 170 266 71 q 155 385 155 268 l 155 1389 l 385 1389 l 385 393 q 443 246 385 306 q 583 187 502 187 q 724 246 669 187 q 780 393 780 306 l 780 1389 l 808 1389 q 930 1408 887 1389 q 988 1486 972 1427 l 1181 1486 m 540 1595 q 620 1613 593 1595 q 647 1661 647 1631 q 628 1697 647 1683 q 579 1712 609 1712 q 520 1696 550 1712 l 520 1784 q 591 1804 546 1804 q 692 1770 645 1804 q 748 1677 740 1736 q 721 1577 754 1621 q 629 1522 688 1534 l 629 1484 l 540 1484 l 540 1595 z "},"Ữ":{"ha":1165,"x_min":155,"x_max":1181,"o":"m 1181 1486 q 1010 1266 1153 1317 l 1010 385 q 953 170 1010 268 q 800 15 897 71 q 585 -42 702 -42 q 365 15 464 -42 q 210 170 266 71 q 155 385 155 268 l 155 1389 l 385 1389 l 385 393 q 443 246 385 306 q 583 187 502 187 q 724 246 669 187 q 780 393 780 306 l 780 1389 l 808 1389 q 930 1408 887 1389 q 988 1486 972 1427 l 1181 1486 m 792 1494 q 700 1524 756 1524 q 587 1500 649 1524 q 468 1474 516 1474 q 397 1491 415 1474 q 377 1510 379 1508 l 377 1621 q 482 1589 425 1589 q 581 1609 524 1589 q 700 1633 651 1633 q 769 1620 750 1633 q 790 1605 788 1607 l 792 1494 z "},"Ű":{"ha":1165,"x_min":155,"x_max":1010,"o":"m 585 -42 q 365 15 464 -42 q 210 170 266 71 q 155 385 155 268 l 155 1389 l 385 1389 l 385 393 q 443 246 385 306 q 583 187 502 187 q 724 246 669 187 q 780 393 780 306 l 780 1389 l 1010 1389 l 1010 385 q 953 170 1010 268 q 800 15 897 71 q 585 -42 702 -42 m 690 1538 l 903 1754 l 990 1661 l 754 1474 l 690 1538 m 371 1536 l 583 1752 l 671 1659 l 435 1472 l 371 1536 z "},"Ū":{"ha":1165,"x_min":155,"x_max":1010,"o":"m 585 -42 q 365 15 464 -42 q 210 170 266 71 q 155 385 155 268 l 155 1389 l 385 1389 l 385 393 q 443 246 385 306 q 583 187 502 187 q 724 246 669 187 q 780 393 780 306 l 780 1389 l 1010 1389 l 1010 385 q 953 170 1010 268 q 800 15 897 71 q 585 -42 702 -42 m 371 1609 l 800 1609 l 800 1492 l 371 1492 l 371 1609 z "},"Ų":{"ha":1165,"x_min":155,"x_max":1010,"o":"m 1010 1389 l 1010 385 q 958 178 1010 272 q 817 26 907 83 q 619 -40 728 -32 q 573 -127 569 -83 q 599 -173 575 -157 q 657 -188 623 -188 q 696 -183 677 -188 l 696 -290 q 625 -300 653 -300 q 502 -257 548 -300 q 456 -145 456 -214 q 506 -36 456 -79 q 253 109 351 -8 q 155 385 155 226 l 155 1389 l 385 1389 l 385 393 q 443 246 385 306 q 583 187 502 187 q 724 246 669 187 q 780 393 780 306 l 780 1389 l 1010 1389 z "},"Ů":{"ha":1165,"x_min":155,"x_max":1010,"o":"m 585 -42 q 365 15 464 -42 q 210 170 266 71 q 155 385 155 268 l 155 1389 l 385 1389 l 385 393 q 443 246 385 306 q 583 187 502 187 q 724 246 669 187 q 780 393 780 306 l 780 1389 l 1010 1389 l 1010 385 q 953 170 1010 268 q 800 15 897 71 q 585 -42 702 -42 m 585 1470 q 437 1532 498 1470 q 375 1681 375 1593 q 437 1828 375 1768 q 585 1889 498 1889 q 732 1828 671 1889 q 794 1681 794 1768 q 733 1532 794 1593 q 585 1470 673 1470 m 585 1585 q 653 1614 625 1585 q 681 1685 681 1643 q 653 1751 681 1722 q 585 1780 625 1780 q 518 1751 546 1780 q 490 1685 490 1722 q 518 1614 490 1643 q 585 1585 546 1585 z "},"Ũ":{"ha":1165,"x_min":155,"x_max":1010,"o":"m 585 -42 q 365 15 464 -42 q 210 170 266 71 q 155 385 155 268 l 155 1389 l 385 1389 l 385 393 q 443 246 385 306 q 583 187 502 187 q 724 246 669 187 q 780 393 780 306 l 780 1389 l 1010 1389 l 1010 385 q 953 170 1010 268 q 800 15 897 71 q 585 -42 702 -42 m 792 1494 q 700 1524 756 1524 q 587 1500 649 1524 q 468 1474 516 1474 q 397 1491 415 1474 q 377 1510 379 1508 l 377 1621 q 482 1589 425 1589 q 581 1609 524 1589 q 700 1633 651 1633 q 769 1620 750 1633 q 790 1605 788 1607 l 792 1494 z "},"V":{"ha":1294,"x_min":109,"x_max":1185,"o":"m 758 4 l 758 0 l 526 0 l 528 4 l 109 1389 l 341 1389 l 647 393 l 952 1389 l 1185 1389 l 758 4 z "},"W":{"ha":1621,"x_min":119,"x_max":1502,"o":"m 1502 1389 l 1224 0 l 988 0 l 819 823 l 653 0 l 417 0 l 119 1389 l 351 1389 l 534 548 l 700 1389 l 937 1389 l 1103 554 l 1270 1389 l 1502 1389 z "},"Ẃ":{"ha":1621,"x_min":119,"x_max":1502,"o":"m 1502 1389 l 1224 0 l 988 0 l 819 823 l 653 0 l 417 0 l 119 1389 l 351 1389 l 534 548 l 700 1389 l 937 1389 l 1103 554 l 1270 1389 l 1502 1389 m 659 1556 l 905 1732 l 976 1625 l 710 1482 l 659 1556 z "},"Ŵ":{"ha":1621,"x_min":119,"x_max":1502,"o":"m 1502 1389 l 1224 0 l 988 0 l 819 823 l 653 0 l 417 0 l 119 1389 l 351 1389 l 534 548 l 700 1389 l 937 1389 l 1103 554 l 1270 1389 l 1502 1389 m 611 1583 l 815 1685 l 1022 1583 l 1022 1484 l 815 1550 l 611 1484 l 611 1583 z "},"Ẅ":{"ha":1621,"x_min":119,"x_max":1502,"o":"m 1502 1389 l 1224 0 l 988 0 l 819 823 l 653 0 l 417 0 l 119 1389 l 351 1389 l 534 548 l 700 1389 l 937 1389 l 1103 554 l 1270 1389 l 1502 1389 m 665 1488 q 602 1514 627 1488 q 577 1575 577 1540 q 602 1637 577 1611 q 665 1663 627 1663 q 726 1637 700 1663 q 752 1575 752 1611 q 726 1514 752 1540 q 665 1488 700 1488 m 970 1488 q 908 1514 933 1488 q 883 1575 883 1540 q 908 1637 883 1611 q 970 1663 933 1663 q 1032 1637 1006 1663 q 1058 1575 1058 1611 q 1032 1514 1058 1540 q 970 1488 1006 1488 z "},"Ẁ":{"ha":1621,"x_min":119,"x_max":1502,"o":"m 1502 1389 l 1224 0 l 988 0 l 819 823 l 653 0 l 417 0 l 119 1389 l 351 1389 l 534 548 l 700 1389 l 937 1389 l 1103 554 l 1270 1389 l 1502 1389 m 659 1625 l 730 1732 l 976 1556 l 925 1482 l 659 1625 z "},"X":{"ha":1272,"x_min":119,"x_max":1153,"o":"m 899 2 l 637 514 l 373 2 l 119 2 l 510 760 l 187 1389 l 438 1389 l 637 1006 l 833 1389 l 1085 1389 l 762 760 l 1153 2 l 899 2 z "},"Y":{"ha":1278,"x_min":109,"x_max":1169,"o":"m 752 649 l 752 0 l 526 0 l 526 649 l 109 1389 l 359 1389 l 639 893 l 919 1389 l 1169 1389 l 752 649 z "},"Ý":{"ha":1278,"x_min":109,"x_max":1169,"o":"m 752 649 l 752 0 l 526 0 l 526 649 l 109 1389 l 359 1389 l 639 893 l 919 1389 l 1169 1389 l 752 649 m 480 1556 l 726 1732 l 798 1625 l 532 1482 l 480 1556 z "},"Ŷ":{"ha":1278,"x_min":109,"x_max":1169,"o":"m 752 649 l 752 0 l 526 0 l 526 649 l 109 1389 l 359 1389 l 639 893 l 919 1389 l 1169 1389 l 752 649 m 433 1583 l 637 1685 l 843 1583 l 843 1484 l 637 1550 l 433 1484 l 433 1583 z "},"Ÿ":{"ha":1278,"x_min":109,"x_max":1169,"o":"m 752 649 l 752 0 l 526 0 l 526 649 l 109 1389 l 359 1389 l 639 893 l 919 1389 l 1169 1389 l 752 649 m 486 1488 q 424 1514 448 1488 q 399 1575 399 1540 q 424 1637 399 1611 q 486 1663 448 1663 q 548 1637 522 1663 q 573 1575 573 1611 q 548 1514 573 1540 q 486 1488 522 1488 m 792 1488 q 729 1514 754 1488 q 704 1575 704 1540 q 729 1637 704 1611 q 792 1663 754 1663 q 853 1637 827 1663 q 879 1575 879 1611 q 853 1514 879 1540 q 792 1488 827 1488 z "},"Ỵ":{"ha":1278,"x_min":109,"x_max":1169,"o":"m 752 649 l 752 0 l 526 0 l 526 649 l 109 1389 l 359 1389 l 639 893 l 919 1389 l 1169 1389 l 752 649 m 623 -272 q 561 -246 585 -272 q 536 -185 536 -220 q 561 -123 536 -149 q 623 -97 585 -97 q 685 -123 659 -97 q 710 -185 710 -149 q 685 -246 710 -220 q 623 -272 659 -272 z "},"Ỳ":{"ha":1278,"x_min":109,"x_max":1169,"o":"m 752 649 l 752 0 l 526 0 l 526 649 l 109 1389 l 359 1389 l 639 893 l 919 1389 l 1169 1389 l 752 649 m 480 1625 l 552 1732 l 798 1556 l 746 1482 l 480 1625 z "},"Ỷ":{"ha":1278,"x_min":109,"x_max":1169,"o":"m 752 649 l 752 0 l 526 0 l 526 649 l 109 1389 l 359 1389 l 639 893 l 919 1389 l 1169 1389 l 752 649 m 593 1595 q 674 1613 647 1595 q 700 1661 700 1631 q 682 1697 700 1683 q 633 1712 663 1712 q 573 1696 603 1712 l 573 1784 q 645 1804 599 1804 q 746 1770 698 1804 q 802 1677 794 1736 q 775 1577 808 1621 q 683 1522 742 1534 l 683 1484 l 593 1484 l 593 1595 z "},"Ỹ":{"ha":1278,"x_min":109,"x_max":1169,"o":"m 752 649 l 752 0 l 526 0 l 526 649 l 109 1389 l 359 1389 l 639 893 l 919 1389 l 1169 1389 l 752 649 m 845 1494 q 754 1524 810 1524 q 641 1500 702 1524 q 522 1474 569 1474 q 450 1491 468 1474 q 431 1510 433 1508 l 431 1621 q 536 1589 478 1589 q 635 1609 577 1589 q 754 1633 704 1633 q 822 1620 804 1633 q 843 1605 841 1607 l 845 1494 z "},"Z":{"ha":1133,"x_min":109,"x_max":978,"o":"m 978 1155 l 974 1155 l 978 1149 l 391 234 l 976 234 l 976 0 l 109 0 l 109 234 l 111 234 l 109 236 l 702 1155 l 200 1155 l 200 1389 l 978 1389 l 978 1155 z "},"Ź":{"ha":1133,"x_min":109,"x_max":978,"o":"m 978 1155 l 974 1155 l 978 1149 l 391 234 l 976 234 l 976 0 l 109 0 l 109 234 l 111 234 l 109 236 l 702 1155 l 200 1155 l 200 1389 l 978 1389 l 978 1155 m 437 1556 l 683 1732 l 754 1625 l 488 1482 l 437 1556 z "},"Ž":{"ha":1133,"x_min":109,"x_max":978,"o":"m 978 1155 l 974 1155 l 978 1149 l 391 234 l 976 234 l 976 0 l 109 0 l 109 234 l 111 234 l 109 236 l 702 1155 l 200 1155 l 200 1389 l 978 1389 l 978 1155 m 595 1611 l 806 1679 l 806 1577 l 595 1474 l 387 1577 l 387 1679 l 595 1611 z "},"Ż":{"ha":1133,"x_min":109,"x_max":978,"o":"m 978 1155 l 974 1155 l 978 1149 l 391 234 l 976 234 l 976 0 l 109 0 l 109 234 l 111 234 l 109 236 l 702 1155 l 200 1155 l 200 1389 l 978 1389 l 978 1155 m 579 1488 q 517 1514 542 1488 q 492 1575 492 1540 q 517 1637 492 1611 q 579 1663 542 1663 q 641 1637 615 1663 q 667 1575 667 1611 q 641 1514 667 1540 q 579 1488 615 1488 z "},"a":{"ha":1065,"x_min":75,"x_max":990,"o":"m 708 264 l 357 264 l 278 0 l 75 0 l 438 1157 l 629 1157 l 990 0 l 788 0 l 708 264 m 653 450 l 532 855 l 411 450 l 653 450 z "},"á":{"ha":1065,"x_min":75,"x_max":990,"o":"m 708 264 l 357 264 l 278 0 l 75 0 l 438 1157 l 629 1157 l 990 0 l 788 0 l 708 264 m 653 450 l 532 855 l 411 450 l 653 450 m 373 1339 l 619 1516 l 690 1409 l 425 1266 l 373 1339 z "},"ă":{"ha":1065,"x_min":75,"x_max":990,"o":"m 708 264 l 357 264 l 278 0 l 75 0 l 438 1157 l 629 1157 l 990 0 l 788 0 l 708 264 m 653 450 l 532 855 l 411 450 l 653 450 m 530 1250 q 389 1302 450 1250 q 321 1427 327 1353 l 435 1427 q 468 1382 442 1399 q 530 1365 494 1365 q 591 1382 563 1365 q 627 1427 619 1399 l 740 1427 q 670 1301 732 1351 q 530 1250 607 1250 z "},"ắ":{"ha":1065,"x_min":75,"x_max":990,"o":"m 708 264 l 357 264 l 278 0 l 75 0 l 438 1157 l 629 1157 l 990 0 l 788 0 l 708 264 m 653 450 l 532 855 l 411 450 l 653 450 z "},"ặ":{"ha":1065,"x_min":75,"x_max":990,"o":"m 708 264 l 357 264 l 278 0 l 75 0 l 438 1157 l 629 1157 l 990 0 l 788 0 l 708 264 m 653 450 l 532 855 l 411 450 l 653 450 m 516 -268 q 453 -242 478 -268 q 429 -181 429 -216 q 453 -119 429 -145 q 516 -93 478 -93 q 577 -119 552 -93 q 603 -181 603 -145 q 577 -242 603 -216 q 516 -268 552 -268 m 530 1250 q 389 1302 450 1250 q 321 1427 327 1353 l 435 1427 q 468 1382 442 1399 q 530 1365 494 1365 q 591 1382 563 1365 q 627 1427 619 1399 l 740 1427 q 670 1301 732 1351 q 530 1250 607 1250 z "},"ằ":{"ha":1065,"x_min":75,"x_max":990,"o":"m 708 264 l 357 264 l 278 0 l 75 0 l 438 1157 l 629 1157 l 990 0 l 788 0 l 708 264 m 653 450 l 532 855 l 411 450 l 653 450 z "},"ẳ":{"ha":1065,"x_min":75,"x_max":990,"o":"m 708 264 l 357 264 l 278 0 l 75 0 l 438 1157 l 629 1157 l 990 0 l 788 0 l 708 264 m 653 450 l 532 855 l 411 450 l 653 450 z "},"ẵ":{"ha":1065,"x_min":75,"x_max":990,"o":"m 708 264 l 357 264 l 278 0 l 75 0 l 438 1157 l 629 1157 l 990 0 l 788 0 l 708 264 m 653 450 l 532 855 l 411 450 l 653 450 z "},"ǎ":{"ha":1065,"x_min":75,"x_max":990,"o":"m 708 264 l 357 264 l 278 0 l 75 0 l 438 1157 l 629 1157 l 990 0 l 788 0 l 708 264 m 653 450 l 532 855 l 411 450 l 653 450 m 532 1395 l 742 1462 l 742 1361 l 532 1258 l 323 1361 l 323 1462 l 532 1395 z "},"â":{"ha":1065,"x_min":75,"x_max":990,"o":"m 708 264 l 357 264 l 278 0 l 75 0 l 438 1157 l 629 1157 l 990 0 l 788 0 l 708 264 m 653 450 l 532 855 l 411 450 l 653 450 m 325 1343 l 530 1444 l 736 1343 l 736 1244 l 530 1310 l 325 1244 l 325 1343 z "},"ấ":{"ha":1065,"x_min":75,"x_max":990,"o":"m 708 264 l 357 264 l 278 0 l 75 0 l 438 1157 l 629 1157 l 990 0 l 788 0 l 708 264 m 653 450 l 532 855 l 411 450 l 653 450 z "},"ậ":{"ha":1065,"x_min":75,"x_max":990,"o":"m 708 264 l 357 264 l 278 0 l 75 0 l 438 1157 l 629 1157 l 990 0 l 788 0 l 708 264 m 653 450 l 532 855 l 411 450 l 653 450 m 516 -268 q 453 -242 478 -268 q 429 -181 429 -216 q 453 -119 429 -145 q 516 -93 478 -93 q 577 -119 552 -93 q 603 -181 603 -145 q 577 -242 603 -216 q 516 -268 552 -268 m 325 1343 l 530 1444 l 736 1343 l 736 1244 l 530 1310 l 325 1244 l 325 1343 z "},"ầ":{"ha":1065,"x_min":75,"x_max":990,"o":"m 708 264 l 357 264 l 278 0 l 75 0 l 438 1157 l 629 1157 l 990 0 l 788 0 l 708 264 m 653 450 l 532 855 l 411 450 l 653 450 z "},"ẩ":{"ha":1065,"x_min":75,"x_max":990,"o":"m 708 264 l 357 264 l 278 0 l 75 0 l 438 1157 l 629 1157 l 990 0 l 788 0 l 708 264 m 653 450 l 532 855 l 411 450 l 653 450 z "},"ẫ":{"ha":1065,"x_min":75,"x_max":990,"o":"m 708 264 l 357 264 l 278 0 l 75 0 l 438 1157 l 629 1157 l 990 0 l 788 0 l 708 264 m 653 450 l 532 855 l 411 450 l 653 450 z "},"ä":{"ha":1065,"x_min":75,"x_max":990,"o":"m 708 264 l 357 264 l 278 0 l 75 0 l 438 1157 l 629 1157 l 990 0 l 788 0 l 708 264 m 653 450 l 532 855 l 411 450 l 653 450 m 379 1272 q 316 1298 341 1272 q 292 1359 292 1323 q 316 1421 292 1395 q 379 1446 341 1446 q 440 1421 415 1446 q 466 1359 466 1395 q 440 1298 466 1323 q 379 1272 415 1272 m 685 1272 q 622 1298 647 1272 q 597 1359 597 1323 q 622 1421 597 1395 q 685 1446 647 1446 q 746 1421 720 1446 q 772 1359 772 1395 q 746 1298 772 1323 q 685 1272 720 1272 z "},"ạ":{"ha":1065,"x_min":75,"x_max":990,"o":"m 708 264 l 357 264 l 278 0 l 75 0 l 438 1157 l 629 1157 l 990 0 l 788 0 l 708 264 m 653 450 l 532 855 l 411 450 l 653 450 m 516 -268 q 453 -242 478 -268 q 429 -181 429 -216 q 453 -119 429 -145 q 516 -93 478 -93 q 577 -119 552 -93 q 603 -181 603 -145 q 577 -242 603 -216 q 516 -268 552 -268 z "},"à":{"ha":1065,"x_min":75,"x_max":990,"o":"m 708 264 l 357 264 l 278 0 l 75 0 l 438 1157 l 629 1157 l 990 0 l 788 0 l 708 264 m 653 450 l 532 855 l 411 450 l 653 450 m 373 1409 l 444 1516 l 690 1339 l 639 1266 l 373 1409 z "},"ả":{"ha":1065,"x_min":75,"x_max":990,"o":"m 708 264 l 357 264 l 278 0 l 75 0 l 438 1157 l 629 1157 l 990 0 l 788 0 l 708 264 m 653 450 l 532 855 l 411 450 l 653 450 m 486 1379 q 566 1397 540 1379 q 593 1444 593 1415 q 574 1481 593 1466 q 526 1496 556 1496 q 466 1480 496 1496 l 466 1567 q 538 1587 492 1587 q 639 1554 591 1587 q 694 1460 687 1520 q 668 1361 700 1405 q 575 1306 635 1317 l 575 1268 l 486 1268 l 486 1379 z "},"ā":{"ha":1065,"x_min":75,"x_max":990,"o":"m 708 264 l 357 264 l 278 0 l 75 0 l 438 1157 l 629 1157 l 990 0 l 788 0 l 708 264 m 653 450 l 532 855 l 411 450 l 653 450 m 317 1393 l 746 1393 l 746 1276 l 317 1276 l 317 1393 z "},"ą":{"ha":1065,"x_min":75,"x_max":990,"o":"m 825 -97 q 849 -149 825 -131 q 909 -167 873 -167 q 948 -161 927 -167 l 948 -268 q 877 -278 905 -278 q 755 -236 802 -278 q 708 -125 708 -194 q 728 -49 708 -79 q 786 8 748 -18 l 708 264 l 357 264 l 278 0 l 75 0 l 438 1157 l 629 1157 l 990 0 l 897 0 q 825 -97 825 -48 m 653 450 l 532 855 l 411 450 l 653 450 z "},"å":{"ha":1065,"x_min":75,"x_max":990,"o":"m 708 264 l 357 264 l 278 0 l 75 0 l 421 1103 q 348 1178 375 1131 q 321 1282 321 1224 q 383 1430 321 1369 q 532 1490 444 1490 q 680 1430 619 1490 q 740 1282 740 1369 q 714 1181 740 1226 q 645 1105 688 1135 l 990 0 l 788 0 l 708 264 m 532 1381 q 464 1352 492 1381 q 437 1286 437 1323 q 464 1215 437 1244 q 532 1187 492 1187 q 599 1215 571 1187 q 627 1286 627 1244 q 599 1352 627 1323 q 532 1381 571 1381 m 653 450 l 532 855 l 411 450 l 653 450 z "},"ã":{"ha":1065,"x_min":75,"x_max":990,"o":"m 708 264 l 357 264 l 278 0 l 75 0 l 438 1157 l 629 1157 l 990 0 l 788 0 l 708 264 m 653 450 l 532 855 l 411 450 l 653 450 m 738 1278 q 647 1308 702 1308 q 534 1284 595 1308 q 415 1258 462 1258 q 343 1275 361 1258 q 323 1294 325 1292 l 323 1405 q 429 1373 371 1373 q 528 1393 470 1373 q 647 1417 597 1417 q 715 1404 696 1417 q 736 1389 734 1391 l 738 1278 z "},"æ":{"ha":1476,"x_min":58,"x_max":1351,"o":"m 837 964 l 837 698 l 1121 698 l 1121 512 l 837 512 l 837 192 l 1351 192 l 1351 0 l 647 0 l 647 264 l 369 264 l 264 0 l 58 0 l 520 1157 l 1351 1157 l 1351 964 l 837 964 m 647 450 l 647 962 l 442 450 l 647 450 z "},"b":{"ha":946,"x_min":133,"x_max":847,"o":"m 718 621 q 813 501 780 571 q 847 351 847 431 q 800 173 847 254 q 670 44 752 91 q 490 -4 587 -4 l 133 -4 l 133 1157 l 492 1157 q 653 1114 581 1157 q 765 999 724 1071 q 806 843 806 927 q 718 621 806 712 m 323 968 l 323 708 l 496 708 q 579 747 544 708 q 615 835 615 786 q 578 928 615 887 q 488 968 542 968 l 323 968 m 480 185 q 605 233 556 185 q 655 355 655 282 q 607 466 655 419 q 496 514 560 514 l 323 514 l 323 185 l 480 185 z "},"c":{"ha":966,"x_min":133,"x_max":843,"o":"m 468 -32 q 300 14 377 -32 q 178 136 222 60 q 133 304 133 212 l 133 845 q 178 1016 133 937 q 300 1142 222 1095 q 468 1188 377 1188 l 508 1188 q 662 1151 589 1188 q 783 1046 734 1113 q 839 893 831 978 q 843 835 843 857 l 651 835 q 603 956 651 909 q 484 1004 556 1004 q 372 955 421 1004 q 323 839 323 907 l 323 317 q 372 200 323 250 q 486 151 421 151 q 607 211 563 151 q 651 371 651 272 l 837 371 q 835 294 837 319 q 781 122 829 196 q 659 8 732 48 q 508 -32 585 -32 l 468 -32 z "},"ć":{"ha":966,"x_min":133,"x_max":843,"o":"m 468 -32 q 300 14 377 -32 q 178 136 222 60 q 133 304 133 212 l 133 845 q 178 1016 133 937 q 300 1142 222 1095 q 468 1188 377 1188 l 508 1188 q 662 1151 589 1188 q 783 1046 734 1113 q 839 893 831 978 q 843 835 843 857 l 651 835 q 603 956 651 909 q 484 1004 556 1004 q 372 955 421 1004 q 323 839 323 907 l 323 317 q 372 200 323 250 q 486 151 421 151 q 607 211 563 151 q 651 371 651 272 l 837 371 q 835 294 837 319 q 781 122 829 196 q 659 8 732 48 q 508 -32 585 -32 l 468 -32 m 329 1339 l 575 1516 l 647 1409 l 381 1266 l 329 1339 z "},"č":{"ha":966,"x_min":133,"x_max":843,"o":"m 468 -32 q 300 14 377 -32 q 178 136 222 60 q 133 304 133 212 l 133 845 q 178 1016 133 937 q 300 1142 222 1095 q 468 1188 377 1188 l 508 1188 q 662 1151 589 1188 q 783 1046 734 1113 q 839 893 831 978 q 843 835 843 857 l 651 835 q 603 956 651 909 q 484 1004 556 1004 q 372 955 421 1004 q 323 839 323 907 l 323 317 q 372 200 323 250 q 486 151 421 151 q 607 211 563 151 q 651 371 651 272 l 837 371 q 835 294 837 319 q 781 122 829 196 q 659 8 732 48 q 508 -32 585 -32 l 468 -32 m 488 1395 l 698 1462 l 698 1361 l 488 1258 l 280 1361 l 280 1462 l 488 1395 z "},"ç":{"ha":966,"x_min":133,"x_max":843,"o":"m 486 151 q 607 211 563 151 q 651 371 651 272 l 837 371 q 835 294 837 319 q 754 85 827 171 q 577 -24 681 0 l 530 -65 q 571 -114 558 -83 q 585 -179 585 -145 q 542 -281 585 -240 q 427 -321 498 -321 q 375 -315 403 -321 l 375 -210 q 405 -212 385 -212 q 452 -200 437 -212 q 468 -169 468 -188 q 442 -119 468 -143 q 375 -87 417 -95 l 435 -30 q 282 25 351 -22 q 173 145 212 71 q 133 304 133 218 l 133 845 q 178 1016 133 937 q 300 1142 222 1095 q 468 1188 377 1188 l 508 1188 q 662 1151 589 1188 q 783 1046 734 1113 q 839 893 831 978 q 843 835 843 857 l 651 835 q 603 956 651 909 q 484 1004 556 1004 q 372 955 421 1004 q 323 839 323 907 l 323 317 q 372 200 323 250 q 486 151 421 151 z "},"ċ":{"ha":966,"x_min":133,"x_max":843,"o":"m 468 -32 q 300 14 377 -32 q 178 136 222 60 q 133 304 133 212 l 133 845 q 178 1016 133 937 q 300 1142 222 1095 q 468 1188 377 1188 l 508 1188 q 662 1151 589 1188 q 783 1046 734 1113 q 839 893 831 978 q 843 835 843 857 l 651 835 q 603 956 651 909 q 484 1004 556 1004 q 372 955 421 1004 q 323 839 323 907 l 323 317 q 372 200 323 250 q 486 151 421 151 q 607 211 563 151 q 651 371 651 272 l 837 371 q 835 294 837 319 q 781 122 829 196 q 659 8 732 48 q 508 -32 585 -32 l 468 -32 m 472 1272 q 410 1298 435 1272 q 385 1359 385 1323 q 410 1421 385 1395 q 472 1446 435 1446 q 534 1421 508 1446 q 560 1359 560 1395 q 534 1298 560 1323 q 472 1272 508 1272 z "},"d":{"ha":972,"x_min":133,"x_max":843,"o":"m 520 1157 q 682 1114 607 1157 q 800 997 756 1071 q 843 835 843 923 l 843 317 q 800 156 843 230 q 682 39 756 81 q 520 -4 607 -4 l 133 -4 l 133 1157 l 520 1157 m 649 827 q 608 925 649 885 q 510 964 567 964 l 323 964 l 323 188 l 520 188 q 611 226 573 188 q 649 317 649 264 l 649 827 z "},"ð":{"ha":972,"x_min":65,"x_max":843,"o":"m 520 1157 q 682 1114 607 1157 q 800 997 756 1071 q 843 835 843 923 l 843 317 q 800 156 843 230 q 682 39 756 81 q 520 -4 607 -4 l 133 -4 l 133 504 l 65 504 l 65 696 l 133 696 l 133 1157 l 520 1157 m 649 827 q 608 925 649 885 q 510 964 567 964 l 323 964 l 323 696 l 488 696 l 488 504 l 323 504 l 323 188 l 520 188 q 611 226 573 188 q 649 317 649 264 l 649 827 z "},"ď":{"ha":1121,"x_min":133,"x_max":1081,"o":"m 520 1157 q 682 1114 607 1157 q 800 997 756 1071 q 843 835 843 923 l 843 317 q 800 156 843 230 q 682 39 756 81 q 520 -4 607 -4 l 133 -4 l 133 1157 l 520 1157 m 649 827 q 608 925 649 885 q 510 964 567 964 l 323 964 l 323 188 l 520 188 q 611 226 573 188 q 649 317 649 264 l 649 827 m 1081 1069 q 1039 977 1079 1016 q 956 933 998 938 q 976 1008 970 964 q 938 1039 952 1018 q 923 1085 923 1060 q 946 1141 923 1117 q 1002 1165 970 1165 q 1058 1141 1034 1165 q 1081 1085 1081 1117 l 1081 1079 l 1081 1069 z "},"đ":{"ha":972,"x_min":65,"x_max":843,"o":"m 520 1157 q 682 1114 607 1157 q 800 997 756 1071 q 843 835 843 923 l 843 317 q 800 156 843 230 q 682 39 756 81 q 520 -4 607 -4 l 133 -4 l 133 504 l 65 504 l 65 696 l 133 696 l 133 1157 l 520 1157 m 649 827 q 608 925 649 885 q 510 964 567 964 l 323 964 l 323 696 l 488 696 l 488 504 l 323 504 l 323 188 l 520 188 q 611 226 573 188 q 649 317 649 264 l 649 827 z "},"e":{"ha":962,"x_min":133,"x_max":837,"o":"m 323 964 l 323 698 l 607 698 l 607 512 l 323 512 l 323 192 l 837 192 l 837 0 l 133 0 l 133 1157 l 837 1157 l 837 964 l 323 964 z "},"é":{"ha":962,"x_min":133,"x_max":837,"o":"m 323 964 l 323 698 l 607 698 l 607 512 l 323 512 l 323 192 l 837 192 l 837 0 l 133 0 l 133 1157 l 837 1157 l 837 964 l 323 964 m 325 1323 l 571 1500 l 643 1393 l 377 1250 l 325 1323 z "},"ě":{"ha":962,"x_min":133,"x_max":837,"o":"m 323 964 l 323 698 l 607 698 l 607 512 l 323 512 l 323 192 l 837 192 l 837 0 l 133 0 l 133 1157 l 837 1157 l 837 964 l 323 964 m 484 1379 l 694 1446 l 694 1345 l 484 1242 l 276 1345 l 276 1446 l 484 1379 z "},"ê":{"ha":962,"x_min":133,"x_max":837,"o":"m 323 964 l 323 698 l 607 698 l 607 512 l 323 512 l 323 192 l 837 192 l 837 0 l 133 0 l 133 1157 l 837 1157 l 837 964 l 323 964 m 278 1351 l 482 1452 l 688 1351 l 688 1252 l 482 1317 l 278 1252 l 278 1351 z "},"ế":{"ha":962,"x_min":133,"x_max":917,"o":"m 323 964 l 323 698 l 607 698 l 607 512 l 323 512 l 323 192 l 837 192 l 837 0 l 133 0 l 133 1157 l 837 1157 l 837 964 l 323 964 z "},"ệ":{"ha":962,"x_min":133,"x_max":837,"o":"m 323 964 l 323 698 l 607 698 l 607 512 l 323 512 l 323 192 l 837 192 l 837 0 l 133 0 l 133 1157 l 837 1157 l 837 964 l 323 964 m 468 -272 q 406 -246 431 -272 q 381 -185 381 -220 q 406 -123 381 -149 q 468 -97 431 -97 q 530 -123 504 -97 q 556 -185 556 -149 q 530 -246 556 -220 q 468 -272 504 -272 m 278 1351 l 482 1452 l 688 1351 l 688 1252 l 482 1317 l 278 1252 l 278 1351 z "},"ề":{"ha":962,"x_min":133,"x_max":837,"o":"m 323 964 l 323 698 l 607 698 l 607 512 l 323 512 l 323 192 l 837 192 l 837 0 l 133 0 l 133 1157 l 837 1157 l 837 964 l 323 964 z "},"ể":{"ha":962,"x_min":133,"x_max":837,"o":"m 323 964 l 323 698 l 607 698 l 607 512 l 323 512 l 323 192 l 837 192 l 837 0 l 133 0 l 133 1157 l 837 1157 l 837 964 l 323 964 z "},"ễ":{"ha":962,"x_min":133,"x_max":837,"o":"m 323 964 l 323 698 l 607 698 l 607 512 l 323 512 l 323 192 l 837 192 l 837 0 l 133 0 l 133 1157 l 837 1157 l 837 964 l 323 964 z "},"ë":{"ha":962,"x_min":133,"x_max":837,"o":"m 323 964 l 323 698 l 607 698 l 607 512 l 323 512 l 323 192 l 837 192 l 837 0 l 133 0 l 133 1157 l 837 1157 l 837 964 l 323 964 m 331 1256 q 269 1282 294 1256 q 244 1343 244 1308 q 269 1405 244 1379 q 331 1431 294 1431 q 393 1405 367 1431 q 419 1343 419 1379 q 393 1282 419 1308 q 331 1256 367 1256 m 637 1256 q 574 1282 599 1256 q 550 1343 550 1308 q 574 1405 550 1379 q 637 1431 599 1431 q 698 1405 673 1431 q 724 1343 724 1379 q 698 1282 724 1308 q 637 1256 673 1256 z "},"ė":{"ha":962,"x_min":133,"x_max":837,"o":"m 323 964 l 323 698 l 607 698 l 607 512 l 323 512 l 323 192 l 837 192 l 837 0 l 133 0 l 133 1157 l 837 1157 l 837 964 l 323 964 m 468 1256 q 406 1282 431 1256 q 381 1343 381 1308 q 406 1405 381 1379 q 468 1431 431 1431 q 530 1405 504 1431 q 556 1343 556 1379 q 530 1282 556 1308 q 468 1256 504 1256 z "},"ẹ":{"ha":962,"x_min":133,"x_max":837,"o":"m 323 964 l 323 698 l 607 698 l 607 512 l 323 512 l 323 192 l 837 192 l 837 0 l 133 0 l 133 1157 l 837 1157 l 837 964 l 323 964 m 468 -272 q 406 -246 431 -272 q 381 -185 381 -220 q 406 -123 381 -149 q 468 -97 431 -97 q 530 -123 504 -97 q 556 -185 556 -149 q 530 -246 556 -220 q 468 -272 504 -272 z "},"è":{"ha":962,"x_min":133,"x_max":837,"o":"m 323 964 l 323 698 l 607 698 l 607 512 l 323 512 l 323 192 l 837 192 l 837 0 l 133 0 l 133 1157 l 837 1157 l 837 964 l 323 964 m 325 1393 l 397 1500 l 643 1323 l 591 1250 l 325 1393 z "},"ẻ":{"ha":962,"x_min":133,"x_max":837,"o":"m 323 964 l 323 698 l 607 698 l 607 512 l 323 512 l 323 192 l 837 192 l 837 0 l 133 0 l 133 1157 l 837 1157 l 837 964 l 323 964 m 438 1363 q 519 1381 492 1363 q 546 1429 546 1399 q 527 1465 546 1450 q 478 1480 508 1480 q 419 1464 448 1480 l 419 1552 q 490 1571 444 1571 q 591 1538 544 1571 q 647 1444 639 1504 q 620 1345 653 1389 q 528 1290 587 1302 l 528 1252 l 438 1252 l 438 1363 z "},"ē":{"ha":962,"x_min":133,"x_max":837,"o":"m 323 964 l 323 698 l 607 698 l 607 512 l 323 512 l 323 192 l 837 192 l 837 0 l 133 0 l 133 1157 l 837 1157 l 837 964 l 323 964 m 270 1377 l 698 1377 l 698 1260 l 270 1260 l 270 1377 z "},"ę":{"ha":962,"x_min":133,"x_max":837,"o":"m 323 964 l 323 698 l 607 698 l 607 512 l 323 512 l 323 192 l 837 192 l 837 0 l 546 0 q 472 -99 472 -48 q 496 -151 472 -133 q 556 -169 520 -169 q 595 -163 575 -169 l 595 -270 q 524 -280 552 -280 q 402 -238 448 -280 q 355 -127 355 -196 q 372 -54 355 -83 q 425 0 389 -24 l 133 0 l 133 1157 l 837 1157 l 837 964 l 323 964 z "},"ẽ":{"ha":962,"x_min":133,"x_max":837,"o":"m 323 964 l 323 698 l 607 698 l 607 512 l 323 512 l 323 192 l 837 192 l 837 0 l 133 0 l 133 1157 l 837 1157 l 837 964 l 323 964 m 690 1262 q 599 1292 655 1292 q 486 1268 548 1292 q 367 1242 415 1242 q 296 1259 313 1242 q 276 1278 278 1276 l 276 1389 q 381 1357 323 1357 q 480 1377 423 1357 q 599 1401 550 1401 q 668 1388 649 1401 q 688 1373 687 1375 l 690 1262 z "},"f":{"ha":929,"x_min":133,"x_max":837,"o":"m 323 964 l 323 698 l 607 698 l 607 512 l 323 512 l 323 0 l 133 0 l 133 1157 l 837 1157 l 837 964 l 323 964 z "},"g":{"ha":972,"x_min":133,"x_max":843,"o":"m 496 510 l 843 510 l 843 0 q 817 -2 835 -2 q 716 58 760 -2 q 617 -7 671 16 q 508 -30 563 -30 l 468 -30 q 300 16 377 -30 q 178 138 222 62 q 133 306 133 214 l 133 841 q 178 1009 133 931 q 300 1136 222 1087 q 468 1185 377 1185 l 508 1185 q 672 1139 595 1185 q 795 1012 748 1093 q 843 833 841 931 l 649 833 q 599 947 649 901 q 484 994 550 994 q 371 947 419 994 q 323 837 323 901 l 323 319 q 372 206 323 252 q 484 161 421 161 q 593 205 550 161 q 643 321 637 250 l 496 321 l 496 510 z "},"ğ":{"ha":972,"x_min":133,"x_max":843,"o":"m 496 510 l 843 510 l 843 0 q 817 -2 835 -2 q 716 58 760 -2 q 617 -7 671 16 q 508 -30 563 -30 l 468 -30 q 300 16 377 -30 q 178 138 222 62 q 133 306 133 214 l 133 841 q 178 1009 133 931 q 300 1136 222 1087 q 468 1185 377 1185 l 508 1185 q 672 1139 595 1185 q 795 1012 748 1093 q 843 833 841 931 l 649 833 q 599 947 649 901 q 484 994 550 994 q 371 947 419 994 q 323 837 323 901 l 323 319 q 372 206 323 252 q 484 161 421 161 q 593 205 550 161 q 643 321 637 250 l 496 321 l 496 510 m 486 1248 q 345 1300 407 1248 q 278 1425 284 1351 l 391 1425 q 425 1380 399 1397 q 486 1363 450 1363 q 548 1380 520 1363 q 583 1425 575 1397 l 696 1425 q 626 1299 688 1349 q 486 1248 563 1248 z "},"ģ":{"ha":972,"x_min":133,"x_max":843,"o":"m 496 510 l 843 510 l 843 0 q 817 -2 835 -2 q 716 58 760 -2 q 617 -7 671 16 q 508 -30 563 -30 l 468 -30 q 300 16 377 -30 q 178 138 222 62 q 133 306 133 214 l 133 841 q 178 1009 133 931 q 300 1136 222 1087 q 468 1185 377 1185 l 508 1185 q 672 1139 595 1185 q 795 1012 748 1093 q 843 833 841 931 l 649 833 q 599 947 649 901 q 484 994 550 994 q 371 947 419 994 q 323 837 323 901 l 323 319 q 372 206 323 252 q 484 161 421 161 q 593 205 550 161 q 643 321 637 250 l 496 321 l 496 510 m 530 1425 q 568 1394 554 1415 q 583 1347 583 1373 q 560 1292 583 1315 q 504 1268 536 1268 q 448 1292 472 1268 q 425 1347 425 1315 l 425 1353 l 425 1363 q 467 1455 427 1417 q 550 1500 508 1494 q 530 1425 536 1468 z "},"ġ":{"ha":972,"x_min":133,"x_max":843,"o":"m 496 510 l 843 510 l 843 0 q 817 -2 835 -2 q 716 58 760 -2 q 617 -7 671 16 q 508 -30 563 -30 l 468 -30 q 300 16 377 -30 q 178 138 222 62 q 133 306 133 214 l 133 841 q 178 1009 133 931 q 300 1136 222 1087 q 468 1185 377 1185 l 508 1185 q 672 1139 595 1185 q 795 1012 748 1093 q 843 833 841 931 l 649 833 q 599 947 649 901 q 484 994 550 994 q 371 947 419 994 q 323 837 323 901 l 323 319 q 372 206 323 252 q 484 161 421 161 q 593 205 550 161 q 643 321 637 250 l 496 321 l 496 510 m 472 1270 q 410 1296 435 1270 q 385 1357 385 1321 q 410 1419 385 1393 q 472 1444 435 1444 q 534 1419 508 1444 q 560 1357 560 1393 q 534 1296 560 1321 q 472 1270 508 1270 z "},"h":{"ha":976,"x_min":133,"x_max":845,"o":"m 845 1157 l 845 0 l 653 0 l 653 528 l 323 528 l 323 0 l 133 0 l 133 1157 l 323 1157 l 323 714 l 653 714 l 653 1157 l 845 1157 z "},"ħ":{"ha":976,"x_min":62,"x_max":915,"o":"m 915 845 l 845 845 l 845 0 l 653 0 l 653 528 l 323 528 l 323 0 l 133 0 l 133 845 l 62 845 l 62 1030 l 133 1030 l 133 1157 l 323 1157 l 323 1030 l 653 1030 l 653 1157 l 845 1157 l 845 1030 l 915 1030 l 915 845 m 653 845 l 323 845 l 323 714 l 653 714 l 653 845 z "},"i":{"ha":490,"x_min":149,"x_max":341,"o":"m 149 1157 l 341 1157 l 341 0 l 149 0 l 149 1157 z "},"ı":{"ha":490,"x_min":149,"x_max":341,"o":"m 149 1157 l 341 1157 l 341 0 l 149 0 l 149 1157 z "},"í":{"ha":490,"x_min":83,"x_max":401,"o":"m 149 1157 l 341 1157 l 341 0 l 149 0 l 149 1157 m 83 1323 l 329 1500 l 401 1393 l 135 1250 l 83 1323 z "},"ǐ":{"ha":490,"x_min":75,"x_max":411,"o":"m 242 1379 l 411 1446 l 411 1345 l 242 1242 l 75 1345 l 75 1446 l 242 1379 m 149 1157 l 341 1157 l 341 0 l 149 0 l 149 1157 z "},"î":{"ha":490,"x_min":77,"x_max":407,"o":"m 77 1351 l 240 1452 l 407 1351 l 407 1252 l 240 1317 l 77 1252 l 77 1351 m 149 1157 l 341 1157 l 341 0 l 149 0 l 149 1157 z "},"ï":{"ha":490,"x_min":2,"x_max":482,"o":"m 149 1157 l 341 1157 l 341 0 l 149 0 l 149 1157 m 89 1256 q 27 1282 52 1256 q 2 1343 2 1308 q 27 1405 2 1379 q 89 1431 52 1431 q 151 1405 125 1431 q 177 1343 177 1379 q 151 1282 177 1308 q 89 1256 125 1256 m 395 1256 q 332 1282 357 1256 q 308 1343 308 1308 q 332 1405 308 1379 q 395 1431 357 1431 q 456 1405 431 1431 q 482 1343 482 1379 q 456 1282 482 1308 q 395 1256 431 1256 z "},"ị":{"ha":490,"x_min":139,"x_max":341,"o":"m 149 1157 l 341 1157 l 341 0 l 149 0 l 149 1157 m 226 -272 q 164 -246 188 -272 q 139 -185 139 -220 q 164 -123 139 -149 q 226 -97 188 -97 q 288 -123 262 -97 q 313 -185 313 -149 q 288 -246 313 -220 q 226 -272 262 -272 z "},"ì":{"ha":490,"x_min":83,"x_max":401,"o":"m 149 1157 l 341 1157 l 341 0 l 149 0 l 149 1157 m 83 1393 l 155 1500 l 401 1323 l 349 1250 l 83 1393 z "},"ỉ":{"ha":490,"x_min":149,"x_max":411,"o":"m 149 1157 l 341 1157 l 341 0 l 149 0 l 149 1157 m 196 1363 q 277 1381 250 1363 q 304 1429 304 1399 q 285 1465 304 1450 q 236 1480 266 1480 q 177 1464 206 1480 l 177 1552 q 248 1571 202 1571 q 349 1538 302 1571 q 405 1444 397 1504 q 378 1345 411 1389 q 286 1290 345 1302 l 286 1252 l 196 1252 l 196 1363 z "},"ī":{"ha":490,"x_min":83,"x_max":405,"o":"m 83 1377 l 405 1377 l 405 1260 l 83 1260 l 83 1377 m 149 1157 l 341 1157 l 341 0 l 149 0 l 149 1157 z "},"į":{"ha":490,"x_min":113,"x_max":353,"o":"m 226 1256 q 164 1282 188 1256 q 139 1343 139 1308 q 164 1405 139 1379 q 226 1431 188 1431 q 288 1405 262 1431 q 313 1343 313 1379 q 288 1282 313 1308 q 226 1256 262 1256 m 230 -99 q 254 -151 230 -133 q 313 -169 278 -169 q 353 -163 333 -169 l 353 -270 q 282 -280 310 -280 q 160 -238 206 -280 q 113 -127 113 -196 q 130 -54 113 -83 q 183 0 147 -24 l 149 0 l 149 1157 l 341 1157 l 341 0 l 304 0 q 230 -99 230 -48 z "},"ĩ":{"ha":490,"x_min":87,"x_max":399,"o":"m 399 1262 q 329 1292 375 1292 q 244 1268 290 1292 q 157 1242 190 1242 q 102 1259 115 1242 q 87 1278 89 1276 l 87 1389 q 121 1366 105 1375 q 165 1357 137 1357 q 240 1377 198 1357 q 329 1401 290 1401 q 380 1388 365 1401 q 397 1373 395 1375 l 399 1262 m 149 1157 l 341 1157 l 341 0 l 149 0 l 149 1157 z "},"j":{"ha":935,"x_min":83,"x_max":802,"o":"m 446 -32 q 266 18 349 -32 q 133 151 183 67 q 83 331 83 234 l 83 419 l 282 419 l 282 327 q 332 213 282 264 q 446 163 383 163 q 561 208 512 163 q 609 319 609 254 l 609 1157 l 802 1157 l 802 323 q 754 145 802 226 q 625 16 706 63 q 446 -32 544 -32 z "},"k":{"ha":974,"x_min":133,"x_max":885,"o":"m 435 514 l 327 329 l 327 0 l 133 0 l 133 1163 l 327 1163 l 327 708 l 589 1163 l 808 1163 l 554 722 l 885 0 l 665 0 l 435 514 z "},"ķ":{"ha":974,"x_min":133,"x_max":885,"o":"m 435 514 l 327 329 l 327 0 l 133 0 l 133 1163 l 327 1163 l 327 708 l 589 1163 l 808 1163 l 554 722 l 885 0 l 665 0 l 435 514 m 554 -192 q 511 -285 552 -246 q 429 -329 470 -323 q 448 -254 442 -298 q 410 -223 425 -244 q 395 -177 395 -202 q 419 -121 395 -145 q 474 -97 442 -97 q 530 -121 506 -97 q 554 -177 554 -145 l 554 -183 l 554 -192 z "},"l":{"ha":935,"x_min":133,"x_max":845,"o":"m 845 183 l 845 -4 l 133 -4 l 133 1157 l 323 1157 l 323 183 l 845 183 z "},"ĺ":{"ha":935,"x_min":133,"x_max":845,"o":"m 845 183 l 845 -4 l 133 -4 l 133 1157 l 323 1157 l 323 183 l 845 183 z "},"ľ":{"ha":935,"x_min":133,"x_max":845,"o":"m 845 183 l 845 -4 l 133 -4 l 133 1157 l 323 1157 l 323 183 l 845 183 m 692 1071 q 650 979 690 1018 q 567 935 609 940 q 587 1010 581 966 q 549 1041 563 1020 q 534 1087 534 1062 q 558 1143 534 1119 q 613 1167 581 1167 q 669 1143 645 1167 q 692 1087 692 1119 l 692 1081 l 692 1071 z "},"ļ":{"ha":935,"x_min":133,"x_max":845,"o":"m 845 183 l 845 -4 l 133 -4 l 133 1157 l 323 1157 l 323 183 l 845 183 m 534 -192 q 491 -285 532 -246 q 409 -329 450 -323 q 429 -254 423 -298 q 390 -223 405 -244 q 375 -177 375 -202 q 399 -121 375 -145 q 454 -97 423 -97 q 510 -121 486 -97 q 534 -177 534 -145 l 534 -183 l 534 -192 z "},"ł":{"ha":925,"x_min":54,"x_max":845,"o":"m 845 183 l 845 -4 l 133 -4 l 133 538 l 54 502 l 54 659 l 133 694 l 133 1157 l 325 1157 l 325 780 l 409 817 l 409 661 l 325 623 l 325 183 l 845 183 z "},"m":{"ha":1232,"x_min":133,"x_max":1099,"o":"m 1099 1157 l 1099 0 l 911 0 l 911 589 l 702 0 l 530 0 l 321 585 l 321 0 l 133 0 l 133 1157 l 321 1157 l 617 321 l 911 1157 l 1099 1157 z "},"n":{"ha":972,"x_min":133,"x_max":839,"o":"m 839 1157 l 839 0 l 649 0 l 323 692 l 323 0 l 133 0 l 133 1157 l 323 1157 l 649 460 l 649 1157 l 839 1157 z "},"ń":{"ha":972,"x_min":133,"x_max":839,"o":"m 839 1157 l 839 0 l 649 0 l 323 692 l 323 0 l 133 0 l 133 1157 l 323 1157 l 649 460 l 649 1157 l 839 1157 m 331 1323 l 577 1500 l 649 1393 l 383 1250 l 331 1323 z "},"ň":{"ha":972,"x_min":133,"x_max":839,"o":"m 839 1157 l 839 0 l 649 0 l 323 692 l 323 0 l 133 0 l 133 1157 l 323 1157 l 649 460 l 649 1157 l 839 1157 m 490 1379 l 700 1446 l 700 1345 l 490 1242 l 282 1345 l 282 1446 l 490 1379 z "},"ņ":{"ha":972,"x_min":133,"x_max":839,"o":"m 839 1157 l 839 0 l 649 0 l 323 692 l 323 0 l 133 0 l 133 1157 l 323 1157 l 649 460 l 649 1157 l 839 1157 m 563 -192 q 521 -285 562 -246 q 438 -329 480 -323 q 458 -254 452 -298 q 420 -223 435 -244 q 405 -177 405 -202 q 429 -121 405 -145 q 484 -97 452 -97 q 540 -121 516 -97 q 563 -177 563 -145 l 563 -183 l 563 -192 z "},"ñ":{"ha":972,"x_min":133,"x_max":839,"o":"m 839 1157 l 839 0 l 649 0 l 323 692 l 323 0 l 133 0 l 133 1157 l 323 1157 l 649 460 l 649 1157 l 839 1157 m 696 1262 q 605 1292 661 1292 q 492 1268 554 1292 q 373 1242 421 1242 q 302 1259 319 1242 q 282 1278 284 1276 l 282 1389 q 387 1357 329 1357 q 486 1377 429 1357 q 605 1401 556 1401 q 674 1388 655 1401 q 694 1373 692 1375 l 696 1262 z "},"o":{"ha":956,"x_min":129,"x_max":827,"o":"m 478 -34 q 301 14 381 -34 q 175 143 220 62 q 129 321 129 224 l 129 831 q 175 1010 129 929 q 301 1139 220 1091 q 478 1187 381 1187 q 655 1139 575 1187 q 781 1010 734 1091 q 827 831 827 929 l 827 321 q 781 143 827 224 q 655 14 734 62 q 478 -34 575 -34 m 478 165 q 585 212 542 165 q 629 325 629 260 l 629 827 q 585 940 629 893 q 478 988 542 988 q 370 941 413 988 q 327 827 327 895 l 327 325 q 370 211 327 258 q 478 165 413 165 z "},"ó":{"ha":956,"x_min":129,"x_max":827,"o":"m 478 -34 q 301 14 381 -34 q 175 143 220 62 q 129 321 129 224 l 129 831 q 175 1010 129 929 q 301 1139 220 1091 q 478 1187 381 1187 q 655 1139 575 1187 q 781 1010 734 1091 q 827 831 827 929 l 827 321 q 781 143 827 224 q 655 14 734 62 q 478 -34 575 -34 m 478 165 q 585 212 542 165 q 629 325 629 260 l 629 827 q 585 940 629 893 q 478 988 542 988 q 370 941 413 988 q 327 827 327 895 l 327 325 q 370 211 327 258 q 478 165 413 165 m 319 1339 l 565 1516 l 637 1409 l 371 1266 l 319 1339 z "},"ǒ":{"ha":956,"x_min":129,"x_max":827,"o":"m 478 -34 q 301 14 381 -34 q 175 143 220 62 q 129 321 129 224 l 129 831 q 175 1010 129 929 q 301 1139 220 1091 q 478 1187 381 1187 q 655 1139 575 1187 q 781 1010 734 1091 q 827 831 827 929 l 827 321 q 781 143 827 224 q 655 14 734 62 q 478 -34 575 -34 m 478 165 q 585 212 542 165 q 629 325 629 260 l 629 827 q 585 940 629 893 q 478 988 542 988 q 370 941 413 988 q 327 827 327 895 l 327 325 q 370 211 327 258 q 478 165 413 165 m 478 1375 l 688 1442 l 688 1341 l 478 1238 l 270 1341 l 270 1442 l 478 1375 z "},"ô":{"ha":956,"x_min":129,"x_max":827,"o":"m 478 -34 q 301 14 381 -34 q 175 143 220 62 q 129 321 129 224 l 129 831 q 175 1010 129 929 q 301 1139 220 1091 q 478 1187 381 1187 q 655 1139 575 1187 q 781 1010 734 1091 q 827 831 827 929 l 827 321 q 781 143 827 224 q 655 14 734 62 q 478 -34 575 -34 m 478 165 q 585 212 542 165 q 629 325 629 260 l 629 827 q 585 940 629 893 q 478 988 542 988 q 370 941 413 988 q 327 827 327 895 l 327 325 q 370 211 327 258 q 478 165 413 165 m 272 1367 l 476 1468 l 683 1367 l 683 1268 l 476 1333 l 272 1268 l 272 1367 z "},"ố":{"ha":956,"x_min":129,"x_max":911,"o":"m 478 -34 q 301 14 381 -34 q 175 143 220 62 q 129 321 129 224 l 129 831 q 175 1010 129 929 q 301 1139 220 1091 q 478 1187 381 1187 q 655 1139 575 1187 q 781 1010 734 1091 q 827 831 827 929 l 827 321 q 781 143 827 224 q 655 14 734 62 q 478 -34 575 -34 m 478 165 q 585 212 542 165 q 629 325 629 260 l 629 827 q 585 940 629 893 q 478 988 542 988 q 370 941 413 988 q 327 827 327 895 l 327 325 q 370 211 327 258 q 478 165 413 165 z "},"ộ":{"ha":956,"x_min":129,"x_max":827,"o":"m 478 -34 q 301 14 381 -34 q 175 143 220 62 q 129 321 129 224 l 129 831 q 175 1010 129 929 q 301 1139 220 1091 q 478 1187 381 1187 q 655 1139 575 1187 q 781 1010 734 1091 q 827 831 827 929 l 827 321 q 781 143 827 224 q 655 14 734 62 q 478 -34 575 -34 m 478 165 q 585 212 542 165 q 629 325 629 260 l 629 827 q 585 940 629 893 q 478 988 542 988 q 370 941 413 988 q 327 827 327 895 l 327 325 q 370 211 327 258 q 478 165 413 165 m 462 -288 q 400 -262 425 -288 q 375 -200 375 -236 q 400 -139 375 -165 q 462 -113 425 -113 q 524 -139 498 -113 q 550 -200 550 -165 q 524 -262 550 -236 q 462 -288 498 -288 m 272 1367 l 476 1468 l 683 1367 l 683 1268 l 476 1333 l 272 1268 l 272 1367 z "},"ồ":{"ha":956,"x_min":129,"x_max":827,"o":"m 478 -34 q 301 14 381 -34 q 175 143 220 62 q 129 321 129 224 l 129 831 q 175 1010 129 929 q 301 1139 220 1091 q 478 1187 381 1187 q 655 1139 575 1187 q 781 1010 734 1091 q 827 831 827 929 l 827 321 q 781 143 827 224 q 655 14 734 62 q 478 -34 575 -34 m 478 165 q 585 212 542 165 q 629 325 629 260 l 629 827 q 585 940 629 893 q 478 988 542 988 q 370 941 413 988 q 327 827 327 895 l 327 325 q 370 211 327 258 q 478 165 413 165 z "},"ổ":{"ha":956,"x_min":129,"x_max":827,"o":"m 478 -34 q 301 14 381 -34 q 175 143 220 62 q 129 321 129 224 l 129 831 q 175 1010 129 929 q 301 1139 220 1091 q 478 1187 381 1187 q 655 1139 575 1187 q 781 1010 734 1091 q 827 831 827 929 l 827 321 q 781 143 827 224 q 655 14 734 62 q 478 -34 575 -34 m 478 165 q 585 212 542 165 q 629 325 629 260 l 629 827 q 585 940 629 893 q 478 988 542 988 q 370 941 413 988 q 327 827 327 895 l 327 325 q 370 211 327 258 q 478 165 413 165 z "},"ỗ":{"ha":956,"x_min":129,"x_max":827,"o":"m 478 -34 q 301 14 381 -34 q 175 143 220 62 q 129 321 129 224 l 129 831 q 175 1010 129 929 q 301 1139 220 1091 q 478 1187 381 1187 q 655 1139 575 1187 q 781 1010 734 1091 q 827 831 827 929 l 827 321 q 781 143 827 224 q 655 14 734 62 q 478 -34 575 -34 m 478 165 q 585 212 542 165 q 629 325 629 260 l 629 827 q 585 940 629 893 q 478 988 542 988 q 370 941 413 988 q 327 827 327 895 l 327 325 q 370 211 327 258 q 478 165 413 165 z "},"ö":{"ha":956,"x_min":129,"x_max":827,"o":"m 478 -34 q 301 14 381 -34 q 175 143 220 62 q 129 321 129 224 l 129 831 q 175 1010 129 929 q 301 1139 220 1091 q 478 1187 381 1187 q 655 1139 575 1187 q 781 1010 734 1091 q 827 831 827 929 l 827 321 q 781 143 827 224 q 655 14 734 62 q 478 -34 575 -34 m 478 165 q 585 212 542 165 q 629 325 629 260 l 629 827 q 585 940 629 893 q 478 988 542 988 q 370 941 413 988 q 327 827 327 895 l 327 325 q 370 211 327 258 q 478 165 413 165 m 325 1272 q 263 1298 288 1272 q 238 1359 238 1323 q 263 1421 238 1395 q 325 1446 288 1446 q 387 1421 361 1446 q 413 1359 413 1395 q 387 1298 413 1323 q 325 1272 361 1272 m 631 1272 q 568 1298 593 1272 q 544 1359 544 1323 q 568 1421 544 1395 q 631 1446 593 1446 q 692 1421 667 1446 q 718 1359 718 1395 q 692 1298 718 1323 q 631 1272 667 1272 z "},"ọ":{"ha":956,"x_min":129,"x_max":827,"o":"m 478 -34 q 301 14 381 -34 q 175 143 220 62 q 129 321 129 224 l 129 831 q 175 1010 129 929 q 301 1139 220 1091 q 478 1187 381 1187 q 655 1139 575 1187 q 781 1010 734 1091 q 827 831 827 929 l 827 321 q 781 143 827 224 q 655 14 734 62 q 478 -34 575 -34 m 478 165 q 585 212 542 165 q 629 325 629 260 l 629 827 q 585 940 629 893 q 478 988 542 988 q 370 941 413 988 q 327 827 327 895 l 327 325 q 370 211 327 258 q 478 165 413 165 m 462 -288 q 400 -262 425 -288 q 375 -200 375 -236 q 400 -139 375 -165 q 462 -113 425 -113 q 524 -139 498 -113 q 550 -200 550 -165 q 524 -262 550 -236 q 462 -288 498 -288 z "},"ò":{"ha":956,"x_min":129,"x_max":827,"o":"m 478 -34 q 301 14 381 -34 q 175 143 220 62 q 129 321 129 224 l 129 831 q 175 1010 129 929 q 301 1139 220 1091 q 478 1187 381 1187 q 655 1139 575 1187 q 781 1010 734 1091 q 827 831 827 929 l 827 321 q 781 143 827 224 q 655 14 734 62 q 478 -34 575 -34 m 478 165 q 585 212 542 165 q 629 325 629 260 l 629 827 q 585 940 629 893 q 478 988 542 988 q 370 941 413 988 q 327 827 327 895 l 327 325 q 370 211 327 258 q 478 165 413 165 m 319 1409 l 391 1516 l 637 1339 l 585 1266 l 319 1409 z "},"ỏ":{"ha":956,"x_min":129,"x_max":827,"o":"m 478 -34 q 301 14 381 -34 q 175 143 220 62 q 129 321 129 224 l 129 831 q 175 1010 129 929 q 301 1139 220 1091 q 478 1187 381 1187 q 655 1139 575 1187 q 781 1010 734 1091 q 827 831 827 929 l 827 321 q 781 143 827 224 q 655 14 734 62 q 478 -34 575 -34 m 478 165 q 585 212 542 165 q 629 325 629 260 l 629 827 q 585 940 629 893 q 478 988 542 988 q 370 941 413 988 q 327 827 327 895 l 327 325 q 370 211 327 258 q 478 165 413 165 m 433 1379 q 513 1397 486 1379 q 540 1444 540 1415 q 521 1481 540 1466 q 472 1496 502 1496 q 413 1480 442 1496 l 413 1567 q 484 1587 438 1587 q 585 1554 538 1587 q 641 1460 633 1520 q 614 1361 647 1405 q 522 1306 581 1317 l 522 1268 l 433 1268 l 433 1379 z "},"ơ":{"ha":956,"x_min":129,"x_max":861,"o":"m 861 1214 q 762 1042 841 1097 q 827 831 827 948 l 827 321 q 781 143 827 224 q 655 14 734 62 q 478 -34 575 -34 q 301 14 381 -34 q 175 143 220 62 q 129 321 129 224 l 129 831 q 175 1010 129 929 q 301 1139 220 1091 q 478 1187 381 1187 q 639 1147 565 1187 q 685 1214 673 1169 l 861 1214 m 629 827 q 585 940 629 893 q 478 988 542 988 q 370 941 413 988 q 327 827 327 895 l 327 325 q 370 211 327 258 q 478 165 413 165 q 585 212 542 165 q 629 325 629 260 l 629 827 z "},"ớ":{"ha":956,"x_min":129,"x_max":861,"o":"m 861 1214 q 762 1042 841 1097 q 827 831 827 948 l 827 321 q 781 143 827 224 q 655 14 734 62 q 478 -34 575 -34 q 301 14 381 -34 q 175 143 220 62 q 129 321 129 224 l 129 831 q 175 1010 129 929 q 301 1139 220 1091 q 478 1187 381 1187 q 639 1147 565 1187 q 685 1214 673 1169 l 861 1214 m 629 827 q 585 940 629 893 q 478 988 542 988 q 370 941 413 988 q 327 827 327 895 l 327 325 q 370 211 327 258 q 478 165 413 165 q 585 212 542 165 q 629 325 629 260 l 629 827 m 319 1339 l 565 1516 l 637 1409 l 371 1266 l 319 1339 z "},"ợ":{"ha":956,"x_min":129,"x_max":861,"o":"m 861 1214 q 762 1042 841 1097 q 827 831 827 948 l 827 321 q 781 143 827 224 q 655 14 734 62 q 478 -34 575 -34 q 301 14 381 -34 q 175 143 220 62 q 129 321 129 224 l 129 831 q 175 1010 129 929 q 301 1139 220 1091 q 478 1187 381 1187 q 639 1147 565 1187 q 685 1214 673 1169 l 861 1214 m 629 827 q 585 940 629 893 q 478 988 542 988 q 370 941 413 988 q 327 827 327 895 l 327 325 q 370 211 327 258 q 478 165 413 165 q 585 212 542 165 q 629 325 629 260 l 629 827 m 462 -288 q 400 -262 425 -288 q 375 -200 375 -236 q 400 -139 375 -165 q 462 -113 425 -113 q 524 -139 498 -113 q 550 -200 550 -165 q 524 -262 550 -236 q 462 -288 498 -288 z "},"ờ":{"ha":956,"x_min":129,"x_max":861,"o":"m 861 1214 q 762 1042 841 1097 q 827 831 827 948 l 827 321 q 781 143 827 224 q 655 14 734 62 q 478 -34 575 -34 q 301 14 381 -34 q 175 143 220 62 q 129 321 129 224 l 129 831 q 175 1010 129 929 q 301 1139 220 1091 q 478 1187 381 1187 q 639 1147 565 1187 q 685 1214 673 1169 l 861 1214 m 629 827 q 585 940 629 893 q 478 988 542 988 q 370 941 413 988 q 327 827 327 895 l 327 325 q 370 211 327 258 q 478 165 413 165 q 585 212 542 165 q 629 325 629 260 l 629 827 m 319 1409 l 391 1516 l 637 1339 l 585 1266 l 319 1409 z "},"ở":{"ha":956,"x_min":129,"x_max":861,"o":"m 861 1214 q 762 1042 841 1097 q 827 831 827 948 l 827 321 q 781 143 827 224 q 655 14 734 62 q 478 -34 575 -34 q 301 14 381 -34 q 175 143 220 62 q 129 321 129 224 l 129 831 q 175 1010 129 929 q 301 1139 220 1091 q 478 1187 381 1187 q 639 1147 565 1187 q 685 1214 673 1169 l 861 1214 m 629 827 q 585 940 629 893 q 478 988 542 988 q 370 941 413 988 q 327 827 327 895 l 327 325 q 370 211 327 258 q 478 165 413 165 q 585 212 542 165 q 629 325 629 260 l 629 827 m 433 1379 q 513 1397 486 1379 q 540 1444 540 1415 q 521 1481 540 1466 q 472 1496 502 1496 q 413 1480 442 1496 l 413 1567 q 484 1587 438 1587 q 585 1554 538 1587 q 641 1460 633 1520 q 614 1361 647 1405 q 522 1306 581 1317 l 522 1268 l 433 1268 l 433 1379 z "},"ỡ":{"ha":956,"x_min":129,"x_max":861,"o":"m 480 1278 q 389 1254 427 1254 q 331 1270 345 1254 q 315 1288 317 1286 l 315 1393 q 397 1363 353 1363 q 474 1381 431 1363 q 569 1403 532 1403 q 620 1392 605 1403 q 637 1379 635 1381 l 639 1272 q 567 1300 617 1300 q 480 1278 530 1300 m 861 1214 q 762 1042 841 1097 q 827 831 827 948 l 827 321 q 781 143 827 224 q 655 14 734 62 q 478 -34 575 -34 q 301 14 381 -34 q 175 143 220 62 q 129 321 129 224 l 129 831 q 175 1010 129 929 q 301 1139 220 1091 q 478 1187 381 1187 q 639 1147 565 1187 q 685 1214 673 1169 l 861 1214 m 629 827 q 585 940 629 893 q 478 988 542 988 q 370 941 413 988 q 327 827 327 895 l 327 325 q 370 211 327 258 q 478 165 413 165 q 585 212 542 165 q 629 325 629 260 l 629 827 z "},"ő":{"ha":956,"x_min":129,"x_max":883,"o":"m 478 -34 q 301 14 381 -34 q 175 143 220 62 q 129 321 129 224 l 129 831 q 175 1010 129 929 q 301 1139 220 1091 q 478 1187 381 1187 q 655 1139 575 1187 q 781 1010 734 1091 q 827 831 827 929 l 827 321 q 781 143 827 224 q 655 14 734 62 q 478 -34 575 -34 m 478 165 q 585 212 542 165 q 629 325 629 260 l 629 827 q 585 940 629 893 q 478 988 542 988 q 370 941 413 988 q 327 827 327 895 l 327 325 q 370 211 327 258 q 478 165 413 165 m 583 1321 l 796 1538 l 883 1444 l 647 1258 l 583 1321 m 264 1319 l 476 1536 l 563 1442 l 327 1256 l 264 1319 z "},"ō":{"ha":956,"x_min":129,"x_max":827,"o":"m 478 -34 q 301 14 381 -34 q 175 143 220 62 q 129 321 129 224 l 129 831 q 175 1010 129 929 q 301 1139 220 1091 q 478 1187 381 1187 q 655 1139 575 1187 q 781 1010 734 1091 q 827 831 827 929 l 827 321 q 781 143 827 224 q 655 14 734 62 q 478 -34 575 -34 m 478 165 q 585 212 542 165 q 629 325 629 260 l 629 827 q 585 940 629 893 q 478 988 542 988 q 370 941 413 988 q 327 827 327 895 l 327 325 q 370 211 327 258 q 478 165 413 165 m 264 1393 l 692 1393 l 692 1276 l 264 1276 l 264 1393 z "},"ø":{"ha":956,"x_min":129,"x_max":827,"o":"m 756 1050 q 827 831 827 952 l 827 321 q 781 143 827 224 q 655 14 734 62 q 478 -34 575 -34 q 341 -6 407 -34 l 327 -42 l 141 -42 l 198 105 q 129 321 129 200 l 129 831 q 175 1010 129 929 q 301 1139 220 1091 q 478 1187 381 1187 q 613 1161 546 1187 l 627 1196 l 813 1196 l 756 1050 m 327 433 l 540 974 q 478 988 514 988 q 370 941 413 988 q 327 827 327 895 l 327 433 m 478 165 q 585 212 542 165 q 629 325 629 260 l 629 726 l 415 179 q 478 165 446 165 z "},"õ":{"ha":956,"x_min":129,"x_max":827,"o":"m 478 -34 q 301 14 381 -34 q 175 143 220 62 q 129 321 129 224 l 129 831 q 175 1010 129 929 q 301 1139 220 1091 q 478 1187 381 1187 q 655 1139 575 1187 q 781 1010 734 1091 q 827 831 827 929 l 827 321 q 781 143 827 224 q 655 14 734 62 q 478 -34 575 -34 m 478 165 q 585 212 542 165 q 629 325 629 260 l 629 827 q 585 940 629 893 q 478 988 542 988 q 370 941 413 988 q 327 827 327 895 l 327 325 q 370 211 327 258 q 478 165 413 165 m 685 1278 q 593 1308 649 1308 q 480 1284 542 1308 q 361 1258 409 1258 q 290 1275 308 1258 q 270 1294 272 1292 l 270 1405 q 375 1373 317 1373 q 474 1393 417 1373 q 593 1417 544 1417 q 662 1404 643 1417 q 683 1389 681 1391 l 685 1278 z "},"œ":{"ha":1476,"x_min":129,"x_max":1351,"o":"m 889 954 l 889 718 l 1125 718 l 1125 518 l 889 518 l 889 202 l 1351 202 l 1351 0 l 724 0 l 724 67 q 612 -7 675 20 q 478 -34 550 -34 q 301 14 381 -34 q 175 143 220 62 q 129 321 129 224 l 129 831 q 175 1010 129 929 q 301 1139 220 1091 q 478 1187 381 1187 q 612 1160 550 1187 q 724 1085 675 1133 l 724 1157 l 1351 1157 l 1351 954 l 889 954 m 629 827 q 585 940 629 893 q 478 988 542 988 q 370 941 413 988 q 327 827 327 895 l 327 325 q 370 211 327 258 q 478 165 413 165 q 585 212 542 165 q 629 325 629 260 l 629 827 z "},"p":{"ha":958,"x_min":133,"x_max":857,"o":"m 530 1157 q 695 1113 621 1157 q 813 995 770 1069 q 857 833 857 921 q 813 671 857 744 q 692 554 768 597 q 530 510 617 510 l 323 510 l 323 0 l 133 0 l 133 1157 l 530 1157 m 524 700 q 624 739 589 700 q 659 833 659 778 q 624 926 659 887 q 524 964 589 964 l 323 964 l 323 700 l 524 700 z "},"q":{"ha":976,"x_min":129,"x_max":895,"o":"m 794 -81 l 681 16 q 488 -40 593 -40 q 309 9 391 -40 q 178 140 226 58 q 129 319 129 222 l 129 831 q 178 1011 129 929 q 309 1142 226 1093 q 488 1190 391 1190 q 668 1142 585 1190 q 798 1011 750 1093 q 845 831 845 929 l 845 319 q 792 129 845 216 l 895 40 l 794 -81 m 488 153 q 600 200 554 153 q 647 313 647 248 l 647 835 q 600 949 647 903 q 488 996 554 996 q 374 949 421 996 q 327 835 327 903 l 327 313 q 374 200 327 248 q 488 153 421 153 z "},"r":{"ha":994,"x_min":133,"x_max":919,"o":"m 522 514 l 323 514 l 323 0 l 133 0 l 133 1157 l 530 1157 q 688 1111 617 1157 q 802 990 760 1065 q 843 827 843 915 q 807 675 843 744 q 704 563 770 605 l 919 0 l 718 0 l 522 514 m 323 700 l 530 700 q 616 739 581 700 q 651 827 651 778 q 615 922 651 879 q 530 964 579 964 l 323 964 l 323 700 z "},"ŕ":{"ha":994,"x_min":133,"x_max":919,"o":"m 522 514 l 323 514 l 323 0 l 133 0 l 133 1157 l 530 1157 q 688 1111 617 1157 q 802 990 760 1065 q 843 827 843 915 q 807 675 843 744 q 704 563 770 605 l 919 0 l 718 0 l 522 514 m 323 700 l 530 700 q 616 739 581 700 q 651 827 651 778 q 615 922 651 879 q 530 964 579 964 l 323 964 l 323 700 m 313 1323 l 560 1500 l 631 1393 l 365 1250 l 313 1323 z "},"ř":{"ha":994,"x_min":133,"x_max":919,"o":"m 522 514 l 323 514 l 323 0 l 133 0 l 133 1157 l 530 1157 q 688 1111 617 1157 q 802 990 760 1065 q 843 827 843 915 q 807 675 843 744 q 704 563 770 605 l 919 0 l 718 0 l 522 514 m 323 700 l 530 700 q 616 739 581 700 q 651 827 651 778 q 615 922 651 879 q 530 964 579 964 l 323 964 l 323 700 m 472 1379 l 683 1446 l 683 1345 l 472 1242 l 264 1345 l 264 1446 l 472 1379 z "},"ŗ":{"ha":994,"x_min":133,"x_max":919,"o":"m 522 514 l 323 514 l 323 0 l 133 0 l 133 1157 l 530 1157 q 688 1111 617 1157 q 802 990 760 1065 q 843 827 843 915 q 807 675 843 744 q 704 563 770 605 l 919 0 l 718 0 l 522 514 m 323 700 l 530 700 q 616 739 581 700 q 651 827 651 778 q 615 922 651 879 q 530 964 579 964 l 323 964 l 323 700 m 563 -192 q 521 -285 562 -246 q 438 -329 480 -323 q 458 -254 452 -298 q 420 -223 435 -244 q 405 -177 405 -202 q 429 -121 405 -145 q 484 -97 452 -97 q 540 -121 516 -97 q 563 -177 563 -145 l 563 -183 l 563 -192 z "},"s":{"ha":958,"x_min":113,"x_max":833,"o":"m 468 -30 q 287 19 369 -30 q 159 152 204 67 q 115 341 113 236 l 308 341 q 355 211 308 260 q 476 163 403 163 q 590 202 542 163 q 639 321 639 242 q 592 422 639 377 q 440 522 546 466 q 296 609 351 569 q 199 712 240 649 q 159 865 159 776 q 202 1025 159 950 q 318 1144 246 1099 q 476 1188 391 1188 q 638 1148 563 1188 q 755 1038 712 1107 q 798 887 798 968 l 605 887 q 566 964 605 931 q 476 998 528 998 q 392 957 429 998 q 355 865 355 917 q 396 779 355 815 q 542 685 437 742 q 688 594 629 637 q 791 485 748 552 q 833 329 833 419 q 786 143 833 224 q 656 16 738 62 q 468 -30 573 -30 z "},"ś":{"ha":958,"x_min":113,"x_max":833,"o":"m 468 -30 q 287 19 369 -30 q 159 152 204 67 q 115 341 113 236 l 308 341 q 355 211 308 260 q 476 163 403 163 q 590 202 542 163 q 639 321 639 242 q 592 422 639 377 q 440 522 546 466 q 296 609 351 569 q 199 712 240 649 q 159 865 159 776 q 202 1025 159 950 q 318 1144 246 1099 q 476 1188 391 1188 q 638 1148 563 1188 q 755 1038 712 1107 q 798 887 798 968 l 605 887 q 566 964 605 931 q 476 998 528 998 q 392 957 429 998 q 355 865 355 917 q 396 779 355 815 q 542 685 437 742 q 688 594 629 637 q 791 485 748 552 q 833 329 833 419 q 786 143 833 224 q 656 16 738 62 q 468 -30 573 -30 m 317 1341 l 563 1518 l 635 1411 l 369 1268 l 317 1341 z "},"š":{"ha":958,"x_min":113,"x_max":833,"o":"m 468 -30 q 287 19 369 -30 q 159 152 204 67 q 115 341 113 236 l 308 341 q 355 211 308 260 q 476 163 403 163 q 590 202 542 163 q 639 321 639 242 q 592 422 639 377 q 440 522 546 466 q 296 609 351 569 q 199 712 240 649 q 159 865 159 776 q 202 1025 159 950 q 318 1144 246 1099 q 476 1188 391 1188 q 638 1148 563 1188 q 755 1038 712 1107 q 798 887 798 968 l 605 887 q 566 964 605 931 q 476 998 528 998 q 392 957 429 998 q 355 865 355 917 q 396 779 355 815 q 542 685 437 742 q 688 594 629 637 q 791 485 748 552 q 833 329 833 419 q 786 143 833 224 q 656 16 738 62 q 468 -30 573 -30 m 476 1397 l 687 1464 l 687 1363 l 476 1260 l 268 1363 l 268 1464 l 476 1397 z "},"ş":{"ha":958,"x_min":113,"x_max":833,"o":"m 833 329 q 758 102 833 196 q 560 -20 683 8 l 508 -65 q 550 -114 536 -83 q 563 -179 563 -145 q 520 -281 563 -240 q 405 -321 476 -321 q 353 -315 379 -321 l 353 -210 q 383 -212 363 -212 q 431 -200 415 -212 q 446 -169 446 -188 q 421 -119 446 -143 q 353 -87 395 -95 l 417 -26 q 198 94 284 -8 q 115 341 113 196 l 308 341 q 355 211 308 260 q 476 163 403 163 q 590 202 542 163 q 639 321 639 242 q 592 422 639 377 q 440 522 546 466 q 296 609 351 569 q 199 712 240 649 q 159 865 159 776 q 202 1025 159 950 q 318 1144 246 1099 q 476 1188 391 1188 q 638 1148 563 1188 q 755 1038 712 1107 q 798 887 798 968 l 605 887 q 566 964 605 931 q 476 998 528 998 q 392 957 429 998 q 355 865 355 917 q 396 779 355 815 q 542 685 437 742 q 688 594 629 637 q 791 485 748 552 q 833 329 833 419 z "},"ș":{"ha":958,"x_min":113,"x_max":833,"o":"m 468 -30 q 287 19 369 -30 q 159 152 204 67 q 115 341 113 236 l 308 341 q 355 211 308 260 q 476 163 403 163 q 590 202 542 163 q 639 321 639 242 q 592 422 639 377 q 440 522 546 466 q 296 609 351 569 q 199 712 240 649 q 159 865 159 776 q 202 1025 159 950 q 318 1144 246 1099 q 476 1188 391 1188 q 638 1148 563 1188 q 755 1038 712 1107 q 798 887 798 968 l 605 887 q 566 964 605 931 q 476 998 528 998 q 392 957 429 998 q 355 865 355 917 q 396 779 355 815 q 542 685 437 742 q 688 594 629 637 q 791 485 748 552 q 833 329 833 419 q 786 143 833 224 q 656 16 738 62 q 468 -30 573 -30 m 532 -208 q 489 -301 530 -262 q 407 -345 448 -339 q 427 -270 421 -313 q 388 -239 403 -260 q 373 -192 373 -218 q 397 -137 373 -161 q 452 -113 421 -113 q 508 -137 484 -113 q 532 -192 532 -161 l 532 -198 l 532 -208 z "},"ß":{"ha":1881,"x_min":113,"x_max":1756,"o":"m 468 -30 q 287 19 369 -30 q 159 152 204 67 q 115 341 113 236 l 308 341 q 355 211 308 260 q 476 163 403 163 q 590 202 542 163 q 639 321 639 242 q 592 422 639 377 q 440 522 546 466 q 296 609 351 569 q 199 712 240 649 q 159 865 159 776 q 202 1025 159 950 q 318 1144 246 1099 q 476 1188 391 1188 q 638 1148 563 1188 q 755 1038 712 1107 q 798 887 798 968 l 605 887 q 566 964 605 931 q 476 998 528 998 q 392 957 429 998 q 355 865 355 917 q 396 779 355 815 q 542 685 437 742 q 688 594 629 637 q 791 485 748 552 q 833 329 833 419 q 786 143 833 224 q 656 16 738 62 q 468 -30 573 -30 m 1391 -30 q 1209 19 1292 -30 q 1081 152 1127 67 q 1038 341 1036 236 l 1230 341 q 1278 211 1230 260 q 1399 163 1325 163 q 1513 202 1464 163 q 1562 321 1562 242 q 1515 422 1562 377 q 1363 522 1468 466 q 1218 609 1274 569 q 1122 712 1163 649 q 1081 865 1081 776 q 1125 1025 1081 950 q 1241 1144 1169 1099 q 1399 1188 1313 1188 q 1561 1148 1486 1188 q 1678 1038 1635 1107 q 1720 887 1720 968 l 1528 887 q 1489 964 1528 931 q 1399 998 1450 998 q 1314 957 1351 998 q 1278 865 1278 917 q 1318 779 1278 815 q 1464 685 1359 742 q 1611 594 1552 637 q 1713 485 1671 552 q 1756 329 1756 419 q 1708 143 1756 224 q 1578 16 1661 62 q 1391 -30 1496 -30 z "},"t":{"ha":1062,"x_min":91,"x_max":970,"o":"m 970 964 l 627 964 l 627 0 l 435 0 l 435 964 l 91 964 l 91 1157 l 970 1157 l 970 964 z "},"ŧ":{"ha":1062,"x_min":91,"x_max":970,"o":"m 627 964 l 627 702 l 804 702 l 804 508 l 627 508 l 627 0 l 435 0 l 435 508 l 254 508 l 254 702 l 435 702 l 435 964 l 91 964 l 91 1157 l 970 1157 l 970 964 l 627 964 z "},"ť":{"ha":1250,"x_min":91,"x_max":1234,"o":"m 970 964 l 627 964 l 627 0 l 435 0 l 435 964 l 91 964 l 91 1157 l 970 1157 l 970 964 m 1234 1071 q 1191 979 1232 1018 q 1109 935 1151 940 q 1129 1010 1123 966 q 1090 1041 1105 1020 q 1075 1087 1075 1062 q 1099 1143 1075 1119 q 1155 1167 1123 1167 q 1210 1143 1187 1167 q 1234 1087 1234 1119 l 1234 1081 l 1234 1071 z "},"ţ":{"ha":1062,"x_min":91,"x_max":970,"o":"m 970 964 l 627 964 l 627 0 l 435 0 l 435 964 l 91 964 l 91 1157 l 970 1157 l 970 964 m 415 -194 q 444 -196 425 -196 q 492 -185 476 -196 q 508 -153 508 -173 q 482 -103 508 -127 q 415 -71 456 -79 l 488 0 l 625 0 l 569 -50 q 611 -98 597 -67 q 625 -163 625 -129 q 581 -265 625 -224 q 466 -306 538 -306 q 415 -300 442 -306 l 415 -194 z "},"ț":{"ha":1062,"x_min":91,"x_max":970,"o":"m 970 964 l 627 964 l 627 0 l 435 0 l 435 964 l 91 964 l 91 1157 l 970 1157 l 970 964 m 593 -192 q 551 -285 591 -246 q 468 -329 510 -323 q 488 -254 482 -298 q 449 -223 464 -244 q 435 -177 435 -202 q 458 -121 435 -145 q 514 -97 482 -97 q 569 -121 546 -97 q 593 -177 593 -145 l 593 -183 l 593 -192 z "},"u":{"ha":970,"x_min":129,"x_max":841,"o":"m 488 -34 q 305 14 387 -34 q 176 143 222 62 q 129 321 129 224 l 129 1157 l 321 1157 l 321 327 q 370 205 321 256 q 486 155 419 155 q 602 204 556 155 q 649 327 649 254 l 649 1157 l 841 1157 l 841 321 q 794 141 841 222 q 666 13 746 60 q 488 -34 585 -34 z "},"ú":{"ha":970,"x_min":129,"x_max":841,"o":"m 488 -34 q 305 14 387 -34 q 176 143 222 62 q 129 321 129 224 l 129 1157 l 321 1157 l 321 327 q 370 205 321 256 q 486 155 419 155 q 602 204 556 155 q 649 327 649 254 l 649 1157 l 841 1157 l 841 321 q 794 141 841 222 q 666 13 746 60 q 488 -34 585 -34 m 329 1323 l 575 1500 l 647 1393 l 381 1250 l 329 1323 z "},"ǔ":{"ha":970,"x_min":129,"x_max":841,"o":"m 488 -34 q 305 14 387 -34 q 176 143 222 62 q 129 321 129 224 l 129 1157 l 321 1157 l 321 327 q 370 205 321 256 q 486 155 419 155 q 602 204 556 155 q 649 327 649 254 l 649 1157 l 841 1157 l 841 321 q 794 141 841 222 q 666 13 746 60 q 488 -34 585 -34 m 488 1379 l 698 1446 l 698 1345 l 488 1242 l 280 1345 l 280 1446 l 488 1379 z "},"û":{"ha":970,"x_min":129,"x_max":841,"o":"m 488 -34 q 305 14 387 -34 q 176 143 222 62 q 129 321 129 224 l 129 1157 l 321 1157 l 321 327 q 370 205 321 256 q 486 155 419 155 q 602 204 556 155 q 649 327 649 254 l 649 1157 l 841 1157 l 841 321 q 794 141 841 222 q 666 13 746 60 q 488 -34 585 -34 m 282 1351 l 486 1452 l 692 1351 l 692 1252 l 486 1317 l 282 1252 l 282 1351 z "},"ü":{"ha":970,"x_min":129,"x_max":841,"o":"m 488 -34 q 305 14 387 -34 q 176 143 222 62 q 129 321 129 224 l 129 1157 l 321 1157 l 321 327 q 370 205 321 256 q 486 155 419 155 q 602 204 556 155 q 649 327 649 254 l 649 1157 l 841 1157 l 841 321 q 794 141 841 222 q 666 13 746 60 q 488 -34 585 -34 m 335 1256 q 273 1282 298 1256 q 248 1343 248 1308 q 273 1405 248 1379 q 335 1431 298 1431 q 397 1405 371 1431 q 423 1343 423 1379 q 397 1282 423 1308 q 335 1256 371 1256 m 641 1256 q 578 1282 603 1256 q 554 1343 554 1308 q 578 1405 554 1379 q 641 1431 603 1431 q 702 1405 677 1431 q 728 1343 728 1379 q 702 1282 728 1308 q 641 1256 677 1256 z "},"ǘ":{"ha":970,"x_min":129,"x_max":841,"o":"m 488 -34 q 305 14 387 -34 q 176 143 222 62 q 129 321 129 224 l 129 1157 l 321 1157 l 321 327 q 370 205 321 256 q 486 155 419 155 q 602 204 556 155 q 649 327 649 254 l 649 1157 l 841 1157 l 841 321 q 794 141 841 222 q 666 13 746 60 q 488 -34 585 -34 z "},"ǚ":{"ha":970,"x_min":129,"x_max":841,"o":"m 488 -34 q 305 14 387 -34 q 176 143 222 62 q 129 321 129 224 l 129 1157 l 321 1157 l 321 327 q 370 205 321 256 q 486 155 419 155 q 602 204 556 155 q 649 327 649 254 l 649 1157 l 841 1157 l 841 321 q 794 141 841 222 q 666 13 746 60 q 488 -34 585 -34 z "},"ǜ":{"ha":970,"x_min":129,"x_max":841,"o":"m 488 -34 q 305 14 387 -34 q 176 143 222 62 q 129 321 129 224 l 129 1157 l 321 1157 l 321 327 q 370 205 321 256 q 486 155 419 155 q 602 204 556 155 q 649 327 649 254 l 649 1157 l 841 1157 l 841 321 q 794 141 841 222 q 666 13 746 60 q 488 -34 585 -34 z "},"ǖ":{"ha":970,"x_min":129,"x_max":841,"o":"m 488 -34 q 305 14 387 -34 q 176 143 222 62 q 129 321 129 224 l 129 1157 l 321 1157 l 321 327 q 370 205 321 256 q 486 155 419 155 q 602 204 556 155 q 649 327 649 254 l 649 1157 l 841 1157 l 841 321 q 794 141 841 222 q 666 13 746 60 q 488 -34 585 -34 z "},"ụ":{"ha":970,"x_min":129,"x_max":841,"o":"m 488 -34 q 305 14 387 -34 q 176 143 222 62 q 129 321 129 224 l 129 1157 l 321 1157 l 321 327 q 370 205 321 256 q 486 155 419 155 q 602 204 556 155 q 649 327 649 254 l 649 1157 l 841 1157 l 841 321 q 794 141 841 222 q 666 13 746 60 q 488 -34 585 -34 m 472 -288 q 410 -262 435 -288 q 385 -200 385 -236 q 410 -139 385 -165 q 472 -113 435 -113 q 534 -139 508 -113 q 560 -200 560 -165 q 534 -262 560 -236 q 472 -288 508 -288 z "},"ù":{"ha":970,"x_min":129,"x_max":841,"o":"m 488 -34 q 305 14 387 -34 q 176 143 222 62 q 129 321 129 224 l 129 1157 l 321 1157 l 321 327 q 370 205 321 256 q 486 155 419 155 q 602 204 556 155 q 649 327 649 254 l 649 1157 l 841 1157 l 841 321 q 794 141 841 222 q 666 13 746 60 q 488 -34 585 -34 m 329 1393 l 401 1500 l 647 1323 l 595 1250 l 329 1393 z "},"ủ":{"ha":970,"x_min":129,"x_max":841,"o":"m 488 -34 q 305 14 387 -34 q 176 143 222 62 q 129 321 129 224 l 129 1157 l 321 1157 l 321 327 q 370 205 321 256 q 486 155 419 155 q 602 204 556 155 q 649 327 649 254 l 649 1157 l 841 1157 l 841 321 q 794 141 841 222 q 666 13 746 60 q 488 -34 585 -34 m 442 1363 q 523 1381 496 1363 q 550 1429 550 1399 q 531 1465 550 1450 q 482 1480 512 1480 q 423 1464 452 1480 l 423 1552 q 494 1571 448 1571 q 595 1538 548 1571 q 651 1444 643 1504 q 624 1345 657 1389 q 532 1290 591 1302 l 532 1252 l 442 1252 l 442 1363 z "},"ư":{"ha":970,"x_min":129,"x_max":998,"o":"m 998 1244 q 942 1111 984 1161 q 841 1042 901 1062 l 841 321 q 794 141 841 222 q 666 13 746 60 q 488 -34 585 -34 q 305 14 387 -34 q 176 143 222 62 q 129 321 129 224 l 129 1157 l 321 1157 l 321 327 q 370 205 321 256 q 486 155 419 155 q 602 204 556 155 q 649 327 649 254 l 649 1157 l 706 1157 q 782 1181 754 1161 q 821 1244 810 1200 l 998 1244 z "},"ứ":{"ha":970,"x_min":129,"x_max":998,"o":"m 998 1244 q 942 1111 984 1161 q 841 1042 901 1062 l 841 321 q 794 141 841 222 q 666 13 746 60 q 488 -34 585 -34 q 305 14 387 -34 q 176 143 222 62 q 129 321 129 224 l 129 1157 l 321 1157 l 321 327 q 370 205 321 256 q 486 155 419 155 q 602 204 556 155 q 649 327 649 254 l 649 1157 l 706 1157 q 782 1181 754 1161 q 821 1244 810 1200 l 998 1244 m 329 1323 l 575 1500 l 647 1393 l 381 1250 l 329 1323 z "},"ự":{"ha":970,"x_min":129,"x_max":998,"o":"m 998 1244 q 942 1111 984 1161 q 841 1042 901 1062 l 841 321 q 794 141 841 222 q 666 13 746 60 q 488 -34 585 -34 q 305 14 387 -34 q 176 143 222 62 q 129 321 129 224 l 129 1157 l 321 1157 l 321 327 q 370 205 321 256 q 486 155 419 155 q 602 204 556 155 q 649 327 649 254 l 649 1157 l 706 1157 q 782 1181 754 1161 q 821 1244 810 1200 l 998 1244 m 472 -288 q 410 -262 435 -288 q 385 -200 385 -236 q 410 -139 385 -165 q 472 -113 435 -113 q 534 -139 508 -113 q 560 -200 560 -165 q 534 -262 560 -236 q 472 -288 508 -288 z "},"ừ":{"ha":970,"x_min":129,"x_max":998,"o":"m 998 1244 q 942 1111 984 1161 q 841 1042 901 1062 l 841 321 q 794 141 841 222 q 666 13 746 60 q 488 -34 585 -34 q 305 14 387 -34 q 176 143 222 62 q 129 321 129 224 l 129 1157 l 321 1157 l 321 327 q 370 205 321 256 q 486 155 419 155 q 602 204 556 155 q 649 327 649 254 l 649 1157 l 706 1157 q 782 1181 754 1161 q 821 1244 810 1200 l 998 1244 m 329 1393 l 401 1500 l 647 1323 l 595 1250 l 329 1393 z "},"ử":{"ha":970,"x_min":129,"x_max":998,"o":"m 998 1244 q 942 1111 984 1161 q 841 1042 901 1062 l 841 321 q 794 141 841 222 q 666 13 746 60 q 488 -34 585 -34 q 305 14 387 -34 q 176 143 222 62 q 129 321 129 224 l 129 1157 l 321 1157 l 321 327 q 370 205 321 256 q 486 155 419 155 q 602 204 556 155 q 649 327 649 254 l 649 1157 l 706 1157 q 782 1181 754 1161 q 821 1244 810 1200 l 998 1244 m 442 1363 q 523 1381 496 1363 q 550 1429 550 1399 q 531 1465 550 1450 q 482 1480 512 1480 q 423 1464 452 1480 l 423 1552 q 494 1571 448 1571 q 595 1538 548 1571 q 651 1444 643 1504 q 624 1345 657 1389 q 532 1290 591 1302 l 532 1252 l 442 1252 l 442 1363 z "},"ữ":{"ha":970,"x_min":129,"x_max":998,"o":"m 998 1244 q 942 1111 984 1161 q 841 1042 901 1062 l 841 321 q 794 141 841 222 q 666 13 746 60 q 488 -34 585 -34 q 305 14 387 -34 q 176 143 222 62 q 129 321 129 224 l 129 1157 l 321 1157 l 321 327 q 370 205 321 256 q 486 155 419 155 q 602 204 556 155 q 649 327 649 254 l 649 1157 l 706 1157 q 782 1181 754 1161 q 821 1244 810 1200 l 998 1244 m 694 1262 q 603 1292 659 1292 q 490 1268 552 1292 q 371 1242 419 1242 q 300 1259 317 1242 q 280 1278 282 1276 l 280 1389 q 385 1357 327 1357 q 484 1377 427 1357 q 603 1401 554 1401 q 672 1388 653 1401 q 692 1373 690 1375 l 694 1262 z "},"ű":{"ha":970,"x_min":129,"x_max":893,"o":"m 488 -34 q 305 14 387 -34 q 176 143 222 62 q 129 321 129 224 l 129 1157 l 321 1157 l 321 327 q 370 205 321 256 q 486 155 419 155 q 602 204 556 155 q 649 327 649 254 l 649 1157 l 841 1157 l 841 321 q 794 141 841 222 q 666 13 746 60 q 488 -34 585 -34 m 593 1306 l 806 1522 l 893 1429 l 657 1242 l 593 1306 m 274 1304 l 486 1520 l 573 1427 l 337 1240 l 274 1304 z "},"ū":{"ha":970,"x_min":129,"x_max":841,"o":"m 488 -34 q 305 14 387 -34 q 176 143 222 62 q 129 321 129 224 l 129 1157 l 321 1157 l 321 327 q 370 205 321 256 q 486 155 419 155 q 602 204 556 155 q 649 327 649 254 l 649 1157 l 841 1157 l 841 321 q 794 141 841 222 q 666 13 746 60 q 488 -34 585 -34 m 274 1377 l 702 1377 l 702 1260 l 274 1260 l 274 1377 z "},"ų":{"ha":970,"x_min":129,"x_max":841,"o":"m 841 1157 l 841 321 q 801 153 841 230 q 688 27 760 75 q 528 -32 617 -22 q 476 -115 476 -71 q 499 -167 476 -149 q 560 -185 522 -185 q 599 -179 579 -185 l 599 -286 q 528 -296 556 -296 q 405 -253 450 -296 q 359 -141 359 -210 q 415 -26 359 -71 q 208 94 288 -2 q 129 321 129 190 l 129 1157 l 321 1157 l 321 327 q 370 205 321 256 q 486 155 419 155 q 602 204 556 155 q 649 327 649 254 l 649 1157 l 841 1157 z "},"ů":{"ha":970,"x_min":129,"x_max":841,"o":"m 488 -34 q 305 14 387 -34 q 176 143 222 62 q 129 321 129 224 l 129 1157 l 321 1157 l 321 327 q 370 205 321 256 q 486 155 419 155 q 602 204 556 155 q 649 327 649 254 l 649 1157 l 841 1157 l 841 321 q 794 141 841 222 q 666 13 746 60 q 488 -34 585 -34 m 488 1220 q 339 1282 401 1220 q 278 1431 278 1343 q 339 1578 278 1518 q 488 1639 401 1639 q 635 1578 573 1639 q 696 1431 696 1518 q 636 1282 696 1343 q 488 1220 575 1220 m 488 1335 q 556 1364 528 1335 q 583 1435 583 1393 q 556 1501 583 1472 q 488 1530 528 1530 q 421 1501 448 1530 q 393 1435 393 1472 q 421 1364 393 1393 q 488 1335 448 1335 z "},"ũ":{"ha":970,"x_min":129,"x_max":841,"o":"m 488 -34 q 305 14 387 -34 q 176 143 222 62 q 129 321 129 224 l 129 1157 l 321 1157 l 321 327 q 370 205 321 256 q 486 155 419 155 q 602 204 556 155 q 649 327 649 254 l 649 1157 l 841 1157 l 841 321 q 794 141 841 222 q 666 13 746 60 q 488 -34 585 -34 m 694 1262 q 603 1292 659 1292 q 490 1268 552 1292 q 371 1242 419 1242 q 300 1259 317 1242 q 280 1278 282 1276 l 280 1389 q 385 1357 327 1357 q 484 1377 427 1357 q 603 1401 554 1401 q 672 1388 653 1401 q 692 1373 690 1375 l 694 1262 z "},"v":{"ha":1077,"x_min":91,"x_max":986,"o":"m 631 4 l 631 0 l 438 0 l 438 4 l 91 1157 l 284 1157 l 540 329 l 794 1157 l 986 1157 l 631 4 z "},"w":{"ha":1351,"x_min":99,"x_max":1252,"o":"m 1252 1157 l 1020 0 l 823 0 l 683 685 l 544 0 l 347 0 l 99 1157 l 292 1157 l 444 456 l 583 1157 l 780 1157 l 919 462 l 1058 1157 l 1252 1157 z "},"ẃ":{"ha":1351,"x_min":99,"x_max":1252,"o":"m 1252 1157 l 1020 0 l 823 0 l 683 685 l 544 0 l 347 0 l 99 1157 l 292 1157 l 444 456 l 583 1157 l 780 1157 l 919 462 l 1058 1157 l 1252 1157 m 522 1323 l 768 1500 l 839 1393 l 573 1250 l 522 1323 z "},"ŵ":{"ha":1351,"x_min":99,"x_max":1252,"o":"m 1252 1157 l 1020 0 l 823 0 l 683 685 l 544 0 l 347 0 l 99 1157 l 292 1157 l 444 456 l 583 1157 l 780 1157 l 919 462 l 1058 1157 l 1252 1157 m 474 1351 l 679 1452 l 885 1351 l 885 1252 l 679 1317 l 474 1252 l 474 1351 z "},"ẅ":{"ha":1351,"x_min":99,"x_max":1252,"o":"m 1252 1157 l 1020 0 l 823 0 l 683 685 l 544 0 l 347 0 l 99 1157 l 292 1157 l 444 456 l 583 1157 l 780 1157 l 919 462 l 1058 1157 l 1252 1157 m 528 1256 q 465 1282 490 1256 q 440 1343 440 1308 q 465 1405 440 1379 q 528 1431 490 1431 q 589 1405 563 1431 q 615 1343 615 1379 q 589 1282 615 1308 q 528 1256 563 1256 m 833 1256 q 771 1282 796 1256 q 746 1343 746 1308 q 771 1405 746 1379 q 833 1431 796 1431 q 895 1405 869 1431 q 921 1343 921 1379 q 895 1282 921 1308 q 833 1256 869 1256 z "},"ẁ":{"ha":1351,"x_min":99,"x_max":1252,"o":"m 1252 1157 l 1020 0 l 823 0 l 683 685 l 544 0 l 347 0 l 99 1157 l 292 1157 l 444 456 l 583 1157 l 780 1157 l 919 462 l 1058 1157 l 1252 1157 m 522 1393 l 593 1500 l 839 1323 l 788 1250 l 522 1393 z "},"x":{"ha":1060,"x_min":99,"x_max":960,"o":"m 748 2 l 530 427 l 312 2 l 99 2 l 425 633 l 155 1157 l 365 1157 l 530 837 l 694 1157 l 905 1157 l 635 633 l 960 2 l 748 2 z "},"y":{"ha":1063,"x_min":91,"x_max":974,"o":"m 627 540 l 627 0 l 438 0 l 438 540 l 91 1157 l 300 1157 l 532 742 l 766 1157 l 974 1157 l 627 540 z "},"ý":{"ha":1063,"x_min":91,"x_max":974,"o":"m 627 540 l 627 0 l 438 0 l 438 540 l 91 1157 l 300 1157 l 532 742 l 766 1157 l 974 1157 l 627 540 m 373 1323 l 619 1500 l 690 1393 l 425 1250 l 373 1323 z "},"ŷ":{"ha":1063,"x_min":91,"x_max":974,"o":"m 627 540 l 627 0 l 438 0 l 438 540 l 91 1157 l 300 1157 l 532 742 l 766 1157 l 974 1157 l 627 540 m 325 1351 l 530 1452 l 736 1351 l 736 1252 l 530 1317 l 325 1252 l 325 1351 z "},"ÿ":{"ha":1063,"x_min":91,"x_max":974,"o":"m 627 540 l 627 0 l 438 0 l 438 540 l 91 1157 l 300 1157 l 532 742 l 766 1157 l 974 1157 l 627 540 m 379 1256 q 316 1282 341 1256 q 292 1343 292 1308 q 316 1405 292 1379 q 379 1431 341 1431 q 440 1405 415 1431 q 466 1343 466 1379 q 440 1282 466 1308 q 379 1256 415 1256 m 685 1256 q 622 1282 647 1256 q 597 1343 597 1308 q 622 1405 597 1379 q 685 1431 647 1431 q 746 1405 720 1431 q 772 1343 772 1379 q 746 1282 772 1308 q 685 1256 720 1256 z "},"ỵ":{"ha":1063,"x_min":91,"x_max":974,"o":"m 627 540 l 627 0 l 438 0 l 438 540 l 91 1157 l 300 1157 l 532 742 l 766 1157 l 974 1157 l 627 540 m 516 -272 q 453 -246 478 -272 q 429 -185 429 -220 q 453 -123 429 -149 q 516 -97 478 -97 q 577 -123 552 -97 q 603 -185 603 -149 q 577 -246 603 -220 q 516 -272 552 -272 z "},"ỳ":{"ha":1063,"x_min":91,"x_max":974,"o":"m 627 540 l 627 0 l 438 0 l 438 540 l 91 1157 l 300 1157 l 532 742 l 766 1157 l 974 1157 l 627 540 m 373 1393 l 444 1500 l 690 1323 l 639 1250 l 373 1393 z "},"ỷ":{"ha":1063,"x_min":91,"x_max":974,"o":"m 627 540 l 627 0 l 438 0 l 438 540 l 91 1157 l 300 1157 l 532 742 l 766 1157 l 974 1157 l 627 540 m 486 1363 q 566 1381 540 1363 q 593 1429 593 1399 q 574 1465 593 1450 q 526 1480 556 1480 q 466 1464 496 1480 l 466 1552 q 538 1571 492 1571 q 639 1538 591 1571 q 694 1444 687 1504 q 668 1345 700 1389 q 575 1290 635 1302 l 575 1252 l 486 1252 l 486 1363 z "},"ỹ":{"ha":1063,"x_min":91,"x_max":974,"o":"m 627 540 l 627 0 l 438 0 l 438 540 l 91 1157 l 300 1157 l 532 742 l 766 1157 l 974 1157 l 627 540 m 738 1262 q 647 1292 702 1292 q 534 1268 595 1292 q 415 1242 462 1242 q 343 1259 361 1242 q 323 1278 325 1276 l 323 1389 q 429 1357 371 1357 q 528 1377 470 1357 q 647 1401 597 1401 q 715 1388 696 1401 q 736 1373 734 1375 l 738 1262 z "},"z":{"ha":944,"x_min":91,"x_max":815,"o":"m 815 962 l 812 962 l 815 956 l 325 194 l 813 194 l 813 0 l 91 0 l 91 194 l 93 194 l 91 196 l 585 962 l 167 962 l 167 1157 l 815 1157 l 815 962 z "},"ź":{"ha":944,"x_min":91,"x_max":815,"o":"m 815 962 l 812 962 l 815 956 l 325 194 l 813 194 l 813 0 l 91 0 l 91 194 l 93 194 l 91 196 l 585 962 l 167 962 l 167 1157 l 815 1157 l 815 962 m 337 1323 l 583 1500 l 655 1393 l 389 1250 l 337 1323 z "},"ž":{"ha":944,"x_min":91,"x_max":815,"o":"m 815 962 l 812 962 l 815 956 l 325 194 l 813 194 l 813 0 l 91 0 l 91 194 l 93 194 l 91 196 l 585 962 l 167 962 l 167 1157 l 815 1157 l 815 962 m 496 1379 l 706 1446 l 706 1345 l 496 1242 l 288 1345 l 288 1446 l 496 1379 z "},"ż":{"ha":944,"x_min":91,"x_max":815,"o":"m 815 962 l 812 962 l 815 956 l 325 194 l 813 194 l 813 0 l 91 0 l 91 194 l 93 194 l 91 196 l 585 962 l 167 962 l 167 1157 l 815 1157 l 815 962 m 480 1256 q 418 1282 442 1256 q 393 1343 393 1308 q 418 1405 393 1379 q 480 1431 442 1431 q 542 1405 516 1431 q 567 1343 567 1379 q 542 1282 567 1308 q 480 1256 516 1256 z "},".":{"ha":437,"x_min":109,"x_max":327,"o":"m 218 -26 q 141 6 173 -26 q 109 83 109 38 q 141 161 109 129 q 218 192 173 192 q 296 161 264 192 q 327 83 327 129 q 296 7 327 40 q 218 -26 264 -26 z "},",":{"ha":417,"x_min":109,"x_max":308,"o":"m 308 81 q 253 -34 304 16 q 151 -89 202 -83 q 175 6 171 -38 q 128 43 147 16 q 109 101 109 69 q 138 171 109 141 q 208 200 167 200 q 279 171 250 200 q 308 101 308 141 l 308 95 l 308 81 z "},":":{"ha":437,"x_min":109,"x_max":327,"o":"m 218 817 q 141 849 173 817 q 109 927 109 881 q 141 1004 109 972 q 218 1036 173 1036 q 296 1004 264 1036 q 327 927 327 972 q 296 850 327 883 q 218 817 264 817 m 218 -26 q 141 6 173 -26 q 109 83 109 38 q 141 161 109 129 q 218 192 173 192 q 296 161 264 192 q 327 83 327 129 q 296 7 327 40 q 218 -26 264 -26 z "},";":{"ha":437,"x_min":109,"x_max":327,"o":"m 218 817 q 141 849 173 817 q 109 927 109 881 q 141 1004 109 972 q 218 1036 173 1036 q 296 1004 264 1036 q 327 927 327 972 q 296 850 327 883 q 218 817 264 817 m 313 81 q 259 -34 310 16 q 157 -89 208 -83 q 181 6 177 -38 q 134 43 153 16 q 115 101 115 69 q 144 171 115 141 q 214 200 173 200 q 285 171 256 200 q 313 101 313 141 l 313 95 l 313 81 z "},"…":{"ha":1367,"x_min":109,"x_max":1258,"o":"m 1149 -26 q 1071 6 1103 -26 q 1040 83 1040 38 q 1071 161 1040 129 q 1149 192 1103 192 q 1226 161 1194 192 q 1258 83 1258 129 q 1226 7 1258 40 q 1149 -26 1194 -26 m 218 -26 q 141 6 173 -26 q 109 83 109 38 q 141 161 109 129 q 218 192 173 192 q 296 161 264 192 q 327 83 327 129 q 296 7 327 40 q 218 -26 264 -26 m 685 -26 q 607 6 639 -26 q 575 83 575 38 q 607 161 575 129 q 685 192 639 192 q 762 161 730 192 q 794 83 794 129 q 762 7 794 40 q 685 -26 730 -26 z "},"!":{"ha":524,"x_min":149,"x_max":375,"o":"m 149 1389 l 375 1389 l 347 361 l 177 361 l 149 1389 m 262 -28 q 185 4 216 -28 q 153 81 153 36 q 185 159 153 127 q 262 190 216 190 q 339 159 308 190 q 371 81 371 127 q 339 5 371 38 q 262 -28 308 -28 z "},"¡":{"ha":524,"x_min":149,"x_max":375,"o":"m 262 1337 q 339 1306 308 1337 q 371 1228 371 1274 q 339 1152 371 1185 q 262 1119 308 1119 q 185 1151 216 1119 q 153 1228 153 1183 q 185 1306 153 1274 q 262 1337 216 1337 m 347 948 l 375 -79 l 149 -79 l 177 948 l 347 948 z "},"?":{"ha":1036,"x_min":129,"x_max":907,"o":"m 385 365 q 383 415 383 383 q 408 579 383 508 q 467 698 433 651 q 558 804 502 746 q 650 920 619 869 q 681 1038 681 970 q 631 1160 681 1109 q 512 1210 581 1210 q 446 1193 484 1210 q 380 1139 409 1177 q 351 1042 351 1101 l 129 1042 q 181 1243 129 1153 q 319 1384 232 1333 q 512 1435 407 1435 q 708 1381 617 1435 q 853 1236 800 1327 q 907 1038 907 1145 q 883 891 907 954 q 823 783 859 827 q 732 683 788 738 q 646 587 677 627 q 596 492 615 548 q 581 365 577 437 l 385 365 m 484 -26 q 407 6 438 -26 q 375 83 375 38 q 407 161 375 129 q 484 192 438 192 q 562 161 530 192 q 593 83 593 129 q 562 7 593 40 q 484 -26 530 -26 z "},"¿":{"ha":1036,"x_min":129,"x_max":907,"o":"m 552 1187 q 629 1155 597 1187 q 661 1077 661 1123 q 629 1000 661 1032 q 552 968 597 968 q 475 1001 508 968 q 442 1077 442 1034 q 475 1155 442 1123 q 552 1187 508 1187 m 651 796 q 653 746 653 778 q 628 581 653 653 q 568 462 603 510 q 478 357 534 415 q 386 241 417 292 q 355 123 355 190 q 405 1 355 52 q 524 -50 454 -50 q 589 -33 552 -50 q 656 22 627 -16 q 685 119 685 60 l 907 119 q 855 -82 907 8 q 716 -223 804 -173 q 524 -274 629 -274 q 327 -220 419 -274 q 183 -75 236 -167 q 129 123 129 16 q 153 270 129 206 q 212 378 177 333 q 304 478 248 423 q 390 573 359 534 q 439 669 421 613 q 454 796 458 724 l 651 796 z "},"·":{"ha":456,"x_min":119,"x_max":337,"o":"m 228 639 q 151 671 183 639 q 119 748 119 702 q 151 825 119 794 q 228 857 183 857 q 306 825 274 857 q 337 748 337 794 q 306 672 337 704 q 228 639 274 639 z "},"•":{"ha":665,"x_min":159,"x_max":506,"o":"m 331 565 q 209 616 260 565 q 159 738 159 667 q 209 861 159 810 q 331 913 260 913 q 454 861 403 913 q 506 738 506 810 q 454 617 506 669 q 331 565 403 565 z "},"*":{"ha":956,"x_min":129,"x_max":827,"o":"m 613 1079 l 770 897 l 639 792 l 478 984 l 315 792 l 185 897 l 341 1081 l 129 1159 l 185 1313 l 397 1236 l 395 1474 l 562 1474 l 560 1234 l 774 1313 l 827 1159 l 613 1079 z "},"#":{"ha":1595,"x_min":169,"x_max":1427,"o":"m 1167 819 l 1089 619 l 1270 619 l 1188 417 l 1010 417 l 833 -34 l 615 -34 l 792 417 l 563 417 l 387 -34 l 169 -34 l 345 417 l 169 417 l 250 619 l 425 619 l 502 819 l 325 819 l 407 1022 l 581 1022 l 740 1425 l 958 1425 l 800 1022 l 1028 1022 l 1187 1425 l 1405 1425 l 1246 1022 l 1427 1022 l 1345 819 l 1167 819 m 948 819 l 720 819 l 643 619 l 871 619 l 948 819 z "},"/":{"ha":937,"x_min":73,"x_max":863,"o":"m 73 -34 l 645 1425 l 863 1425 l 292 -34 l 73 -34 z "},"\\":{"ha":937,"x_min":73,"x_max":863,"o":"m 73 1423 l 292 1423 l 863 -36 l 645 -36 l 73 1423 z "},"(":{"ha":740,"x_min":89,"x_max":631,"o":"m 401 -212 q 266 -22 337 -151 q 142 293 194 107 q 89 694 89 478 q 141 1079 89 899 q 264 1387 192 1260 q 401 1581 335 1514 l 631 1581 q 421 1208 512 1437 q 329 714 329 980 q 375 329 329 514 q 490 4 421 145 q 631 -212 560 -137 l 401 -212 z "},")":{"ha":740,"x_min":109,"x_max":651,"o":"m 109 -212 q 250 4 181 -137 q 365 329 319 145 q 411 714 411 514 q 319 1208 411 980 q 109 1581 228 1437 l 339 1581 q 476 1387 405 1514 q 599 1079 548 1260 q 651 694 651 899 q 598 293 651 478 q 474 -22 546 107 q 339 -212 403 -151 l 109 -212 z "},"{":{"ha":641,"x_min":89,"x_max":530,"o":"m 460 -250 q 249 -144 325 -250 q 173 145 173 -38 l 175 395 q 161 595 175 526 q 105 665 147 665 l 89 665 l 89 812 l 105 812 q 160 863 145 812 q 175 1010 175 915 q 173 1109 175 1075 l 171 1222 q 242 1516 171 1411 q 460 1621 313 1621 l 530 1621 l 530 1435 l 494 1435 q 407 1375 431 1435 q 383 1212 383 1315 l 385 1040 q 366 835 385 915 q 292 732 347 756 q 368 613 349 704 q 387 373 387 522 l 385 177 q 409 1 385 65 q 494 -63 433 -63 l 530 -63 l 530 -250 l 460 -250 z "},"}":{"ha":639,"x_min":89,"x_max":530,"o":"m 89 -250 l 89 -63 l 125 -63 q 210 1 187 -63 q 234 177 234 65 l 232 373 q 251 613 232 522 q 327 732 270 704 q 253 835 272 756 q 234 1040 234 915 l 236 1212 q 212 1375 236 1315 q 125 1435 188 1435 l 89 1435 l 89 1621 l 159 1621 q 377 1516 306 1621 q 448 1222 448 1411 l 446 1109 q 444 1010 444 1075 q 459 863 444 915 q 514 812 474 812 l 530 812 l 530 665 l 514 665 q 458 595 472 665 q 444 395 444 526 l 446 145 q 370 -144 446 -38 q 159 -250 294 -250 l 89 -250 z "},"[":{"ha":625,"x_min":139,"x_max":516,"o":"m 139 1619 l 516 1619 l 516 1425 l 365 1425 l 365 -58 l 516 -58 l 516 -250 l 139 -250 l 139 1619 z "},"]":{"ha":625,"x_min":109,"x_max":486,"o":"m 109 -250 l 109 -58 l 260 -58 l 260 1425 l 109 1425 l 109 1619 l 486 1619 l 486 -250 l 109 -250 z "},"-":{"ha":1091,"x_min":129,"x_max":962,"o":"m 129 835 l 962 835 l 962 605 l 129 605 l 129 835 z "},"–":{"ha":1266,"x_min":129,"x_max":1137,"o":"m 129 835 l 1137 835 l 1137 605 l 129 605 l 129 835 z "},"—":{"ha":1417,"x_min":129,"x_max":1288,"o":"m 129 835 l 1288 835 l 1288 605 l 129 605 l 129 835 z "},"_":{"ha":1446,"x_min":109,"x_max":1337,"o":"m 109 -14 l 1337 -14 l 1337 -208 l 109 -208 l 109 -14 z "},"‚":{"ha":417,"x_min":109,"x_max":308,"o":"m 308 81 q 253 -34 304 16 q 151 -89 202 -83 q 175 6 171 -38 q 128 43 147 16 q 109 101 109 69 q 138 171 109 141 q 208 200 167 200 q 279 171 250 200 q 308 101 308 141 l 308 95 l 308 81 z "},"„":{"ha":417,"x_min":109,"x_max":308,"o":"m 308 81 q 253 -34 304 16 q 151 -89 202 -83 q 175 6 171 -38 q 128 43 147 16 q 109 101 109 69 q 138 171 109 141 q 208 200 167 200 q 279 171 250 200 q 308 101 308 141 l 308 95 l 308 81 z "},"“":{"ha":784,"x_min":109,"x_max":675,"o":"m 242 1325 q 289 1289 270 1315 q 308 1230 308 1262 q 279 1161 308 1190 q 208 1131 250 1131 q 138 1161 167 1131 q 109 1230 109 1190 l 109 1236 l 109 1250 q 164 1365 113 1315 q 266 1421 214 1415 q 242 1325 246 1369 m 609 1325 q 656 1289 637 1315 q 675 1230 675 1262 q 646 1161 675 1190 q 575 1131 617 1131 q 505 1161 534 1131 q 476 1230 476 1190 l 476 1236 l 476 1250 q 531 1365 480 1315 q 633 1421 581 1415 q 609 1325 613 1369 z "},"”":{"ha":778,"x_min":109,"x_max":669,"o":"m 308 1302 q 253 1187 304 1236 q 151 1131 202 1137 q 175 1226 171 1183 q 128 1263 147 1236 q 109 1321 109 1290 q 138 1391 109 1361 q 208 1421 167 1421 q 279 1391 250 1421 q 308 1321 308 1361 l 308 1315 l 308 1302 m 669 1302 q 614 1187 665 1236 q 512 1131 563 1137 q 536 1226 532 1183 q 489 1263 508 1236 q 470 1321 470 1290 q 499 1391 470 1361 q 569 1421 528 1421 q 640 1391 611 1421 q 669 1321 669 1361 l 669 1315 l 669 1302 z "},"‘":{"ha":417,"x_min":109,"x_max":308,"o":"m 242 1327 q 289 1291 270 1317 q 308 1232 308 1264 q 279 1163 308 1192 q 208 1133 250 1133 q 138 1163 167 1133 q 109 1232 109 1192 l 109 1238 l 109 1252 q 164 1367 113 1317 q 266 1423 214 1417 q 242 1327 246 1371 z "},"’":{"ha":417,"x_min":109,"x_max":308,"o":"m 308 1302 q 253 1187 304 1236 q 151 1131 202 1137 q 175 1226 171 1183 q 128 1263 147 1236 q 109 1321 109 1290 q 138 1391 109 1361 q 208 1421 167 1421 q 279 1391 250 1421 q 308 1321 308 1361 l 308 1315 l 308 1302 z "},"«":{"ha":1097,"x_min":89,"x_max":968,"o":"z "},"»":{"ha":1097,"x_min":129,"x_max":1008,"o":"m 569 587 l 732 730 l 569 869 l 569 1115 l 1008 730 l 569 341 l 569 587 m 129 587 l 292 730 l 129 869 l 129 1115 l 567 730 l 129 341 l 129 587 z "},"‹":{"ha":657,"x_min":89,"x_max":528,"o":"m 89 730 l 528 1115 l 528 869 l 365 730 l 528 587 l 528 341 l 89 730 z "},"›":{"ha":657,"x_min":129,"x_max":567,"o":"m 129 587 l 292 730 l 129 869 l 129 1115 l 567 730 l 129 341 l 129 587 z "},"\"":{"ha":823,"x_min":129,"x_max":694,"o":"m 129 1421 l 325 1421 l 325 1004 l 129 1004 l 129 1421 m 498 1421 l 694 1421 l 694 1004 l 498 1004 l 498 1421 z "},"'":{"ha":454,"x_min":129,"x_max":325,"o":"m 129 1421 l 325 1421 l 325 1004 l 129 1004 l 129 1421 z "},"¢":{"ha":998,"x_min":149,"x_max":859,"o":"m 502 270 q 623 330 579 270 q 667 490 667 391 l 853 490 q 851 413 853 438 q 761 194 843 282 q 567 91 679 107 l 567 0 l 425 0 l 425 93 q 227 207 306 115 q 149 423 149 300 l 149 964 q 228 1184 149 1087 q 425 1302 308 1280 l 425 1389 l 567 1389 l 567 1306 q 761 1209 679 1290 q 855 1012 843 1129 q 859 954 859 976 l 667 954 q 619 1075 667 1028 q 500 1123 571 1123 q 388 1074 437 1123 q 339 958 339 1026 l 339 437 q 388 319 339 369 q 502 270 437 270 z "},"$":{"ha":1151,"x_min":137,"x_max":1000,"o":"m 1000 395 q 900 110 1000 226 q 639 -30 800 -6 l 639 -117 l 492 -117 l 492 -30 q 308 47 389 -14 q 182 202 226 107 q 139 411 137 298 l 369 411 q 427 254 369 313 q 571 194 484 194 q 708 242 651 194 q 766 383 766 290 q 710 505 766 450 q 528 627 655 560 q 354 732 421 685 q 239 855 288 780 q 190 1038 190 931 q 232 1212 190 1131 q 346 1349 274 1294 q 506 1421 419 1405 l 506 1506 l 653 1506 l 653 1419 q 872 1293 786 1391 q 958 1065 958 1194 l 726 1065 q 680 1158 726 1117 q 571 1198 633 1198 q 470 1149 514 1198 q 427 1038 427 1099 q 475 934 427 978 q 651 821 524 889 q 827 714 756 766 q 949 583 899 663 q 1000 395 1000 504 z "},"€":{"ha":1260,"x_min":10,"x_max":1115,"o":"m 687 181 q 832 253 780 181 q 885 446 885 325 l 1109 446 q 1107 353 1109 383 q 1041 147 1099 236 q 894 10 982 58 q 712 -38 806 -38 l 665 -38 q 463 17 556 -38 q 316 164 371 71 q 262 365 262 256 l 262 450 l 10 450 l 198 631 l 262 631 l 262 724 l 10 724 l 198 905 l 262 905 l 262 1014 q 316 1218 262 1123 q 463 1370 371 1313 q 665 1427 556 1427 l 712 1427 q 897 1382 810 1427 q 1043 1256 984 1337 q 1111 1071 1101 1175 q 1115 1002 1115 1028 l 885 1002 q 827 1149 885 1091 q 685 1206 770 1206 q 550 1148 607 1206 q 492 1008 492 1089 l 492 905 l 1026 905 l 839 722 l 492 722 l 492 631 l 748 631 l 563 450 l 492 450 l 492 381 q 551 240 492 300 q 687 181 609 181 z "},"£":{"ha":1062,"x_min":129,"x_max":923,"o":"m 923 236 l 923 0 l 129 0 l 129 236 q 216 281 177 236 q 280 395 256 325 q 304 536 304 464 l 304 550 l 304 611 l 169 611 l 169 829 l 292 829 q 284 1060 284 968 q 338 1258 284 1169 q 485 1398 393 1347 q 687 1448 577 1448 q 789 1432 736 1448 q 867 1393 841 1415 l 776 1188 q 687 1214 738 1214 q 568 1164 617 1214 q 520 1040 520 1113 q 526 889 520 976 l 528 829 l 683 829 l 683 611 l 538 611 l 538 524 q 501 342 538 425 q 427 236 464 260 l 923 236 z "},"+":{"ha":1115,"x_min":129,"x_max":986,"o":"m 986 611 l 667 611 l 667 292 l 448 292 l 448 611 l 129 611 l 129 829 l 448 829 l 448 1149 l 667 1149 l 667 829 l 986 829 l 986 611 z "},"−":{"ha":1115,"x_min":129,"x_max":986,"o":"m 129 829 l 986 829 l 986 611 l 129 611 l 129 829 z "},"×":{"ha":1032,"x_min":139,"x_max":893,"o":"m 730 407 l 516 621 l 302 407 l 139 569 l 353 784 l 141 996 l 304 1159 l 516 946 l 728 1159 l 891 996 l 679 784 l 893 569 l 730 407 z "},"÷":{"ha":1115,"x_min":129,"x_max":986,"o":"m 538 976 q 460 1008 492 976 q 429 1085 429 1040 q 460 1163 429 1131 q 538 1194 492 1194 q 615 1163 583 1194 q 647 1085 647 1131 q 615 1009 647 1042 q 538 976 583 976 m 538 254 q 460 286 492 254 q 429 363 429 317 q 460 440 429 409 q 538 472 492 472 q 615 440 583 472 q 647 363 647 409 q 615 287 647 319 q 538 254 583 254 m 129 833 l 986 833 l 986 615 l 129 615 l 129 833 z "},"=":{"ha":1115,"x_min":129,"x_max":986,"o":"m 129 627 l 986 627 l 986 409 l 129 409 l 129 627 m 129 1044 l 986 1044 l 986 825 l 129 825 l 129 1044 z "},">":{"ha":657,"x_min":129,"x_max":567,"o":"m 129 587 l 292 730 l 129 869 l 129 1115 l 567 730 l 129 341 l 129 587 z "},"<":{"ha":657,"x_min":89,"x_max":528,"o":"m 89 730 l 528 1115 l 528 869 l 365 730 l 528 587 l 528 341 l 89 730 z "},"≈":{"ha":990,"x_min":157,"x_max":861,"o":"m 861 804 q 706 855 804 855 q 514 813 623 855 q 313 770 403 770 q 189 800 220 770 q 157 831 159 829 l 157 1026 q 333 970 236 970 q 504 1004 409 970 q 708 1046 627 1046 q 820 1023 788 1046 q 857 998 853 1000 l 861 804 m 861 397 q 706 448 804 448 q 514 407 623 448 q 313 363 403 363 q 189 393 220 363 q 157 425 159 423 l 157 619 q 333 563 236 563 q 504 597 409 563 q 708 639 627 639 q 820 616 788 639 q 857 591 853 593 l 861 397 z "},"~":{"ha":990,"x_min":157,"x_max":861,"o":"m 861 593 q 706 645 804 645 q 514 603 623 645 q 313 560 403 560 q 189 589 220 560 q 157 621 159 619 l 157 815 q 333 760 236 760 q 504 794 409 760 q 708 835 627 835 q 820 813 788 835 q 857 788 853 790 l 861 593 z "},"^":{"ha":913,"x_min":69,"x_max":843,"o":"m 458 1431 l 843 992 l 597 992 l 458 1155 l 315 992 l 69 992 l 458 1431 z "},"%":{"ha":1605,"x_min":117,"x_max":1494,"o":"m 1218 89 q 1078 126 1143 89 q 977 227 1014 163 q 940 367 940 292 q 977 506 940 442 q 1078 606 1014 569 q 1218 643 1143 643 q 1357 606 1294 643 q 1457 506 1421 569 q 1494 367 1494 442 q 1457 227 1494 292 q 1357 126 1421 163 q 1218 89 1294 89 m 1218 252 q 1302 287 1268 252 q 1335 371 1335 321 q 1302 453 1335 419 q 1218 488 1268 488 q 1135 453 1169 488 q 1101 371 1101 419 q 1135 287 1101 321 q 1218 252 1169 252 m 395 823 q 255 860 319 823 q 154 961 190 897 q 117 1101 117 1026 q 154 1240 117 1177 q 255 1340 190 1304 q 395 1377 319 1377 q 534 1340 470 1377 q 634 1240 597 1304 q 671 1101 671 1177 q 634 961 671 1026 q 534 860 597 897 q 395 823 470 823 m 395 986 q 478 1021 444 986 q 512 1105 512 1056 q 478 1188 512 1153 q 395 1222 444 1222 q 312 1188 345 1222 q 278 1105 278 1153 q 312 1021 278 1056 q 395 986 345 986 m 407 -34 l 978 1425 l 1196 1425 l 625 -34 l 407 -34 z "},"@":{"ha":1692,"x_min":99,"x_max":1585,"o":"m 522 -10 q 209 220 319 54 q 99 603 99 387 q 157 911 99 762 q 333 1174 212 1058 q 615 1355 454 1290 q 948 1421 776 1421 q 1248 1365 1105 1421 q 1494 1165 1403 1306 q 1585 855 1585 1024 q 1548 651 1585 752 q 1435 460 1510 550 q 1303 352 1385 401 q 1147 286 1220 304 q 1060 272 1095 272 q 985 301 1012 272 q 958 401 958 329 q 964 470 958 433 q 813 349 879 393 q 683 284 748 306 q 585 266 629 266 q 440 391 472 266 q 423 528 423 454 q 465 776 423 649 q 569 974 508 903 q 680 1072 613 1026 q 815 1141 746 1119 q 958 1159 879 1159 q 1096 1147 1028 1159 q 1206 1117 1165 1135 l 1119 589 q 1107 478 1107 512 q 1131 429 1107 429 q 1146 431 1139 429 q 1159 435 1153 433 q 1294 513 1228 452 q 1401 663 1359 573 q 1442 853 1442 752 q 1372 1100 1442 990 q 1177 1252 1302 1210 q 954 1288 1071 1288 q 684 1239 815 1288 q 447 1095 552 1190 q 292 865 343 1000 q 244 607 244 738 q 330 296 244 431 q 573 109 417 161 q 776 79 669 79 q 1015 114 895 79 q 1222 208 1135 149 l 1272 99 q 1050 -6 1188 32 q 766 -44 911 -44 q 522 -10 629 -44 m 643 415 q 798 495 720 437 q 931 617 875 554 q 996 708 986 681 l 1054 1030 q 954 1042 988 1042 q 720 942 819 1042 q 611 757 653 877 q 569 536 569 637 q 588 438 569 472 q 643 415 607 405 z "},"&":{"ha":1351,"x_min":131,"x_max":1240,"o":"m 1089 6 l 982 119 q 807 -3 901 36 q 591 -42 712 -42 q 346 16 450 -42 q 187 174 242 73 q 131 403 131 274 q 194 615 131 516 q 357 780 258 714 q 275 921 300 851 q 250 1065 250 990 q 343 1316 250 1222 q 597 1411 437 1411 q 747 1374 669 1411 q 879 1264 825 1337 q 933 1087 933 1190 q 878 886 933 964 q 704 726 823 808 l 968 450 l 1024 512 q 1062 556 1060 554 l 1228 397 q 1129 282 1177 331 l 1240 167 l 1089 6 m 591 1202 q 502 1168 540 1202 q 464 1067 464 1133 q 483 978 464 1016 q 556 881 502 940 q 680 970 639 925 q 720 1079 720 1016 q 680 1170 720 1137 q 591 1202 639 1202 m 817 292 l 516 611 q 363 389 363 518 q 371 333 363 373 q 453 212 391 248 q 591 177 516 177 q 794 268 702 177 l 817 292 z "},"©":{"ha":1669,"x_min":99,"x_max":1569,"o":"m 835 -44 q 466 56 635 -44 q 198 323 298 155 q 99 692 99 492 q 198 1060 99 891 q 466 1327 298 1228 q 835 1427 635 1427 q 1202 1327 1034 1427 q 1470 1060 1371 1228 q 1569 692 1569 891 q 1470 323 1569 492 q 1202 56 1371 155 q 835 -44 1034 -44 m 835 95 q 1133 176 996 95 q 1350 393 1270 256 q 1431 692 1431 530 q 1350 990 1431 853 q 1133 1207 1270 1127 q 835 1288 996 1288 q 536 1207 673 1288 q 318 990 399 1127 q 238 692 238 853 q 318 393 238 530 q 536 176 399 256 q 835 95 673 95 m 821 218 q 689 253 750 218 q 594 348 629 288 q 560 480 560 409 l 560 901 q 595 1034 560 972 q 690 1132 631 1095 q 821 1169 750 1169 l 853 1169 q 1026 1104 950 1169 q 1111 938 1101 1040 q 1115 893 1115 911 l 964 893 q 928 988 964 950 q 833 1026 891 1026 q 746 988 784 1026 q 708 897 708 950 l 708 490 q 746 398 708 437 q 835 359 784 359 q 930 406 895 359 q 964 532 964 452 l 1111 532 q 1109 472 1111 490 q 1066 338 1105 397 q 971 249 1028 280 q 853 218 915 218 l 821 218 z "},"®":{"ha":1669,"x_min":99,"x_max":1569,"o":"m 835 1427 q 1202 1327 1034 1427 q 1470 1060 1371 1228 q 1569 692 1569 891 q 1470 323 1569 492 q 1202 56 1371 155 q 835 -44 1034 -44 q 466 56 635 -44 q 198 323 298 155 q 99 692 99 492 q 198 1060 99 891 q 466 1327 298 1228 q 835 1427 635 1427 m 835 95 q 1134 176 998 95 q 1350 393 1270 256 q 1431 692 1431 530 q 1350 991 1431 855 q 1134 1207 1270 1127 q 835 1288 998 1288 q 536 1207 673 1288 q 318 991 399 1127 q 238 692 238 855 q 318 393 238 530 q 536 176 399 256 q 835 95 673 95 m 1103 887 q 1075 771 1103 823 q 1000 685 1048 718 l 1159 254 l 1010 254 l 865 647 l 718 647 l 718 254 l 575 254 l 575 1139 l 871 1139 q 1037 1064 970 1139 q 1103 887 1103 990 m 718 790 l 871 790 q 935 819 909 790 q 960 887 960 849 q 935 959 960 927 q 871 992 909 992 l 718 992 l 718 790 z "},"™":{"ha":1754,"x_min":109,"x_max":1615,"o":"m 109 1389 l 758 1389 l 758 1246 l 504 1246 l 504 534 l 363 534 l 363 1246 l 109 1246 l 109 1389 m 1615 1389 l 1615 534 l 1476 534 l 1476 970 l 1321 534 l 1194 534 l 1040 970 l 1040 534 l 901 534 l 901 1389 l 1040 1389 l 1258 772 l 1476 1389 l 1615 1389 z "},"°":{"ha":768,"x_min":107,"x_max":661,"o":"m 385 923 q 245 959 310 923 q 144 1061 181 996 q 107 1200 107 1125 q 144 1339 107 1276 q 245 1439 181 1403 q 385 1476 310 1476 q 524 1439 460 1476 q 624 1339 587 1403 q 661 1200 661 1276 q 624 1061 661 1125 q 524 959 587 996 q 385 923 460 923 m 385 1085 q 468 1120 435 1085 q 502 1204 502 1155 q 468 1287 502 1252 q 385 1321 435 1321 q 302 1287 335 1321 q 268 1204 268 1252 q 302 1120 268 1155 q 385 1085 335 1085 z "},"|":{"ha":508,"x_min":169,"x_max":339,"o":"m 169 1413 l 339 1413 l 339 -214 l 169 -214 l 169 1413 z "},"̈":{"ha":0,"x_min":-569,"x_max":-89,"o":"m -482 1488 q -545 1514 -520 1488 q -569 1575 -569 1540 q -545 1637 -569 1611 q -482 1663 -520 1663 q -421 1637 -446 1663 q -395 1575 -395 1611 q -421 1514 -395 1540 q -482 1488 -446 1488 m -177 1488 q -239 1514 -214 1488 q -264 1575 -264 1540 q -239 1637 -264 1611 q -177 1663 -214 1663 q -115 1637 -141 1663 q -89 1575 -89 1611 q -115 1514 -89 1540 q -177 1488 -141 1488 z "},"̇":{"ha":0,"x_min":-264,"x_max":-89,"o":"m -177 1488 q -239 1514 -214 1488 q -264 1575 -264 1540 q -239 1637 -264 1611 q -177 1663 -214 1663 q -115 1637 -141 1663 q -89 1575 -89 1611 q -115 1514 -89 1540 q -177 1488 -141 1488 z "},"̀":{"ha":0,"x_min":-407,"x_max":-89,"o":"m -407 1625 l -335 1732 l -89 1556 l -141 1482 l -407 1625 z "},"́":{"ha":0,"x_min":-407,"x_max":-89,"o":"m -407 1556 l -161 1732 l -89 1625 l -355 1482 l -407 1556 z "},"̋":{"ha":0,"x_min":-649,"x_max":-30,"o":"m -329 1538 l -117 1754 l -30 1661 l -266 1474 l -329 1538 m -649 1536 l -437 1752 l -349 1659 l -585 1472 l -649 1536 z "},"̂":{"ha":0,"x_min":-500,"x_max":-89,"o":"m -500 1583 l -296 1685 l -89 1583 l -89 1484 l -296 1550 l -500 1484 l -500 1583 z "},"̌":{"ha":0,"x_min":-508,"x_max":-89,"o":"m -300 1611 l -89 1679 l -89 1577 l -300 1474 l -508 1577 l -508 1679 l -300 1611 z "},"̆":{"ha":0,"x_min":-508,"x_max":-89,"o":"m -300 1466 q -440 1518 -379 1466 q -508 1643 -502 1569 l -395 1643 q -361 1598 -387 1615 q -300 1581 -335 1581 q -238 1598 -266 1581 q -202 1643 -210 1615 l -89 1643 q -160 1517 -97 1567 q -300 1466 -222 1466 z "},"̊":{"ha":0,"x_min":-508,"x_max":-89,"o":"m -298 1327 q -446 1389 -385 1327 q -508 1538 -508 1450 q -446 1686 -508 1625 q -298 1746 -385 1746 q -151 1686 -212 1746 q -89 1538 -89 1625 q -150 1389 -89 1450 q -298 1327 -210 1327 m -298 1442 q -230 1471 -258 1442 q -202 1542 -202 1500 q -230 1608 -202 1579 q -298 1637 -258 1637 q -365 1608 -337 1637 q -393 1542 -393 1579 q -365 1471 -393 1500 q -298 1442 -337 1442 z "},"̃":{"ha":0,"x_min":-504,"x_max":-89,"o":"m -89 1494 q -181 1524 -125 1524 q -294 1500 -232 1524 q -413 1474 -365 1474 q -484 1491 -466 1474 q -504 1510 -502 1508 l -504 1621 q -399 1589 -456 1589 q -300 1609 -357 1589 q -181 1633 -230 1633 q -112 1620 -131 1633 q -91 1605 -93 1607 l -89 1494 z "},"̄":{"ha":0,"x_min":-518,"x_max":-89,"o":"m -518 1609 l -89 1609 l -89 1492 l -518 1492 l -518 1609 z "},"̉":{"ha":0,"x_min":-278,"x_max":-44,"o":"m -258 1595 q -178 1613 -204 1595 q -151 1661 -151 1631 q -170 1697 -151 1683 q -218 1712 -188 1712 q -278 1696 -248 1712 l -278 1784 q -206 1804 -252 1804 q -105 1770 -153 1804 q -50 1677 -58 1736 q -76 1577 -44 1621 q -169 1522 -109 1534 l -169 1484 l -258 1484 l -258 1595 z "},"̒":{"ha":0,"x_min":-248,"x_max":-89,"o":"m -143 1643 q -104 1612 -119 1633 q -89 1565 -89 1591 q -113 1510 -89 1534 q -169 1486 -137 1486 q -224 1510 -200 1486 q -248 1565 -248 1534 l -248 1571 l -248 1581 q -205 1674 -246 1635 q -123 1718 -165 1712 q -143 1643 -137 1687 z "},"̛":{"ha":0,"x_min":-462,"x_max":-89,"o":"m -462 1292 q -340 1311 -383 1292 q -282 1389 -298 1329 l -89 1389 q -189 1206 -111 1260 q -365 1153 -268 1153 q -462 1167 -417 1153 l -462 1292 z "},"̣":{"ha":0,"x_min":-280,"x_max":-105,"o":"m -192 -272 q -255 -246 -230 -272 q -280 -185 -280 -220 q -255 -123 -280 -149 q -192 -97 -230 -97 q -131 -123 -157 -97 q -105 -185 -105 -149 q -131 -246 -105 -220 q -192 -272 -157 -272 z "},"̦":{"ha":0,"x_min":-248,"x_max":-89,"o":"m -89 -192 q -132 -285 -91 -246 q -214 -329 -173 -323 q -194 -254 -200 -298 q -233 -223 -218 -244 q -248 -177 -248 -202 q -224 -121 -248 -145 q -169 -97 -200 -97 q -113 -121 -137 -97 q -89 -177 -89 -145 l -89 -183 l -89 -192 z "},"̧":{"ha":0,"x_min":-300,"x_max":-89,"o":"m -300 -194 q -270 -196 -290 -196 q -222 -185 -238 -196 q -206 -153 -206 -173 q -232 -103 -206 -127 q -300 -71 -258 -79 l -226 0 l -89 0 l -145 -50 q -103 -98 -117 -67 q -89 -163 -89 -129 q -133 -265 -89 -224 q -248 -306 -177 -306 q -300 -300 -272 -306 l -300 -194 z "},"̨":{"ha":0,"x_min":-329,"x_max":-89,"o":"m -89 -270 q -161 -280 -133 -280 q -283 -238 -236 -280 q -329 -127 -329 -196 q -308 -47 -329 -79 q -242 12 -286 -14 l -119 12 q -212 -99 -212 -42 q -188 -151 -212 -133 q -129 -169 -165 -169 q -89 -163 -111 -169 l -89 -270 z "},"̵":{"ha":0,"x_min":-778,"x_max":-89,"o":"m -778 835 l -89 835 l -89 605 l -778 605 l -778 835 z "},"̶":{"ha":0,"x_min":-1107,"x_max":-89,"o":"m -1107 835 l -89 835 l -89 605 l -1107 605 l -1107 835 z "},"̷":{"ha":0,"x_min":-762,"x_max":-89,"o":"m -762 -62 l -276 1177 l -89 1177 l -575 -62 l -762 -62 z "},"̸":{"ha":0,"x_min":-921,"x_max":-107,"o":"m -921 -62 l -331 1442 l -107 1442 l -696 -62 l -921 -62 z "},"´":{"ha":496,"x_min":89,"x_max":407,"o":"m 89 1556 l 335 1732 l 407 1625 l 141 1482 l 89 1556 z "},"˘":{"ha":597,"x_min":89,"x_max":508,"o":"m 298 1466 q 157 1518 218 1466 q 89 1643 95 1569 l 202 1643 q 236 1598 210 1615 q 298 1581 262 1581 q 359 1598 331 1581 q 395 1643 387 1615 l 508 1643 q 438 1517 500 1567 q 298 1466 375 1466 z "},"ˇ":{"ha":597,"x_min":89,"x_max":508,"o":"m 298 1611 l 508 1679 l 508 1577 l 298 1474 l 89 1577 l 89 1679 l 298 1611 z "},"¸":{"ha":389,"x_min":89,"x_max":300,"o":"m 89 -194 q 119 -196 99 -196 q 167 -185 151 -196 q 183 -153 183 -173 q 157 -103 183 -127 q 89 -71 131 -79 l 163 0 l 300 0 l 244 -50 q 286 -98 272 -67 q 300 -163 300 -129 q 256 -265 300 -224 q 141 -306 212 -306 q 89 -300 117 -306 l 89 -194 z "},"ˆ":{"ha":589,"x_min":89,"x_max":500,"o":"m 89 1583 l 294 1685 l 500 1583 l 500 1484 l 294 1550 l 89 1484 l 89 1583 z "},"¨":{"ha":659,"x_min":89,"x_max":569,"o":"m 177 1486 q 114 1512 139 1486 q 89 1573 89 1538 q 114 1635 89 1609 q 177 1661 139 1661 q 238 1635 212 1661 q 264 1573 264 1609 q 238 1512 264 1538 q 177 1486 212 1486 m 482 1486 q 420 1512 444 1486 q 395 1573 395 1538 q 420 1635 395 1609 q 482 1661 444 1661 q 544 1635 518 1661 q 569 1573 569 1609 q 544 1512 569 1538 q 482 1486 518 1486 z "},"˙":{"ha":353,"x_min":89,"x_max":264,"o":"m 177 1488 q 114 1514 139 1488 q 89 1575 89 1540 q 114 1637 89 1611 q 177 1663 139 1663 q 238 1637 212 1663 q 264 1575 264 1611 q 238 1514 264 1540 q 177 1488 212 1488 z "},"`":{"ha":496,"x_min":89,"x_max":407,"o":"m 89 1625 l 161 1732 l 407 1556 l 355 1482 l 89 1625 z "},"˝":{"ha":738,"x_min":89,"x_max":708,"o":"m 409 1538 l 621 1754 l 708 1661 l 472 1474 l 409 1538 m 89 1536 l 302 1752 l 389 1659 l 153 1472 l 89 1536 z "},"¯":{"ha":607,"x_min":89,"x_max":518,"o":"m 89 1609 l 518 1609 l 518 1492 l 89 1492 l 89 1609 z "},"˛":{"ha":419,"x_min":89,"x_max":329,"o":"m 329 -270 q 258 -280 286 -280 q 136 -238 183 -280 q 89 -127 89 -196 q 111 -47 89 -79 q 177 12 133 -14 l 300 12 q 206 -99 206 -42 q 230 -151 206 -133 q 290 -169 254 -169 q 329 -163 308 -169 l 329 -270 z "},"˚":{"ha":597,"x_min":89,"x_max":508,"o":"m 300 1327 q 151 1389 212 1327 q 89 1538 89 1450 q 151 1686 89 1625 q 300 1746 212 1746 q 446 1686 385 1746 q 508 1538 508 1625 q 447 1389 508 1450 q 300 1327 387 1327 m 300 1442 q 367 1471 339 1442 q 395 1542 395 1500 q 367 1608 395 1579 q 300 1637 339 1637 q 232 1608 260 1637 q 204 1542 204 1579 q 232 1471 204 1500 q 300 1442 260 1442 z "},"˜":{"ha":593,"x_min":89,"x_max":504,"o":"m 504 1494 q 413 1524 468 1524 q 300 1500 361 1524 q 181 1474 228 1474 q 109 1491 127 1474 q 89 1510 91 1508 l 89 1621 q 194 1589 137 1589 q 294 1609 236 1589 q 413 1633 363 1633 q 481 1620 462 1633 q 502 1605 500 1607 l 504 1494 z "}}}
